EncodeSans-Medium.ufo
<glyph name="exclam" format="2">
  <advance width="529.2222222222223"/>
  <unicode hex="0021"/>
  <outline>
    <contour>
      <point x="200.94444444444446" y="400.00000000000006" type="line"/>
      <point x="330.2222222222223" y="400.00000000000006" type="line"/>
      <point x="374.50000000000006" y="931.2222222222223" type="line"/>
      <point x="374.50000000000006" y="1480.0" type="line"/>
      <point x="154.7222222222222" y="1480.0" type="line"/>
      <point x="154.7222222222222" y="931.2222222222223" type="line"/>
    </contour>
    <contour>
      <point x="264.61111111111114" y="-13.888888888888891" type="curve" smooth="yes"/>
      <point x="350.00000000000006" y="-13.888888888888891"/>
      <point x="406.7222222222223" y="37.72222222222223"/>
      <point x="406.7222222222223" y="115.7777777777778" type="curve" smooth="yes"/>
      <point x="406.7222222222223" y="193.83333333333337"/>
      <point x="351.5555555555556" y="246.6666666666667"/>
      <point x="264.61111111111114" y="246.6666666666667" type="curve" smooth="yes"/>
      <point x="177.66666666666666" y="246.6666666666667"/>
      <point x="122.49999999999999" y="195.3888888888889"/>
      <point x="122.49999999999999" y="115.7777777777778" type="curve" smooth="yes"/>
      <point x="122.49999999999999" y="36.16666666666667"/>
      <point x="179.22222222222223" y="-13.888888888888891"/>
    </contour>
  </outline>
</glyph>
<glyph name="dollar" format="2">
  <advance width="1089.3333333333335"/>
  <unicode hex="0024"/>
  <outline>
    <contour>
      <point x="469.8888888888889" y="-18.77777777777778" type="curve" smooth="yes"/>
      <point x="820.7777777777778" y="-18.77777777777778"/>
      <point x="1021.0555555555557" y="139.72222222222223"/>
      <point x="1021.0555555555557" y="411.5" type="curve" smooth="yes"/>
      <point x="1021.0555555555557" y="629.7777777777778"/>
      <point x="894.4444444444445" y="756.5555555555555"/>
      <point x="616.7777777777778" y="826.1111111111111" type="curve" smooth="yes"/>
      <point x="527.5555555555555" y="849.1111111111111" type="line" smooth="yes"/>
      <point x="342.61111111111114" y="898.0555555555555"/>
      <point x="279.50000000000006" y="960.3333333333334"/>
      <point x="279.50000000000006" y="1088.388888888889" type="curve" smooth="yes"/>
      <point x="279.50000000000006" y="1235.7777777777778"/>
      <point x="382.1666666666667" y="1324.2777777777778"/>
      <point x="637.1111111111111" y="1324.2777777777778" type="curve" smooth="yes"/>
      <point x="741.1111111111111" y="1324.2777777777778"/>
      <point x="853.7777777777778" y="1309.5"/>
      <point x="952.9444444444445" y="1280.0" type="curve"/>
      <point x="952.9444444444445" y="1456.5" type="line"/>
      <point x="860.3888888888889" y="1483.388888888889"/>
      <point x="741.9444444444445" y="1498.7777777777778"/>
      <point x="627.5" y="1498.7777777777778" type="curve" smooth="yes"/>
      <point x="253.61111111111111" y="1498.7777777777778"/>
      <point x="68.27777777777777" y="1339.5"/>
      <point x="68.27777777777777" y="1077.0" type="curve" smooth="yes"/>
      <point x="68.27777777777777" y="859.3333333333333"/>
      <point x="195.66666666666666" y="731.5555555555555"/>
      <point x="450.05555555555554" y="667.1666666666666" type="curve" smooth="yes"/>
      <point x="539.2777777777778" y="644.1666666666666" type="line" smooth="yes"/>
      <point x="738.0555555555555" y="592.0555555555555"/>
      <point x="809.8333333333333" y="531.0555555555555"/>
      <point x="809.8333333333333" y="398.0" type="curve" smooth="yes"/>
      <point x="809.8333333333333" y="240.8888888888889"/>
      <point x="706.2222222222222" y="155.72222222222229"/>
      <point x="469.22222222222223" y="155.72222222222229" type="curve" smooth="yes"/>
      <point x="359.22222222222223" y="155.72222222222229"/>
      <point x="219.55555555555554" y="175.83333333333337"/>
      <point x="95.16666666666666" y="216.27777777777783" type="curve"/>
      <point x="95.16666666666666" y="39.77777777777778" type="line"/>
      <point x="211.61111111111111" y="1.166666666666667"/>
      <point x="348.6111111111111" y="-18.77777777777778"/>
    </contour>
    <contour>
      <point x="447.94444444444446" y="-240.0" type="line"/>
      <point x="642.6111111111111" y="-240.0" type="line"/>
      <point x="642.6111111111111" y="37.222222222222236" type="line"/>
      <point x="447.94444444444446" y="31.111111111111125" type="line"/>
    </contour>
    <contour>
      <point x="447.94444444444446" y="1456.6666666666667" type="line"/>
      <point x="642.6111111111111" y="1456.6666666666667" type="line"/>
      <point x="642.6111111111111" y="1720.0" type="line"/>
      <point x="447.94444444444446" y="1720.0" type="line"/>
    </contour>
  </outline>
</glyph>
<glyph name="ampersand" format="2">
  <advance width="1527.3333333333335"/>
  <unicode hex="0026"/>
  <outline>
    <contour>
      <point x="1427.2222222222222" y="-20.0" type="line"/>
      <point x="1527.3333333333335" y="134.27777777777783" type="line"/>
      <point x="708.1111111111111" y="733.6666666666667" type="line" smooth="yes"/>
      <point x="534.7222222222223" y="868.8888888888889"/>
      <point x="488.66666666666674" y="947.3888888888889"/>
      <point x="488.66666666666674" y="1063.5" type="curve" smooth="yes"/>
      <point x="488.66666666666674" y="1229.388888888889"/>
      <point x="587.9444444444445" y="1324.2777777777778"/>
      <point x="843.5" y="1324.2777777777778" type="curve" smooth="yes"/>
      <point x="925.5555555555557" y="1324.2777777777778"/>
      <point x="1007.3333333333334" y="1314.5"/>
      <point x="1080.8333333333335" y="1296.0" type="curve"/>
      <point x="1080.8333333333335" y="1472.5" type="line"/>
      <point x="1008.6111111111111" y="1488.5555555555557"/>
      <point x="926.1111111111111" y="1498.7777777777778"/>
      <point x="831.7222222222222" y="1498.7777777777778" type="curve" smooth="yes"/>
      <point x="457.94444444444446" y="1498.7777777777778"/>
      <point x="277.4444444444444" y="1338.7777777777778"/>
      <point x="277.4444444444444" y="1066.7777777777778" type="curve" smooth="yes"/>
      <point x="277.4444444444444" y="899.2777777777778"/>
      <point x="350.16666666666663" y="767.7222222222222"/>
      <point x="608.0" y="579.3888888888889" type="curve" smooth="yes"/>
    </contour>
    <contour>
      <point x="683.0" y="-18.0" type="curve" smooth="yes"/>
      <point x="1063.3333333333335" y="-18.0"/>
      <point x="1289.4444444444446" y="177.16666666666669"/>
      <point x="1289.4444444444446" y="552.9444444444445" type="curve" smooth="yes"/>
      <point x="1289.4444444444446" y="636.5555555555555"/>
      <point x="1277.2222222222222" y="730.6666666666667"/>
      <point x="1252.111111111111" y="816.7777777777778" type="curve"/>
      <point x="1078.6666666666667" y="816.7777777777778" type="line"/>
      <point x="1104.388888888889" y="730.6666666666667"/>
      <point x="1118.8333333333333" y="634.5555555555555"/>
      <point x="1118.8333333333333" y="551.3888888888889" type="curve" smooth="yes"/>
      <point x="1118.8333333333333" y="256.94444444444446"/>
      <point x="957.2222222222222" y="138.22222222222226"/>
      <point x="704.0555555555555" y="138.22222222222226" type="curve" smooth="yes"/>
      <point x="456.94444444444446" y="138.22222222222226"/>
      <point x="338.66666666666674" y="252.16666666666669"/>
      <point x="338.66666666666674" y="425.8888888888889" type="curve" smooth="yes"/>
      <point x="338.66666666666674" y="554.6111111111111"/>
      <point x="398.94444444444446" y="648.9444444444445"/>
      <point x="517.0" y="712.0555555555555" type="curve"/>
      <point x="407.8333333333333" y="806.7777777777778" type="line"/>
      <point x="238.0" y="736.9444444444445"/>
      <point x="128.2222222222222" y="594.6666666666666"/>
      <point x="128.2222222222222" y="403.55555555555554" type="curve" smooth="yes"/>
      <point x="128.2222222222222" y="151.66666666666666"/>
      <point x="315.0" y="-18.0"/>
    </contour>
  </outline>
</glyph>
<glyph name="quotesingle" format="2">
  <advance width="435.7777777777778"/>
  <unicode hex="0027"/>
  <outline>
    <contour>
      <point x="155.11111111111111" y="894.5555555555555" type="line"/>
      <point x="280.6666666666667" y="894.5555555555555" type="line"/>
      <point x="322.83333333333337" y="1616.0" type="line"/>
      <point x="112.94444444444443" y="1616.0" type="line"/>
    </contour>
  </outline>
</glyph>
<glyph name="parenleft" format="2">
  <advance width="675.7777777777778"/>
  <unicode hex="0028"/>
  <outline>
    <contour>
      <point x="460.72222222222223" y="-440.0" type="curve"/>
      <point x="680.5" y="-440.0" type="line"/>
      <point x="434.11111111111114" y="-132.27777777777777"/>
      <point x="332.1111111111112" y="205.16666666666666"/>
      <point x="332.1111111111112" y="588.0" type="curve" smooth="yes"/>
      <point x="332.1111111111112" y="970.8333333333334"/>
      <point x="434.11111111111114" y="1308.2777777777778"/>
      <point x="680.5" y="1616.0" type="curve"/>
      <point x="460.72222222222223" y="1616.0" type="line"/>
      <point x="220.6111111111111" y="1327.611111111111"/>
      <point x="118.94444444444444" y="976.0555555555555"/>
      <point x="118.94444444444444" y="588.0" type="curve" smooth="yes"/>
      <point x="118.94444444444444" y="199.94444444444443"/>
      <point x="220.6111111111111" y="-151.61111111111111"/>
    </contour>
  </outline>
</glyph>
<glyph name="parenright" format="2">
  <advance width="675.7777777777778"/>
  <unicode hex="0029"/>
  <outline>
    <contour>
      <point x="-4.722222222222257" y="-440.0" type="curve"/>
      <point x="215.0555555555556" y="-440.0" type="line"/>
      <point x="455.1666666666667" y="-151.61111111111111"/>
      <point x="556.8333333333334" y="199.94444444444443"/>
      <point x="556.8333333333334" y="588.0" type="curve" smooth="yes"/>
      <point x="556.8333333333334" y="976.0555555555555"/>
      <point x="455.1666666666667" y="1327.611111111111"/>
      <point x="215.0555555555556" y="1616.0" type="curve"/>
      <point x="-4.722222222222257" y="1616.0" type="line"/>
      <point x="241.66666666666663" y="1308.2777777777778"/>
      <point x="343.66666666666663" y="970.8333333333334"/>
      <point x="343.66666666666663" y="588.0" type="curve" smooth="yes"/>
      <point x="343.66666666666663" y="205.16666666666666"/>
      <point x="241.66666666666663" y="-132.27777777777777"/>
    </contour>
  </outline>
</glyph>
<glyph name="asterisk" format="2">
  <advance width="944.2222222222223"/>
  <unicode hex="002A"/>
  <outline>
    <contour>
      <point x="549.4444444444445" y="1169.5" type="line"/>
      <point x="741.6111111111112" y="1205.0555555555554" type="line"/>
      <point x="914.2222222222223" y="1260.7222222222222" type="line"/>
      <point x="868.9444444444445" y="1398.888888888889" type="line"/>
      <point x="697.5555555555555" y="1342.8333333333333" type="line"/>
      <point x="518.0555555555555" y="1256.2777777777778" type="line"/>
      <point x="544.9444444444445" y="1453.6666666666667" type="line"/>
      <point x="544.9444444444445" y="1616.0" type="line"/>
      <point x="399.27777777777777" y="1616.0" type="line"/>
      <point x="399.27777777777777" y="1453.6666666666667" type="line"/>
      <point x="426.1666666666667" y="1256.2777777777778" type="line"/>
      <point x="246.66666666666669" y="1342.8333333333333" type="line"/>
      <point x="75.27777777777779" y="1398.888888888889" type="line"/>
      <point x="30.0" y="1260.7222222222222" type="line"/>
      <point x="202.61111111111111" y="1205.0555555555554" type="line"/>
      <point x="394.77777777777777" y="1169.5" type="line"/>
      <point x="258.88888888888886" y="1026.7222222222222" type="line"/>
      <point x="160.05555555555554" y="891.4444444444445" type="line"/>
      <point x="278.1666666666667" y="805.6111111111111" type="line"/>
      <point x="377.0" y="940.5" type="line"/>
      <point x="472.11111111111114" y="1119.9444444444443" type="line"/>
      <point x="567.2222222222223" y="940.5" type="line"/>
      <point x="666.0555555555555" y="805.6111111111111" type="line"/>
      <point x="784.1666666666667" y="891.4444444444445" type="line"/>
      <point x="685.3333333333334" y="1026.7222222222222" type="line"/>
    </contour>
  </outline>
</glyph>
<glyph name="plus" format="2">
  <advance width="1083.0"/>
  <unicode hex="002B"/>
  <outline>
    <contour>
      <point x="455.77777777777777" y="345.3333333333333" type="line"/>
      <point x="627.2222222222223" y="345.3333333333333" type="line"/>
      <point x="627.2222222222223" y="678.2222222222222" type="line"/>
      <point x="943.6111111111111" y="678.2222222222222" type="line"/>
      <point x="943.6111111111111" y="841.7777777777778" type="line"/>
      <point x="627.2222222222223" y="841.7777777777778" type="line"/>
      <point x="627.2222222222223" y="1174.6666666666667" type="line"/>
      <point x="455.77777777777777" y="1174.6666666666667" type="line"/>
      <point x="455.77777777777777" y="841.7777777777778" type="line"/>
      <point x="139.38888888888889" y="841.7777777777778" type="line"/>
      <point x="139.38888888888889" y="678.2222222222222" type="line"/>
      <point x="455.77777777777777" y="678.2222222222222" type="line"/>
    </contour>
  </outline>
</glyph>
<glyph name="hyphen" format="2">
  <advance width="859.4444444444445"/>
  <unicode hex="002D"/>
  <outline>
    <contour>
      <point x="139.38888888888889" y="477.8333333333333" type="line"/>
      <point x="720.0555555555557" y="477.8333333333333" type="line"/>
      <point x="720.0555555555557" y="649.9444444444445" type="line"/>
      <point x="139.38888888888889" y="649.9444444444445" type="line"/>
    </contour>
  </outline>
</glyph>
<glyph name="period" format="2">
  <advance width="489.2222222222223"/>
  <unicode hex="002E"/>
  <outline>
    <contour>
      <point x="244.61111111111114" y="-13.888888888888891" type="curve" smooth="yes"/>
      <point x="330.00000000000006" y="-13.888888888888891"/>
      <point x="386.7222222222223" y="39.277777777777786"/>
      <point x="386.7222222222223" y="120.83333333333337" type="curve" smooth="yes"/>
      <point x="386.7222222222223" y="202.38888888888894"/>
      <point x="331.5555555555556" y="256.7777777777778"/>
      <point x="244.61111111111114" y="256.7777777777778" type="curve" smooth="yes"/>
      <point x="157.66666666666666" y="256.7777777777778"/>
      <point x="102.49999999999999" y="203.9444444444445"/>
      <point x="102.49999999999999" y="120.83333333333337" type="curve" smooth="yes"/>
      <point x="102.49999999999999" y="37.72222222222223"/>
      <point x="159.22222222222223" y="-13.888888888888891"/>
    </contour>
  </outline>
</glyph>
<glyph name="slash" format="2">
  <advance width="667.1111111111112"/>
  <unicode hex="002F"/>
  <outline>
    <contour>
      <point x="0.0" y="-240.0" type="line"/>
      <point x="204.72222222222229" y="-240.0" type="line"/>
      <point x="667.1111111111112" y="1616.0" type="line"/>
      <point x="462.3888888888889" y="1616.0" type="line"/>
    </contour>
  </outline>
</glyph>
<glyph name="zero" format="2">
  <advance width="1275.388888888889"/>
  <unicode hex="0030"/>
  <note>
600
</note>
  <outline>
    <contour>
      <point x="637.5" y="-18.77777777777778" type="curve" smooth="yes"/>
      <point x="962.5555555555557" y="-18.77777777777778"/>
      <point x="1166.4444444444443" y="195.88888888888889"/>
      <point x="1166.4444444444443" y="740.0" type="curve" smooth="yes"/>
      <point x="1166.4444444444443" y="1284.111111111111"/>
      <point x="965.0" y="1498.7777777777778"/>
      <point x="637.5" y="1498.7777777777778" type="curve" smooth="yes"/>
      <point x="310.0" y="1498.7777777777778"/>
      <point x="108.94444444444444" y="1284.111111111111"/>
      <point x="108.94444444444444" y="740.0" type="curve" smooth="yes"/>
      <point x="108.94444444444444" y="195.88888888888889"/>
      <point x="312.44444444444446" y="-18.77777777777778"/>
    </contour>
    <contour>
      <point x="637.8888888888889" y="158.0555555555556" type="curve" smooth="yes"/>
      <point x="440.6666666666667" y="158.0555555555556"/>
      <point x="317.83333333333337" y="292.33333333333337"/>
      <point x="317.83333333333337" y="742.4444444444445" type="curve" smooth="yes"/>
      <point x="317.83333333333337" y="1187.6666666666665"/>
      <point x="441.44444444444446" y="1321.9444444444443"/>
      <point x="637.8888888888889" y="1321.9444444444443" type="curve" smooth="yes"/>
      <point x="833.9444444444445" y="1321.9444444444443"/>
      <point x="957.5555555555555" y="1187.6666666666665"/>
      <point x="957.5555555555555" y="737.5555555555555" type="curve" smooth="yes"/>
      <point x="957.5555555555555" y="292.33333333333337"/>
      <point x="833.9444444444445" y="158.0555555555556"/>
    </contour>
  </outline>
</glyph>
<glyph name="one" format="2">
  <advance width="760.5"/>
  <unicode hex="0031"/>
  <outline>
    <contour>
      <point x="381.66666666666663" y="0.0" type="line"/>
      <point x="592.0" y="0.0" type="line"/>
      <point x="592.0" y="1484.7777777777778" type="line"/>
      <point x="457.44444444444446" y="1484.7777777777778" type="line"/>
      <point x="25.333333333333336" y="1177.1666666666667" type="line"/>
      <point x="25.333333333333336" y="974.5555555555554" type="line"/>
      <point x="457.44444444444446" y="1280.9444444444443" type="line"/>
      <point x="381.66666666666663" y="1340.5555555555554" type="line"/>
    </contour>
  </outline>
</glyph>
<glyph name="two" format="2">
  <advance width="1012.2222222222223"/>
  <unicode hex="0032"/>
  <outline>
    <contour>
      <point x="56.49999999999999" y="0.0" type="line"/>
      <point x="951.5555555555557" y="0.0" type="line"/>
      <point x="951.5555555555557" y="177.1666666666667" type="line"/>
      <point x="279.33333333333337" y="177.1666666666667" type="line"/>
      <point x="291.0555555555556" y="120.88888888888893" type="line"/>
      <point x="653.6111111111111" y="589.4444444444445" type="line" smooth="yes"/>
      <point x="818.4444444444446" y="800.1111111111111"/>
      <point x="873.7222222222223" y="938.6111111111111"/>
      <point x="874.3333333333334" y="1094.2222222222222" type="curve" smooth="yes"/>
      <point x="875.5555555555557" y="1375.4444444444443"/>
      <point x="700.3333333333334" y="1498.7777777777778"/>
      <point x="381.6111111111111" y="1498.7777777777778" type="curve" smooth="yes"/>
      <point x="260.27777777777777" y="1498.7777777777778"/>
      <point x="125.83333333333333" y="1476.2222222222222"/>
      <point x="38.722222222222214" y="1442.5555555555557" type="curve"/>
      <point x="38.722222222222214" y="1266.0555555555554" type="line"/>
      <point x="134.05555555555554" y="1303.3333333333333"/>
      <point x="245.77777777777777" y="1324.2777777777778"/>
      <point x="362.55555555555554" y="1324.2777777777778" type="curve" smooth="yes"/>
      <point x="568.0555555555555" y="1324.2777777777778"/>
      <point x="665.5" y="1250.2777777777778"/>
      <point x="665.5" y="1075.888888888889" type="curve" smooth="yes"/>
      <point x="665.5" y="958.7777777777778"/>
      <point x="614.7222222222222" y="843.8333333333334"/>
      <point x="475.66666666666663" y="662.2222222222223" type="curve" smooth="yes"/>
      <point x="56.49999999999999" y="114.27777777777781" type="line"/>
    </contour>
  </outline>
</glyph>
<glyph name="three" format="2">
  <advance width="1034.3333333333335"/>
  <unicode hex="0033"/>
  <outline>
    <contour>
      <point x="414.72222222222223" y="-18.77777777777778" type="curve" smooth="yes"/>
      <point x="781.2777777777778" y="-18.77777777777778"/>
      <point x="966.0555555555557" y="138.05555555555554"/>
      <point x="966.0555555555557" y="403.1111111111111" type="curve" smooth="yes"/>
      <point x="966.0555555555557" y="614.3333333333334"/>
      <point x="838.0" y="744.7777777777778"/>
      <point x="604.3333333333334" y="776.5555555555555" type="curve"/>
      <point x="603.7222222222223" y="756.0" type="line"/>
      <point x="798.5" y="796.6666666666666"/>
      <point x="917.4444444444445" y="929.6111111111111"/>
      <point x="917.4444444444445" y="1117.111111111111" type="curve" smooth="yes"/>
      <point x="917.4444444444445" y="1359.5555555555557"/>
      <point x="748.8888888888889" y="1498.7777777777778"/>
      <point x="428.05555555555554" y="1498.7777777777778" type="curve" smooth="yes"/>
      <point x="308.05555555555554" y="1498.7777777777778"/>
      <point x="175.77777777777777" y="1478.2222222222222"/>
      <point x="81.44444444444444" y="1444.388888888889" type="curve"/>
      <point x="81.44444444444444" y="1279.5555555555554" type="line"/>
      <point x="184.33333333333331" y="1316.611111111111"/>
      <point x="298.22222222222223" y="1335.1666666666665"/>
      <point x="408.6111111111111" y="1335.1666666666665" type="curve" smooth="yes"/>
      <point x="613.1666666666666" y="1335.1666666666665"/>
      <point x="714.0555555555555" y="1253.3333333333333"/>
      <point x="714.0555555555555" y="1101.1666666666667" type="curve" smooth="yes"/>
      <point x="714.0555555555555" y="935.2222222222223"/>
      <point x="593.6666666666666" y="841.4444444444445"/>
      <point x="343.94444444444446" y="841.4444444444445" type="curve" smooth="yes"/>
      <point x="226.33333333333331" y="841.4444444444445" type="line"/>
      <point x="226.33333333333331" y="675.8888888888889" type="line"/>
      <point x="414.94444444444446" y="675.8888888888889" type="line" smooth="yes"/>
      <point x="660.4444444444445" y="675.8888888888889"/>
      <point x="765.3888888888889" y="579.4444444444445"/>
      <point x="765.3888888888889" y="414.0" type="curve" smooth="yes"/>
      <point x="765.3888888888889" y="238.3888888888889"/>
      <point x="649.5555555555555" y="144.83333333333337"/>
      <point x="407.94444444444446" y="144.83333333333337" type="curve" smooth="yes"/>
      <point x="293.72222222222223" y="144.83333333333337"/>
      <point x="163.44444444444443" y="164.83333333333337"/>
      <point x="49.22222222222222" y="200.77777777777783" type="curve"/>
      <point x="49.22222222222222" y="35.94444444444444" type="line"/>
      <point x="160.44444444444446" y="0.44444444444444375"/>
      <point x="286.6666666666667" y="-18.77777777777778"/>
    </contour>
  </outline>
</glyph>
<glyph name="four" format="2">
  <advance width="1208.111111111111"/>
  <unicode hex="0034"/>
  <outline>
    <contour>
      <point x="44.666666666666664" y="340.05555555555554" type="line"/>
      <point x="1169.5" y="340.05555555555554" type="line"/>
      <point x="1169.5" y="507.5" type="line"/>
      <point x="226.72222222222229" y="507.5" type="line"/>
      <point x="253.61111111111117" y="454.6666666666667" type="line"/>
      <point x="808.3888888888889" y="1480.0" type="line"/>
      <point x="601.7222222222222" y="1480.0" type="line"/>
      <point x="44.666666666666664" y="455.8888888888889" type="line"/>
    </contour>
    <contour>
      <point x="773.7777777777778" y="0.0" type="line"/>
      <point x="965.4444444444445" y="0.0" type="line"/>
      <point x="965.4444444444445" y="980.0" type="line"/>
      <point x="797.8888888888889" y="980.0" type="line"/>
      <point x="773.7777777777778" y="507.5" type="line"/>
    </contour>
  </outline>
</glyph>
<glyph name="five" format="2">
  <advance width="1045.2777777777778"/>
  <unicode hex="0035"/>
  <outline>
    <contour>
      <point x="441.72222222222223" y="-18.77777777777778" type="curve" smooth="yes"/>
      <point x="802.7777777777778" y="-18.77777777777778"/>
      <point x="991.2777777777778" y="136.22222222222223"/>
      <point x="991.6666666666667" y="425.22222222222223" type="curve" smooth="yes"/>
      <point x="992.0555555555557" y="699.7222222222223"/>
      <point x="816.3888888888889" y="841.1111111111111"/>
      <point x="388.94444444444446" y="865.8888888888889" type="curve" smooth="yes"/>
      <point x="202.3888888888889" y="876.5" type="line"/>
      <point x="331.00000000000006" y="792.7777777777778" type="line"/>
      <point x="372.50000000000006" y="1401.111111111111" type="line"/>
      <point x="278.7777777777778" y="1312.9444444444443" type="line"/>
      <point x="930.8333333333334" y="1312.9444444444443" type="line"/>
      <point x="930.8333333333334" y="1480.0" type="line"/>
      <point x="178.38888888888889" y="1480.0" type="line"/>
      <point x="128.22222222222223" y="714.8333333333333" type="line"/>
      <point x="314.77777777777777" y="704.2222222222222" type="line" smooth="yes"/>
      <point x="677.5555555555555" y="683.0"/>
      <point x="790.6111111111111" y="598.1666666666666"/>
      <point x="790.6111111111111" y="420.72222222222223" type="curve" smooth="yes"/>
      <point x="790.6111111111111" y="239.33333333333337"/>
      <point x="676.6111111111111" y="146.38888888888894"/>
      <point x="435.55555555555554" y="146.38888888888894" type="curve" smooth="yes"/>
      <point x="318.27777777777777" y="146.38888888888894"/>
      <point x="188.0" y="167.3888888888889"/>
      <point x="75.61111111111111" y="203.11111111111114" type="curve"/>
      <point x="75.61111111111111" y="38.27777777777778" type="line"/>
      <point x="185.0" y="2.222222222222222"/>
      <point x="312.44444444444446" y="-18.77777777777778"/>
    </contour>
  </outline>
</glyph>
<glyph name="six" format="2">
  <advance width="1180.111111111111"/>
  <unicode hex="0036"/>
  <outline>
    <contour>
      <point x="653.0" y="-18.77777777777778" type="curve" smooth="yes"/>
      <point x="931.5" y="-18.77777777777778"/>
      <point x="1121.9444444444446" y="138.05555555555557"/>
      <point x="1121.9444444444446" y="426.77777777777777" type="curve" smooth="yes"/>
      <point x="1121.9444444444446" y="724.3888888888889"/>
      <point x="929.5" y="862.2222222222223"/>
      <point x="660.5555555555557" y="862.2222222222223" type="curve" smooth="yes"/>
      <point x="515.3333333333334" y="862.2222222222223"/>
      <point x="368.33333333333337" y="811.2777777777778"/>
      <point x="286.5555555555556" y="726.2777777777778" type="curve"/>
      <point x="286.5555555555556" y="563.9444444444445" type="line"/>
      <point x="370.61111111111114" y="662.8888888888889"/>
      <point x="507.05555555555554" y="703.6666666666666"/>
      <point x="623.5" y="703.6666666666666" type="curve" smooth="yes"/>
      <point x="808.2222222222222" y="703.6666666666666"/>
      <point x="927.8888888888889" y="617.6111111111111"/>
      <point x="927.8888888888889" y="420.27777777777777" type="curve" smooth="yes"/>
      <point x="927.8888888888889" y="225.33333333333337"/>
      <point x="811.6111111111111" y="140.5555555555556"/>
      <point x="654.3888888888889" y="140.5555555555556" type="curve" smooth="yes"/>
      <point x="454.83333333333337" y="140.5555555555556"/>
      <point x="325.2777777777778" y="261.5"/>
      <point x="325.2777777777778" y="664.7777777777777" type="curve" smooth="yes"/>
      <point x="325.2777777777778" y="744.4444444444445" type="line" smooth="yes"/>
      <point x="325.2777777777778" y="1155.7222222222222"/>
      <point x="478.11111111111114" y="1332.0555555555554"/>
      <point x="780.2777777777778" y="1332.0555555555554" type="curve" smooth="yes"/>
      <point x="872.0" y="1332.0555555555554"/>
      <point x="968.9444444444445" y="1318.2777777777778"/>
      <point x="1051.3333333333333" y="1286.6666666666665" type="curve"/>
      <point x="1051.3333333333333" y="1454.611111111111" type="line"/>
      <point x="969.9444444444445" y="1486.7777777777778"/>
      <point x="871.3333333333334" y="1498.7777777777778"/>
      <point x="771.9444444444445" y="1498.7777777777778" type="curve" smooth="yes"/>
      <point x="352.8888888888889" y="1498.7777777777778"/>
      <point x="119.16666666666666" y="1246.3333333333333"/>
      <point x="119.16666666666666" y="692.0" type="curve" smooth="yes"/>
      <point x="119.16666666666666" y="177.22222222222223"/>
      <point x="334.72222222222223" y="-18.77777777777778"/>
    </contour>
  </outline>
</glyph>
<glyph name="seven" format="2">
  <advance width="964.3333333333334"/>
  <unicode hex="0037"/>
  <outline>
    <contour>
      <point x="165.61111111111111" y="0.0" type="line"/>
      <point x="382.8888888888889" y="0.0" type="line"/>
      <point x="906.1111111111111" y="1365.7222222222222" type="line"/>
      <point x="906.1111111111111" y="1480.0" type="line"/>
      <point x="11.61111111111111" y="1480.0" type="line"/>
      <point x="11.61111111111111" y="1302.8333333333333" type="line"/>
      <point x="768.0" y="1302.8333333333333" type="line"/>
      <point x="702.8888888888889" y="1366.9444444444443" type="line"/>
    </contour>
  </outline>
</glyph>
<glyph name="eight" format="2">
  <advance width="1275.388888888889"/>
  <unicode hex="0038"/>
  <outline>
    <contour>
      <point x="645.0" y="-18.77777777777778" type="curve" smooth="yes"/>
      <point x="994.0555555555557" y="-18.77777777777778"/>
      <point x="1180.1666666666667" y="148.33333333333334"/>
      <point x="1180.1666666666667" y="388.3888888888889" type="curve" smooth="yes"/>
      <point x="1180.1666666666667" y="601.7222222222223"/>
      <point x="1059.388888888889" y="728.8888888888889"/>
      <point x="707.2222222222223" y="818.7222222222223" type="curve" smooth="yes"/>
      <point x="417.7222222222223" y="890.8333333333334"/>
      <point x="341.1111111111112" y="967.8888888888889"/>
      <point x="341.1111111111112" y="1113.0555555555557" type="curve" smooth="yes"/>
      <point x="341.1111111111112" y="1253.611111111111"/>
      <point x="440.83333333333337" y="1345.2777777777778"/>
      <point x="642.7777777777778" y="1345.2777777777778" type="curve" smooth="yes"/>
      <point x="838.1111111111111" y="1345.2777777777778"/>
      <point x="948.5555555555555" y="1261.611111111111"/>
      <point x="948.5555555555555" y="1107.5" type="curve" smooth="yes"/>
      <point x="948.5555555555555" y="966.6111111111111"/>
      <point x="876.2777777777777" y="876.0"/>
      <point x="703.3333333333334" y="800.0" type="curve"/>
      <point x="841.3333333333334" y="740.6111111111111" type="line"/>
      <point x="1041.7777777777778" y="819.5"/>
      <point x="1134.0" y="954.5"/>
      <point x="1134.0" y="1125.2222222222222" type="curve" smooth="yes"/>
      <point x="1134.0" y="1356.7777777777778"/>
      <point x="951.8333333333334" y="1498.7777777777778"/>
      <point x="645.3333333333334" y="1498.7777777777778" type="curve" smooth="yes"/>
      <point x="319.0" y="1498.7777777777778"/>
      <point x="139.2222222222222" y="1343.1666666666667"/>
      <point x="139.2222222222222" y="1105.611111111111" type="curve" smooth="yes"/>
      <point x="139.2222222222222" y="890.5555555555555"/>
      <point x="264.5" y="749.0"/>
      <point x="616.5" y="663.4444444444445" type="curve" smooth="yes"/>
      <point x="894.5" y="596.0"/>
      <point x="980.6111111111111" y="524.3333333333334"/>
      <point x="980.6111111111111" y="376.0" type="curve" smooth="yes"/>
      <point x="980.6111111111111" y="222.83333333333337"/>
      <point x="866.2777777777778" y="134.72222222222226"/>
      <point x="646.0" y="134.72222222222226" type="curve" smooth="yes"/>
      <point x="410.83333333333337" y="134.72222222222226"/>
      <point x="293.3888888888889" y="226.3888888888889"/>
      <point x="293.3888888888889" y="391.5" type="curve" smooth="yes"/>
      <point x="293.3888888888889" y="532.8888888888889"/>
      <point x="383.8888888888889" y="652.0555555555555"/>
      <point x="562.2222222222223" y="705.1666666666666" type="curve"/>
      <point x="413.44444444444446" y="764.6111111111111" type="line"/>
      <point x="211.0" y="698.2222222222222"/>
      <point x="93.66666666666666" y="556.4444444444445"/>
      <point x="93.66666666666666" y="370.44444444444446" type="curve" smooth="yes"/>
      <point x="93.66666666666666" y="131.5"/>
      <point x="276.0" y="-18.77777777777778"/>
    </contour>
  </outline>
</glyph>
<glyph name="nine" format="2">
  <advance width="1180.111111111111"/>
  <unicode hex="0039"/>
  <outline>
    <contour>
      <point x="527.1111111111111" y="1498.7777777777778" type="curve" smooth="yes"/>
      <point x="248.61111111111111" y="1498.7777777777778"/>
      <point x="58.166666666666664" y="1341.9444444444443"/>
      <point x="58.166666666666664" y="1053.2222222222222" type="curve" smooth="yes"/>
      <point x="58.166666666666664" y="755.6111111111111"/>
      <point x="250.61111111111111" y="617.7777777777777"/>
      <point x="519.5555555555555" y="617.7777777777777" type="curve" smooth="yes"/>
      <point x="664.7777777777778" y="617.7777777777777"/>
      <point x="811.7777777777778" y="668.7222222222222"/>
      <point x="893.5555555555555" y="753.7222222222222" type="curve"/>
      <point x="893.5555555555555" y="916.0555555555555" type="line"/>
      <point x="809.5" y="817.1111111111111"/>
      <point x="673.0555555555555" y="776.3333333333334"/>
      <point x="556.6111111111111" y="776.3333333333334" type="curve" smooth="yes"/>
      <point x="371.8888888888889" y="776.3333333333334"/>
      <point x="252.22222222222229" y="862.3888888888889"/>
      <point x="252.22222222222229" y="1059.7222222222222" type="curve" smooth="yes"/>
      <point x="252.22222222222229" y="1254.6666666666667"/>
      <point x="368.5" y="1339.4444444444443"/>
      <point x="525.7222222222223" y="1339.4444444444443" type="curve" smooth="yes"/>
      <point x="725.2777777777778" y="1339.4444444444443"/>
      <point x="854.8333333333334" y="1218.5"/>
      <point x="854.8333333333334" y="815.2222222222223" type="curve" smooth="yes"/>
      <point x="854.8333333333334" y="735.5555555555555" type="line" smooth="yes"/>
      <point x="854.8333333333334" y="324.2777777777778"/>
      <point x="702.0" y="147.9444444444445"/>
      <point x="399.83333333333337" y="147.9444444444445" type="curve" smooth="yes"/>
      <point x="308.1111111111111" y="147.9444444444445"/>
      <point x="211.16666666666669" y="161.72222222222229"/>
      <point x="128.77777777777777" y="193.33333333333337" type="curve"/>
      <point x="128.77777777777777" y="25.38888888888889" type="line"/>
      <point x="210.16666666666669" y="-6.777777777777779"/>
      <point x="308.77777777777777" y="-18.77777777777778"/>
      <point x="408.1666666666667" y="-18.77777777777778" type="curve" smooth="yes"/>
      <point x="827.2222222222223" y="-18.77777777777778"/>
      <point x="1060.9444444444446" y="233.66666666666669"/>
      <point x="1060.9444444444446" y="788.0" type="curve" smooth="yes"/>
      <point x="1060.9444444444446" y="1302.7777777777778"/>
      <point x="845.3888888888889" y="1498.7777777777778"/>
    </contour>
  </outline>
</glyph>
<glyph name="colon" format="2">
  <advance width="489.2222222222223"/>
  <unicode hex="003A"/>
  <outline>
    <contour>
      <point x="244.61111111111114" y="-13.888888888888891" type="curve" smooth="yes"/>
      <point x="330.00000000000006" y="-13.888888888888891"/>
      <point x="386.7222222222223" y="39.277777777777786"/>
      <point x="386.7222222222223" y="120.83333333333337" type="curve" smooth="yes"/>
      <point x="386.7222222222223" y="202.38888888888894"/>
      <point x="331.5555555555556" y="256.7777777777778"/>
      <point x="244.61111111111114" y="256.7777777777778" type="curve" smooth="yes"/>
      <point x="157.66666666666666" y="256.7777777777778"/>
      <point x="102.49999999999999" y="203.9444444444445"/>
      <point x="102.49999999999999" y="120.83333333333337" type="curve" smooth="yes"/>
      <point x="102.49999999999999" y="37.72222222222223"/>
      <point x="159.22222222222223" y="-13.888888888888891"/>
    </contour>
    <contour>
      <point x="244.61111111111114" y="831.0" type="curve" smooth="yes"/>
      <point x="330.00000000000006" y="831.0"/>
      <point x="386.7222222222223" y="884.1666666666666"/>
      <point x="386.7222222222223" y="965.7222222222222" type="curve" smooth="yes"/>
      <point x="386.7222222222223" y="1047.2777777777778"/>
      <point x="331.5555555555556" y="1101.6666666666667"/>
      <point x="244.61111111111114" y="1101.6666666666667" type="curve" smooth="yes"/>
      <point x="157.66666666666666" y="1101.6666666666667"/>
      <point x="102.49999999999999" y="1048.8333333333333"/>
      <point x="102.49999999999999" y="965.7222222222222" type="curve" smooth="yes"/>
      <point x="102.49999999999999" y="882.6111111111111"/>
      <point x="159.22222222222223" y="831.0"/>
    </contour>
  </outline>
</glyph>
<glyph name="semicolon" format="2">
  <advance width="489.2222222222223"/>
  <unicode hex="003B"/>
  <outline>
    <contour>
      <point x="148.72222222222223" y="-323.33333333333337" type="curve"/>
      <point x="268.94444444444446" y="-323.33333333333337" type="line"/>
      <point x="338.0555555555556" y="-210.66666666666666"/>
      <point x="385.94444444444446" y="-65.55555555555554"/>
      <point x="385.94444444444446" y="79.83333333333334" type="curve" smooth="yes"/>
      <point x="385.94444444444446" y="199.72222222222229"/>
      <point x="333.50000000000006" y="256.7777777777778"/>
      <point x="241.05555555555557" y="256.7777777777778" type="curve" smooth="yes"/>
      <point x="156.44444444444443" y="256.7777777777778"/>
      <point x="102.49999999999999" y="205.11111111111117"/>
      <point x="102.49999999999999" y="122.05555555555559" type="curve" smooth="yes"/>
      <point x="102.49999999999999" y="38.94444444444446"/>
      <point x="160.0" y="-13.888888888888891"/>
      <point x="244.61111111111114" y="-13.888888888888891" type="curve" smooth="yes"/>
      <point x="272.1666666666667" y="-13.888888888888891" type="line"/>
      <point x="232.0" y="27.555555555555564" type="line"/>
      <point x="232.0" y="-86.88888888888889"/>
      <point x="201.05555555555554" y="-193.77777777777777"/>
    </contour>
    <contour>
      <point x="244.61111111111114" y="831.0" type="curve" smooth="yes"/>
      <point x="330.00000000000006" y="831.0"/>
      <point x="386.7222222222223" y="884.1666666666666"/>
      <point x="386.7222222222223" y="965.7222222222222" type="curve" smooth="yes"/>
      <point x="386.7222222222223" y="1047.2777777777778"/>
      <point x="331.5555555555556" y="1101.6666666666667"/>
      <point x="244.61111111111114" y="1101.6666666666667" type="curve" smooth="yes"/>
      <point x="157.66666666666666" y="1101.6666666666667"/>
      <point x="102.49999999999999" y="1048.8333333333333"/>
      <point x="102.49999999999999" y="965.7222222222222" type="curve" smooth="yes"/>
      <point x="102.49999999999999" y="882.6111111111111"/>
      <point x="159.22222222222223" y="831.0"/>
    </contour>
  </outline>
</glyph>
<glyph name="less" format="2">
  <advance width="1083.0"/>
  <unicode hex="003C"/>
  <outline>
    <contour>
      <point x="943.6111111111111" y="336.0" type="line"/>
      <point x="943.6111111111111" y="504.44444444444446" type="line"/>
      <point x="266.77777777777777" y="776.2777777777778" type="line"/>
      <point x="266.77777777777777" y="745.6666666666666" type="line"/>
      <point x="943.6111111111111" y="1015.5555555555555" type="line"/>
      <point x="943.6111111111111" y="1184.0" type="line"/>
      <point x="139.38888888888889" y="855.2222222222223" type="line"/>
      <point x="139.38888888888889" y="664.7777777777777" type="line"/>
    </contour>
  </outline>
</glyph>
<glyph name="equal" format="2">
  <advance width="1083.0"/>
  <unicode hex="003D"/>
  <outline>
    <contour>
      <point x="139.38888888888889" y="882.7777777777777" type="line"/>
      <point x="943.6111111111111" y="882.7777777777777" type="line"/>
      <point x="943.6111111111111" y="1046.3333333333335" type="line"/>
      <point x="139.38888888888889" y="1046.3333333333335" type="line"/>
    </contour>
    <contour>
      <point x="139.38888888888889" y="473.66666666666663" type="line"/>
      <point x="943.6111111111111" y="473.66666666666663" type="line"/>
      <point x="943.6111111111111" y="637.2222222222223" type="line"/>
      <point x="139.38888888888889" y="637.2222222222223" type="line"/>
    </contour>
  </outline>
</glyph>
<glyph name="greater" format="2">
  <advance width="1083.0"/>
  <unicode hex="003E"/>
  <outline>
    <contour>
      <point x="139.38888888888889" y="336.0" type="line"/>
      <point x="943.6111111111111" y="664.7777777777777" type="line"/>
      <point x="943.6111111111111" y="855.2222222222223" type="line"/>
      <point x="139.38888888888889" y="1184.0" type="line"/>
      <point x="139.38888888888889" y="1015.5555555555555" type="line"/>
      <point x="816.2222222222222" y="745.6666666666666" type="line"/>
      <point x="816.2222222222222" y="776.2777777777778" type="line"/>
      <point x="139.38888888888889" y="504.44444444444446" type="line"/>
    </contour>
  </outline>
</glyph>
<glyph name="question" format="2">
  <advance width="929.6111111111111"/>
  <unicode hex="003F"/>
  <outline>
    <contour>
      <point x="352.22222222222223" y="390.2222222222223" type="line"/>
      <point x="481.5" y="390.2222222222223" type="line"/>
      <point x="498.8888888888889" y="681.1111111111111" type="line"/>
      <point x="759.6666666666667" y="774.3333333333334"/>
      <point x="873.0" y="902.8333333333334"/>
      <point x="873.0" y="1115.1666666666667" type="curve" smooth="yes"/>
      <point x="873.0" y="1359.5555555555557"/>
      <point x="704.4444444444445" y="1498.7777777777778"/>
      <point x="383.6111111111111" y="1498.7777777777778" type="curve" smooth="yes"/>
      <point x="263.6111111111111" y="1498.7777777777778"/>
      <point x="131.33333333333334" y="1478.2222222222222"/>
      <point x="37.0" y="1444.388888888889" type="curve"/>
      <point x="37.0" y="1275.6666666666665" type="line"/>
      <point x="139.88888888888889" y="1312.7222222222222"/>
      <point x="253.0" y="1331.2777777777778"/>
      <point x="362.77777777777777" y="1331.2777777777778" type="curve" smooth="yes"/>
      <point x="568.7222222222222" y="1331.2777777777778"/>
      <point x="669.6111111111111" y="1250.611111111111"/>
      <point x="669.6111111111111" y="1100.388888888889" type="curve" smooth="yes"/>
      <point x="669.6111111111111" y="953.3333333333334"/>
      <point x="587.1111111111111" y="860.9444444444445"/>
      <point x="316.5" y="785.6111111111111" type="curve"/>
    </contour>
    <contour>
      <point x="417.05555555555554" y="-13.888888888888891" type="curve" smooth="yes"/>
      <point x="503.6666666666667" y="-13.888888888888891"/>
      <point x="559.1666666666667" y="38.94444444444446"/>
      <point x="559.1666666666667" y="115.7777777777778" type="curve" smooth="yes"/>
      <point x="559.1666666666667" y="193.83333333333337"/>
      <point x="504.0" y="246.6666666666667"/>
      <point x="417.05555555555554" y="246.6666666666667" type="curve" smooth="yes"/>
      <point x="330.1111111111111" y="246.6666666666667"/>
      <point x="274.9444444444444" y="195.3888888888889"/>
      <point x="274.9444444444444" y="115.7777777777778" type="curve" smooth="yes"/>
      <point x="274.9444444444444" y="37.3888888888889"/>
      <point x="331.66666666666663" y="-13.888888888888891"/>
    </contour>
  </outline>
</glyph>
<glyph name="at" format="2">
  <advance width="1967.8333333333335"/>
  <unicode hex="0040"/>
  <outline>
    <contour>
      <point x="1030.8333333333335" y="-460.0" type="curve" smooth="yes"/>
      <point x="1175.611111111111" y="-460.0"/>
      <point x="1317.2222222222222" y="-439.55555555555554"/>
      <point x="1444.0" y="-404.77777777777777" type="curve"/>
      <point x="1444.0" y="-259.7777777777777" type="line"/>
      <point x="1303.6111111111113" y="-297.6111111111111"/>
      <point x="1172.5555555555557" y="-316.2222222222222"/>
      <point x="1030.8333333333335" y="-316.2222222222222" type="curve" smooth="yes"/>
      <point x="513.7222222222223" y="-316.2222222222222"/>
      <point x="264.2777777777778" y="-84.49999999999997"/>
      <point x="264.2777777777778" y="522.4444444444445" type="curve" smooth="yes"/>
      <point x="264.2777777777778" y="1120.8333333333333"/>
      <point x="512.5" y="1354.2222222222222"/>
      <point x="990.7777777777778" y="1354.2222222222222" type="curve" smooth="yes"/>
      <point x="1468.8333333333335" y="1354.2222222222222"/>
      <point x="1713.7777777777778" y="1126.388888888889"/>
      <point x="1715.3333333333335" y="564.1111111111111" type="curve" smooth="yes"/>
      <point x="1716.5" y="227.2777777777778"/>
      <point x="1627.0555555555557" y="125.00000000000003"/>
      <point x="1523.8333333333335" y="125.00000000000003" type="curve" smooth="yes"/>
      <point x="1447.5555555555557" y="125.00000000000003"/>
      <point x="1408.8333333333335" y="167.0555555555556"/>
      <point x="1408.8333333333335" y="271.8888888888889" type="curve" smooth="yes"/>
      <point x="1408.8333333333335" y="693.0" type="line" smooth="yes"/>
      <point x="1408.8333333333335" y="995.6666666666666"/>
      <point x="1263.1666666666667" y="1096.7777777777778"/>
      <point x="972.3333333333334" y="1096.7777777777778" type="curve" smooth="yes"/>
      <point x="868.6666666666667" y="1096.7777777777778"/>
      <point x="745.5555555555555" y="1078.611111111111"/>
      <point x="650.5" y="1045.0555555555557" type="curve"/>
      <point x="649.7222222222223" y="881.7777777777777" type="line"/>
      <point x="749.0555555555555" y="917.2222222222222"/>
      <point x="857.9444444444445" y="933.1666666666666"/>
      <point x="941.2222222222223" y="933.1666666666666" type="curve" smooth="yes"/>
      <point x="1120.4444444444443" y="933.1666666666666"/>
      <point x="1206.2777777777778" y="880.6111111111111"/>
      <point x="1206.2777777777778" y="700.3888888888889" type="curve" smooth="yes"/>
      <point x="1206.2777777777778" y="249.55555555555557" type="line"/>
      <point x="1139.7777777777778" y="168.00000000000003"/>
      <point x="1044.611111111111" y="135.5555555555556"/>
      <point x="962.6111111111111" y="135.5555555555556" type="curve" smooth="yes"/>
      <point x="842.2222222222223" y="135.5555555555556"/>
      <point x="774.0555555555557" y="191.94444444444446"/>
      <point x="774.0555555555557" y="304.5" type="curve" smooth="yes"/>
      <point x="774.0555555555557" y="413.1111111111111"/>
      <point x="840.3333333333334" y="469.6111111111111"/>
      <point x="989.3333333333334" y="485.6111111111111" type="curve" smooth="yes"/>
      <point x="1270.9444444444443" y="514.9444444444445" type="line"/>
      <point x="1252.2777777777778" y="639.2777777777778" type="line"/>
      <point x="972.8333333333334" y="609.9444444444445" type="line" smooth="yes"/>
      <point x="690.0555555555555" y="584.0555555555555"/>
      <point x="567.0555555555555" y="477.33333333333337"/>
      <point x="567.0555555555555" y="283.33333333333337" type="curve" smooth="yes"/>
      <point x="567.0555555555555" y="95.88888888888889"/>
      <point x="694.1111111111111" y="-18.333333333333336"/>
      <point x="903.6111111111111" y="-18.333333333333336" type="curve" smooth="yes"/>
      <point x="1030.7777777777778" y="-18.333333333333336"/>
      <point x="1148.888888888889" y="28.666666666666664"/>
      <point x="1211.111111111111" y="128.33333333333334" type="curve"/>
      <point x="1224.7777777777778" y="128.33333333333334" type="line"/>
      <point x="1265.1666666666667" y="35.166666666666664"/>
      <point x="1350.7222222222222" y="-18.333333333333336"/>
      <point x="1482.888888888889" y="-18.333333333333336" type="curve" smooth="yes"/>
      <point x="1703.888888888889" y="-18.333333333333336"/>
      <point x="1868.2777777777778" y="144.88888888888889"/>
      <point x="1868.888888888889" y="570.8888888888889" type="curve" smooth="yes"/>
      <point x="1869.5" y="1198.2777777777778"/>
      <point x="1555.0555555555557" y="1498.0"/>
      <point x="990.7777777777778" y="1498.0" type="curve" smooth="yes"/>
      <point x="426.8888888888889" y="1498.0"/>
      <point x="98.94444444444444" y="1198.2777777777778"/>
      <point x="98.94444444444444" y="520.0" type="curve" smooth="yes"/>
      <point x="98.94444444444444" y="-161.94444444444443"/>
      <point x="428.72222222222223" y="-459.3888888888889"/>
    </contour>
  </outline>
</glyph>
<glyph name="B" format="2">
  <advance width="1280.5555555555557"/>
  <unicode hex="0042"/>
  <anchor x="655.5" y="0.0" name="bottom"/>
  <anchor x="655.5" y="1480.0" name="top"/>
  <outline>
    <contour>
      <point x="539.0" y="-13.888888888888891" type="curve" smooth="yes"/>
      <point x="1029.0555555555557" y="-13.888888888888891"/>
      <point x="1213.6666666666667" y="134.44444444444446"/>
      <point x="1213.6666666666667" y="406.27777777777777" type="curve" smooth="yes"/>
      <point x="1213.6666666666667" y="611.3888888888889"/>
      <point x="1099.0555555555557" y="742.4444444444445"/>
      <point x="880.3888888888889" y="769.8333333333334" type="curve"/>
      <point x="878.5555555555557" y="756.0" type="line"/>
      <point x="1080.8333333333335" y="789.3888888888889"/>
      <point x="1171.8333333333335" y="927.2222222222222"/>
      <point x="1171.8333333333335" y="1096.7777777777778" type="curve" smooth="yes"/>
      <point x="1171.8333333333335" y="1365.111111111111"/>
      <point x="996.3333333333334" y="1496.3333333333333"/>
      <point x="585.0" y="1496.3333333333333" type="curve" smooth="yes"/>
      <point x="429.3888888888889" y="1496.3333333333333"/>
      <point x="284.72222222222223" y="1479.2777777777778"/>
      <point x="158.5" y="1452.611111111111" type="curve"/>
      <point x="158.5" y="11.166666666666668" type="line"/>
      <point x="284.8333333333333" y="-5.388888888888889"/>
      <point x="419.11111111111114" y="-13.888888888888891"/>
    </contour>
    <contour>
      <point x="587.6666666666667" y="147.00000000000003" type="curve" smooth="yes"/>
      <point x="507.66666666666674" y="147.00000000000003"/>
      <point x="439.2222222222223" y="149.83333333333337"/>
      <point x="364.5555555555556" y="159.11111111111114" type="curve"/>
      <point x="364.5555555555556" y="1315.5555555555554" type="line"/>
      <point x="434.7222222222223" y="1328.2222222222222"/>
      <point x="508.50000000000006" y="1335.4444444444443"/>
      <point x="607.7222222222223" y="1335.4444444444443" type="curve" smooth="yes"/>
      <point x="872.1111111111111" y="1335.4444444444443"/>
      <point x="972.1666666666666" y="1263.111111111111"/>
      <point x="972.1666666666666" y="1087.4444444444443" type="curve" smooth="yes"/>
      <point x="972.1666666666666" y="922.3333333333334"/>
      <point x="878.3888888888889" y="840.6666666666667"/>
      <point x="631.5" y="840.6666666666667" type="curve" smooth="yes"/>
      <point x="338.44444444444446" y="840.6666666666667" type="line"/>
      <point x="338.44444444444446" y="676.2777777777777" type="line"/>
      <point x="660.8333333333334" y="676.2777777777777" type="line" smooth="yes"/>
      <point x="908.0" y="676.2777777777777"/>
      <point x="1016.1111111111111" y="593.0"/>
      <point x="1016.1111111111111" y="413.6666666666667" type="curve" smooth="yes"/>
      <point x="1016.1111111111111" y="233.8888888888889"/>
      <point x="911.5" y="147.00000000000003"/>
    </contour>
  </outline>
</glyph>
<glyph name="C" format="2">
  <advance width="1176.4444444444446"/>
  <unicode hex="0043"/>
  <anchor x="725.9444444444445" y="0.0" name="bottom"/>
  <anchor x="716.7777777777778" y="1520.0" name="top"/>
  <outline>
    <contour>
      <point x="799.0" y="-18.77777777777778" type="curve" smooth="yes"/>
      <point x="921.1111111111111" y="-18.77777777777778"/>
      <point x="1036.3333333333333" y="0.6666666666666656"/>
      <point x="1133.8333333333333" y="33.77777777777777" type="curve"/>
      <point x="1133.8333333333333" y="212.22222222222229" type="line"/>
      <point x="1020.8888888888889" y="176.00000000000006"/>
      <point x="922.7222222222223" y="159.61111111111114"/>
      <point x="816.1111111111111" y="159.61111111111114" type="curve" smooth="yes"/>
      <point x="500.2222222222223" y="159.61111111111114"/>
      <point x="319.50000000000006" y="303.8888888888889"/>
      <point x="319.50000000000006" y="741.2222222222222" type="curve" smooth="yes"/>
      <point x="319.50000000000006" y="1163.7777777777778"/>
      <point x="495.66666666666674" y="1320.388888888889"/>
      <point x="826.7222222222223" y="1320.388888888889" type="curve" smooth="yes"/>
      <point x="932.8333333333334" y="1320.388888888889"/>
      <point x="1032.7777777777778" y="1307.5555555555554"/>
      <point x="1133.8333333333333" y="1279.5555555555554" type="curve"/>
      <point x="1133.8333333333333" y="1458.0" type="line"/>
      <point x="1031.7777777777778" y="1485.111111111111"/>
      <point x="927.8333333333334" y="1498.7777777777778"/>
      <point x="815.0" y="1498.7777777777778" type="curve" smooth="yes"/>
      <point x="363.44444444444446" y="1498.7777777777778"/>
      <point x="98.94444444444444" y="1264.6666666666667"/>
      <point x="98.94444444444444" y="737.2222222222222" type="curve" smooth="yes"/>
      <point x="98.94444444444444" y="189.44444444444446"/>
      <point x="366.05555555555554" y="-18.77777777777778"/>
    </contour>
  </outline>
</glyph>
<glyph name="F" format="2">
  <advance width="1151.0"/>
  <unicode hex="0046"/>
  <outline>
    <contour>
      <point x="158.5" y="0.0" type="line"/>
      <point x="368.83333333333337" y="0.0" type="line"/>
      <point x="368.83333333333337" y="1303.9444444444443" type="line"/>
      <point x="1104.5" y="1303.9444444444443" type="line"/>
      <point x="1104.5" y="1480.0" type="line"/>
      <point x="158.5" y="1480.0" type="line"/>
    </contour>
    <contour>
      <point x="299.7777777777778" y="651.7777777777777" type="line"/>
      <point x="1005.6111111111111" y="651.7777777777777" type="line"/>
      <point x="1005.6111111111111" y="827.8333333333334" type="line"/>
      <point x="299.7777777777778" y="827.8333333333334" type="line"/>
    </contour>
  </outline>
</glyph>
<glyph name="H" format="2">
  <advance width="1468.7777777777778"/>
  <unicode hex="0048"/>
  <anchor x="734.7777777777778" y="0.0" name="bottom"/>
  <anchor x="734.7777777777778" y="1167.611111111111" name="center"/>
  <anchor x="734.7777777777778" y="1520.0" name="top"/>
  <anchor x="39.05555555555556" y="1480.0" name="topleft"/>
  <outline>
    <contour>
      <point x="158.5" y="0.0" type="line"/>
      <point x="368.83333333333337" y="0.0" type="line"/>
      <point x="368.83333333333337" y="664.6111111111111" type="line"/>
      <point x="1099.9444444444443" y="664.6111111111111" type="line"/>
      <point x="1099.9444444444443" y="0.0" type="line"/>
      <point x="1310.2777777777778" y="0.0" type="line"/>
      <point x="1310.2777777777778" y="1480.0" type="line"/>
      <point x="1099.9444444444443" y="1480.0" type="line"/>
      <point x="1099.9444444444443" y="852.7222222222223" type="line"/>
      <point x="368.83333333333337" y="852.7222222222223" type="line"/>
      <point x="368.83333333333337" y="1480.0" type="line"/>
      <point x="158.5" y="1480.0" type="line"/>
    </contour>
  </outline>
</glyph>
<glyph name="I" format="2">
  <advance width="527.3333333333334"/>
  <unicode hex="0049"/>
  <anchor x="263.2777777777778" y="0.0" name="bottom"/>
  <anchor x="368.83333333333337" y="0.0" name="ogonek"/>
  <anchor x="263.6666666666667" y="1520.0" name="top"/>
  <outline>
    <contour>
      <point x="158.5" y="0.0" type="line"/>
      <point x="368.83333333333337" y="0.0" type="line"/>
      <point x="368.83333333333337" y="1480.0" type="line"/>
      <point x="158.5" y="1480.0" type="line"/>
    </contour>
  </outline>
</glyph>
<glyph name="J" format="2">
  <advance width="527.3333333333334"/>
  <unicode hex="004A"/>
  <anchor x="400.61111111111114" y="0.0" name="bottom"/>
  <anchor x="264.05555555555554" y="1520.0" name="top"/>
  <outline>
    <contour>
      <point x="123.83333333333337" y="-345.44444444444446" type="line"/>
      <point x="299.5555555555556" y="-139.66666666666666"/>
      <point x="362.1111111111112" y="40.66666666666667"/>
      <point x="368.83333333333337" y="279.05555555555554" type="curve"/>
      <point x="368.83333333333337" y="1480.0" type="line"/>
      <point x="159.27777777777777" y="1480.0" type="line"/>
      <point x="159.27777777777777" y="293.0" type="line" smooth="yes"/>
      <point x="159.27777777777777" y="66.22222222222223"/>
      <point x="110.99999999999999" y="-85.44444444444443"/>
      <point x="-12.666666666666671" y="-253.27777777777777" type="curve"/>
    </contour>
  </outline>
</glyph>
<glyph name="K" format="2">
  <advance width="1264.2777777777778"/>
  <unicode hex="004B"/>
  <anchor x="660.7222222222223" y="0.0" name="bottom"/>
  <anchor x="657.2222222222222" y="1480.0" name="top"/>
  <outline>
    <contour>
      <point x="1060.5555555555554" y="0.0" type="line"/>
      <point x="1294.111111111111" y="0.0" type="line"/>
      <point x="709.5555555555557" y="789.5555555555555" type="line"/>
      <point x="706.4444444444446" y="732.1111111111111" type="line"/>
      <point x="1251.7222222222222" y="1480.0" type="line"/>
      <point x="1025.2222222222222" y="1480.0" type="line"/>
      <point x="497.72222222222223" y="755.6666666666666" type="line"/>
    </contour>
    <contour>
      <point x="158.5" y="0.0" type="line"/>
      <point x="368.83333333333337" y="0.0" type="line"/>
      <point x="368.83333333333337" y="1480.0" type="line"/>
      <point x="158.5" y="1480.0" type="line"/>
    </contour>
    <contour>
      <point x="336.50000000000006" y="664.6111111111111" type="line"/>
      <point x="588.3888888888889" y="664.6111111111111" type="line"/>
      <point x="588.3888888888889" y="852.1111111111111" type="line"/>
      <point x="336.50000000000006" y="852.1111111111111" type="line"/>
    </contour>
  </outline>
</glyph>
<glyph name="P" format="2">
  <advance width="1257.5"/>
  <unicode hex="0050"/>
  <outline>
    <contour>
      <point x="158.5" y="0.0" type="line"/>
      <point x="368.83333333333337" y="0.0" type="line"/>
      <point x="368.83333333333337" y="476.1111111111111" type="line"/>
      <point x="431.11111111111114" y="471.2222222222222"/>
      <point x="484.2777777777778" y="468.6111111111111"/>
      <point x="548.1111111111111" y="468.6111111111111" type="curve" smooth="yes"/>
      <point x="972.0555555555557" y="468.6111111111111"/>
      <point x="1172.888888888889" y="647.4444444444445"/>
      <point x="1172.888888888889" y="982.8888888888889" type="curve" smooth="yes"/>
      <point x="1172.888888888889" y="1337.9444444444443"/>
      <point x="963.5555555555557" y="1496.3333333333333"/>
      <point x="558.3888888888889" y="1496.3333333333333" type="curve" smooth="yes"/>
      <point x="413.05555555555554" y="1496.3333333333333"/>
      <point x="285.8888888888889" y="1481.2222222222222"/>
      <point x="158.5" y="1456.7222222222222" type="curve"/>
    </contour>
    <contour>
      <point x="551.5" y="633.3888888888889" type="curve" smooth="yes"/>
      <point x="483.66666666666674" y="633.3888888888889"/>
      <point x="428.2222222222223" y="636.6111111111111"/>
      <point x="368.83333333333337" y="644.6666666666667" type="curve"/>
      <point x="368.83333333333337" y="1315.0" type="line"/>
      <point x="432.00000000000006" y="1325.888888888889"/>
      <point x="496.0555555555556" y="1331.5555555555554"/>
      <point x="574.7222222222223" y="1331.5555555555554" type="curve" smooth="yes"/>
      <point x="838.8333333333334" y="1331.5555555555554"/>
      <point x="965.9444444444445" y="1226.111111111111"/>
      <point x="965.9444444444445" y="980.2777777777777" type="curve" smooth="yes"/>
      <point x="965.9444444444445" y="742.2777777777778"/>
      <point x="841.2777777777778" y="633.3888888888889"/>
    </contour>
  </outline>
</glyph>
<glyph name="Q" format="2">
  <advance width="1475.3333333333335"/>
  <unicode hex="0051"/>
  <outline>
    <contour>
      <point x="1319.5555555555557" y="-255.44444444444449" type="curve"/>
      <point x="1353.6666666666667" y="-85.22222222222221" type="line"/>
      <point x="1129.9444444444446" y="-62.777777777777764"/>
      <point x="891.0555555555557" y="-20.111111111111093"/>
      <point x="690.6666666666667" y="62.2777777777778" type="curve"/>
      <point x="637.3333333333334" y="7.166666666666671" type="line"/>
      <point x="1125.3333333333335" y="-53.72222222222222"/>
      <point x="1376.388888888889" y="218.44444444444446"/>
      <point x="1376.388888888889" y="740.0" type="curve" smooth="yes"/>
      <point x="1376.388888888889" y="1271.5555555555557"/>
      <point x="1121.111111111111" y="1498.7777777777778"/>
      <point x="737.6666666666667" y="1498.7777777777778" type="curve" smooth="yes"/>
      <point x="354.22222222222223" y="1498.7777777777778"/>
      <point x="98.94444444444444" y="1268.6666666666667"/>
      <point x="98.94444444444444" y="736.1111111111111" type="curve" smooth="yes"/>
      <point x="98.94444444444444" y="156.94444444444446"/>
      <point x="374.05555555555554" y="-132.11111111111114"/>
    </contour>
    <contour>
      <point x="737.6666666666667" y="156.72222222222229" type="curve" smooth="yes"/>
      <point x="479.44444444444446" y="156.72222222222229"/>
      <point x="315.6111111111112" y="309.94444444444446"/>
      <point x="315.6111111111112" y="745.5555555555555" type="curve" smooth="yes"/>
      <point x="315.6111111111112" y="1169.2777777777778"/>
      <point x="481.3888888888889" y="1323.2777777777778"/>
      <point x="737.6666666666667" y="1323.2777777777778" type="curve" smooth="yes"/>
      <point x="993.9444444444445" y="1323.2777777777778"/>
      <point x="1159.7222222222222" y="1168.111111111111"/>
      <point x="1159.7222222222222" y="734.4444444444445" type="curve" smooth="yes"/>
      <point x="1159.7222222222222" y="311.8888888888889"/>
      <point x="995.1111111111111" y="156.72222222222229"/>
    </contour>
  </outline>
</glyph>
<glyph name="V" format="2">
  <advance width="1348.6666666666667"/>
  <unicode hex="0056"/>
  <outline>
    <contour>
      <point x="520.3888888888889" y="0.0" type="line"/>
      <point x="828.2777777777778" y="0.0" type="line"/>
      <point x="1340.611111111111" y="1480.0" type="line"/>
      <point x="1133.5" y="1480.0" type="line"/>
      <point x="656.6666666666667" y="91.72222222222226" type="line"/>
      <point x="703.0" y="91.72222222222226" type="line"/>
      <point x="229.6666666666667" y="1480.0" type="line"/>
      <point x="8.055555555555552" y="1480.0" type="line"/>
    </contour>
  </outline>
</glyph>
<glyph name="X" format="2">
  <advance width="1307.1666666666667"/>
  <unicode hex="0058"/>
  <outline>
    <contour>
      <point x="1069.6666666666667" y="0.0" type="line"/>
      <point x="1306.9444444444446" y="0.0" type="line"/>
      <point x="776.4444444444445" y="760.4444444444445" type="line"/>
      <point x="653.7777777777778" y="916.8333333333334" type="line"/>
      <point x="259.8888888888889" y="1480.0" type="line"/>
      <point x="22.055555555555546" y="1480.0" type="line"/>
      <point x="528.5555555555555" y="757.8888888888889" type="line"/>
      <point x="651.2222222222223" y="602.0555555555555" type="line"/>
    </contour>
    <contour>
      <point x="-1.944444444444457" y="0.0" type="line"/>
      <point x="232.1666666666667" y="0.0" type="line"/>
      <point x="651.2222222222223" y="602.0555555555555" type="line"/>
      <point x="776.4444444444445" y="760.4444444444445" type="line"/>
      <point x="1279.4444444444446" y="1480.0" type="line"/>
      <point x="1047.888888888889" y="1480.0" type="line"/>
      <point x="653.7777777777778" y="916.8333333333334" type="line"/>
      <point x="528.5555555555555" y="757.8888888888889" type="line"/>
    </contour>
  </outline>
</glyph>
<glyph name="Z" format="2">
  <advance width="1178.4444444444446"/>
  <unicode hex="005A"/>
  <anchor x="588.5555555555555" y="0.0" name="bottom"/>
  <anchor x="590.1111111111111" y="1520.0" name="top"/>
  <outline>
    <contour>
      <point x="61.05555555555556" y="0.0" type="line"/>
      <point x="1117.388888888889" y="0.0" type="line"/>
      <point x="1117.388888888889" y="177.9444444444445" type="line"/>
      <point x="297.33333333333337" y="177.9444444444445" type="line"/>
      <point x="305.88888888888897" y="132.72222222222229" type="line"/>
      <point x="1106.1666666666667" y="1363.388888888889" type="line"/>
      <point x="1106.1666666666667" y="1480.0" type="line"/>
      <point x="72.27777777777777" y="1480.0" type="line"/>
      <point x="72.27777777777777" y="1302.0555555555554" type="line"/>
      <point x="869.8888888888888" y="1302.0555555555554" type="line"/>
      <point x="861.3333333333333" y="1347.2777777777778" type="line"/>
      <point x="61.05555555555556" y="116.61111111111114" type="line"/>
    </contour>
  </outline>
</glyph>
<glyph name="bracketleft" format="2">
  <advance width="675.7777777777778"/>
  <unicode hex="005B"/>
  <outline>
    <contour>
      <point x="178.5" y="-440.0" type="line"/>
      <point x="706.4444444444445" y="-440.0" type="line"/>
      <point x="706.4444444444445" y="-272.55555555555554" type="line"/>
      <point x="385.33333333333337" y="-272.55555555555554" type="line"/>
      <point x="385.33333333333337" y="1448.5555555555554" type="line"/>
      <point x="710.3333333333334" y="1448.5555555555554" type="line"/>
      <point x="710.3333333333334" y="1616.0" type="line"/>
      <point x="178.5" y="1616.0" type="line"/>
    </contour>
  </outline>
</glyph>
<glyph name="backslash" format="2">
  <advance width="669.5555555555557"/>
  <unicode hex="005C"/>
  <outline>
    <contour>
      <point x="463.6111111111111" y="-240.0" type="line"/>
      <point x="669.5555555555557" y="-240.0" type="line"/>
      <point x="205.9444444444445" y="1616.0" type="line"/>
      <point x="0.0" y="1616.0" type="line"/>
    </contour>
  </outline>
</glyph>
<glyph name="bracketright" format="2">
  <advance width="675.7777777777778"/>
  <unicode hex="005D"/>
  <outline>
    <contour>
      <point x="-30.666666666666664" y="-440.0" type="line"/>
      <point x="497.2777777777778" y="-440.0" type="line"/>
      <point x="497.2777777777778" y="1616.0" type="line"/>
      <point x="-34.55555555555556" y="1616.0" type="line"/>
      <point x="-34.55555555555556" y="1448.5555555555554" type="line"/>
      <point x="290.4444444444444" y="1448.5555555555554" type="line"/>
      <point x="290.4444444444444" y="-272.55555555555554" type="line"/>
      <point x="-30.666666666666664" y="-272.55555555555554" type="line"/>
    </contour>
  </outline>
</glyph>
<glyph name="asciicircum" format="2">
  <advance width="1185.5555555555557"/>
  <unicode hex="005E"/>
  <outline>
    <contour>
      <point x="86.77777777777777" y="740.0" type="line"/>
      <point x="293.7222222222223" y="740.0" type="line"/>
      <point x="630.6111111111111" y="1374.1666666666667" type="line"/>
      <point x="554.9444444444445" y="1374.1666666666667" type="line"/>
      <point x="891.8333333333334" y="740.0" type="line"/>
      <point x="1098.7777777777778" y="740.0" type="line"/>
      <point x="696.7222222222223" y="1480.0" type="line"/>
      <point x="487.6111111111111" y="1480.0" type="line"/>
    </contour>
  </outline>
</glyph>
<glyph name="underscore" format="2">
  <advance width="1148.2222222222222"/>
  <unicode hex="005F"/>
  <outline>
    <contour>
      <point x="91.11111111111111" y="-167.83333333333337" type="line"/>
      <point x="1057.111111111111" y="-167.83333333333337" type="line"/>
      <point x="1057.111111111111" y="-0.38888888888888906" type="line"/>
      <point x="91.11111111111111" y="-0.38888888888888906" type="line"/>
    </contour>
  </outline>
</glyph>
<glyph name="grave" format="2">
  <advance width="1077.7777777777778"/>
  <unicode hex="0060"/>
  <anchor x="538.8888888888889" y="1200.0" name="_top"/>
  <anchor x="538.8888888888889" y="1594.888888888889" name="top"/>
  <outline>
    <contour>
      <point x="443.8888888888889" y="1246.888888888889" type="line"/>
      <point x="633.8888888888889" y="1246.888888888889" type="line"/>
      <point x="416.16666666666674" y="1616.0" type="line"/>
      <point x="194.27777777777777" y="1616.0" type="line"/>
    </contour>
  </outline>
</glyph>
<glyph name="b" format="2">
  <advance width="1158.888888888889"/>
  <unicode hex="0062"/>
  <anchor x="583.1111111111111" y="0.0" name="bottom"/>
  <anchor x="245.22222222222223" y="1616.0" name="top"/>
  <outline>
    <contour>
      <point x="501.83333333333337" y="-19.166666666666668" type="curve" smooth="yes"/>
      <point x="878.8333333333334" y="-19.555555555555557"/>
      <point x="1072.2777777777778" y="174.27777777777777"/>
      <point x="1072.2777777777778" y="565.0555555555555" type="curve" smooth="yes"/>
      <point x="1072.2777777777778" y="955.0"/>
      <point x="882.0555555555557" y="1104.5555555555557"/>
      <point x="654.7222222222223" y="1104.5555555555557" type="curve" smooth="yes"/>
      <point x="525.7222222222223" y="1104.5555555555557"/>
      <point x="424.5555555555556" y="1053.388888888889"/>
      <point x="359.50000000000006" y="977.4444444444445" type="curve"/>
      <point x="348.44444444444446" y="977.4444444444445" type="line"/>
      <point x="348.44444444444446" y="1616.0" type="line"/>
      <point x="141.6111111111111" y="1616.0" type="line"/>
      <point x="141.6111111111111" y="33.333333333333336" type="line"/>
      <point x="250.16666666666666" y="-1.833333333333333"/>
      <point x="380.72222222222223" y="-19.166666666666668"/>
    </contour>
    <contour>
      <point x="518.6666666666667" y="144.0555555555556" type="curve" smooth="yes"/>
      <point x="454.7222222222223" y="144.0555555555556"/>
      <point x="392.7777777777778" y="153.5555555555556"/>
      <point x="348.44444444444446" y="166.27777777777783" type="curve"/>
      <point x="348.44444444444446" y="822.3333333333333" type="line"/>
      <point x="407.2777777777778" y="896.1666666666666"/>
      <point x="497.11111111111114" y="930.4444444444443"/>
      <point x="585.7777777777778" y="930.4444444444443" type="curve" smooth="yes"/>
      <point x="746.2777777777778" y="930.4444444444443"/>
      <point x="862.6111111111111" y="846.0555555555555"/>
      <point x="862.6111111111111" y="547.3333333333334" type="curve" smooth="yes"/>
      <point x="862.6111111111111" y="259.7777777777778"/>
      <point x="744.2777777777778" y="144.0555555555556"/>
    </contour>
  </outline>
</glyph>
<glyph name="f" format="2">
  <advance width="742.0555555555557"/>
  <unicode hex="0066"/>
  <outline>
    <contour>
      <point x="217.11111111111111" y="0.0" type="line"/>
      <point x="422.7777777777778" y="0.0" type="line"/>
      <point x="422.7777777777778" y="1235.7222222222222" type="line" smooth="yes"/>
      <point x="422.7777777777778" y="1399.9444444444443"/>
      <point x="499.7222222222223" y="1466.5555555555554"/>
      <point x="665.0555555555557" y="1466.5555555555554" type="curve" smooth="yes"/>
      <point x="707.4444444444445" y="1466.5555555555554"/>
      <point x="747.4444444444445" y="1462.7222222222222"/>
      <point x="790.7777777777778" y="1455.6666666666665" type="curve"/>
      <point x="790.7777777777778" y="1624.0" type="line"/>
      <point x="741.8888888888889" y="1632.0"/>
      <point x="690.6666666666667" y="1636.0"/>
      <point x="639.8888888888889" y="1636.0" type="curve" smooth="yes"/>
      <point x="362.77777777777777" y="1636.0"/>
      <point x="217.11111111111111" y="1490.9444444444443"/>
      <point x="217.11111111111111" y="1226.111111111111" type="curve" smooth="yes"/>
    </contour>
    <contour>
      <point x="20.444444444444446" y="920.3333333333333" type="line"/>
      <point x="747.8888888888889" y="920.3333333333333" type="line"/>
      <point x="747.8888888888889" y="1087.7777777777778" type="line"/>
      <point x="20.444444444444446" y="1087.7777777777778" type="line"/>
    </contour>
  </outline>
</glyph>
<glyph name="j" format="2">
  <advance width="490.44444444444446"/>
  <unicode hex="006A"/>
  <anchor x="243.2777777777778" y="1203.6666666666667" name="_top"/>
  <anchor x="243.2777777777778" y="1203.6666666666667" name="top"/>
  <outline>
    <contour>
      <point x="105.38888888888891" y="-466.22222222222223" type="line"/>
      <point x="279.94444444444446" y="-260.44444444444446"/>
      <point x="348.83333333333337" y="-74.77777777777777"/>
      <point x="348.83333333333337" y="181.94444444444446" type="curve" smooth="yes"/>
      <point x="348.83333333333337" y="1087.7777777777778" type="line"/>
      <point x="141.6111111111111" y="1087.7777777777778" type="line"/>
      <point x="141.6111111111111" y="171.44444444444446" type="line" smooth="yes"/>
      <point x="141.6111111111111" y="-55.33333333333333"/>
      <point x="93.33333333333333" y="-207.0"/>
      <point x="-30.333333333333336" y="-374.8333333333333" type="curve"/>
    </contour>
    <contour>
      <point x="243.2777777777778" y="1304.5555555555554" type="curve" smooth="yes"/>
      <point x="333.7222222222223" y="1304.5555555555554"/>
      <point x="379.94444444444446" y="1348.7777777777778"/>
      <point x="379.94444444444446" y="1424.111111111111" type="curve" smooth="yes"/>
      <point x="379.94444444444446" y="1499.4444444444443"/>
      <point x="333.7222222222223" y="1544.888888888889"/>
      <point x="243.2777777777778" y="1544.888888888889" type="curve" smooth="yes"/>
      <point x="152.83333333333331" y="1544.888888888889"/>
      <point x="106.6111111111111" y="1499.4444444444443"/>
      <point x="106.6111111111111" y="1424.111111111111" type="curve" smooth="yes"/>
      <point x="106.6111111111111" y="1348.7777777777778"/>
      <point x="152.83333333333331" y="1304.5555555555554"/>
    </contour>
  </outline>
</glyph>
<glyph name="k" format="2">
  <advance width="1079.888888888889"/>
  <unicode hex="006B"/>
  <anchor x="576.5555555555555" y="0.0" name="bottom"/>
  <anchor x="245.22222222222223" y="1616.0" name="top"/>
  <outline>
    <contour>
      <point x="874.9444444444445" y="0.0" type="line"/>
      <point x="1105.0" y="0.0" type="line"/>
      <point x="666.8333333333334" y="589.0555555555555" type="line"/>
      <point x="666.8333333333334" y="532.8333333333334" type="line"/>
      <point x="1071.0555555555557" y="1087.7777777777778" type="line"/>
      <point x="845.5" y="1087.7777777777778" type="line"/>
      <point x="453.72222222222223" y="557.4444444444445" type="line"/>
    </contour>
    <contour>
      <point x="326.2222222222223" y="472.55555555555554" type="line"/>
      <point x="535.2222222222223" y="472.55555555555554" type="line"/>
      <point x="535.2222222222223" y="642.3333333333334" type="line"/>
      <point x="326.2222222222223" y="642.3333333333334" type="line"/>
    </contour>
    <contour>
      <point x="141.6111111111111" y="0.0" type="line"/>
      <point x="348.44444444444446" y="0.0" type="line"/>
      <point x="348.44444444444446" y="1616.0" type="line"/>
      <point x="141.6111111111111" y="1616.0" type="line"/>
    </contour>
  </outline>
</glyph>
<glyph name="p" format="2">
  <advance width="1158.888888888889"/>
  <unicode hex="0070"/>
  <outline>
    <contour>
      <point x="141.6111111111111" y="-440.0" type="line"/>
      <point x="348.44444444444446" y="-440.0" type="line"/>
      <point x="348.44444444444446" y="-7.222222222222225" type="line"/>
      <point x="396.0" y="-13.500000000000002"/>
      <point x="454.2777777777778" y="-19.166666666666668"/>
      <point x="510.5" y="-19.166666666666668" type="curve" smooth="yes"/>
      <point x="878.2777777777778" y="-19.166666666666668"/>
      <point x="1072.2777777777778" y="175.83333333333334"/>
      <point x="1072.2777777777778" y="564.2777777777778" type="curve" smooth="yes"/>
      <point x="1072.2777777777778" y="958.8888888888889"/>
      <point x="875.2222222222223" y="1104.5555555555557"/>
      <point x="638.6111111111111" y="1104.5555555555557" type="curve" smooth="yes"/>
      <point x="509.0" y="1104.5555555555557"/>
      <point x="406.0555555555556" y="1049.5"/>
      <point x="342.00000000000006" y="969.1111111111111" type="curve"/>
      <point x="330.7222222222223" y="969.1111111111111" type="line"/>
      <point x="316.7222222222223" y="1087.7777777777778" type="line"/>
      <point x="141.6111111111111" y="1087.7777777777778" type="line"/>
    </contour>
    <contour>
      <point x="511.94444444444446" y="144.44444444444449" type="curve" smooth="yes"/>
      <point x="455.8888888888889" y="144.44444444444449"/>
      <point x="392.7777777777778" y="151.50000000000006"/>
      <point x="348.44444444444446" y="161.61111111111114" type="curve"/>
      <point x="348.44444444444446" y="814.3333333333333" type="line"/>
      <point x="406.8888888888889" y="895.3888888888889"/>
      <point x="497.6666666666667" y="930.8333333333333"/>
      <point x="585.4444444444445" y="930.8333333333333" type="curve" smooth="yes"/>
      <point x="745.8888888888889" y="930.8333333333333"/>
      <point x="862.6111111111111" y="846.4444444444445"/>
      <point x="862.6111111111111" y="546.9444444444445" type="curve" smooth="yes"/>
      <point x="862.6111111111111" y="260.1666666666667"/>
      <point x="744.2777777777778" y="144.44444444444449"/>
    </contour>
  </outline>
</glyph>
<glyph name="q" format="2">
  <advance width="1158.888888888889"/>
  <unicode hex="0071"/>
  <outline>
    <contour>
      <point x="810.4444444444445" y="-440.0" type="line"/>
      <point x="1017.2777777777778" y="-440.0" type="line"/>
      <point x="1017.2777777777778" y="1052.0555555555557" type="line"/>
      <point x="913.4444444444445" y="1085.4444444444443"/>
      <point x="778.1666666666667" y="1104.5555555555557"/>
      <point x="657.0555555555555" y="1104.5555555555557" type="curve" smooth="yes"/>
      <point x="280.05555555555554" y="1104.5555555555557"/>
      <point x="86.6111111111111" y="911.1111111111111"/>
      <point x="86.6111111111111" y="520.3333333333334" type="curve" smooth="yes"/>
      <point x="86.6111111111111" y="130.38888888888889"/>
      <point x="276.8333333333333" y="-19.166666666666668"/>
      <point x="504.16666666666663" y="-19.166666666666668" type="curve" smooth="yes"/>
      <point x="633.1666666666666" y="-19.166666666666668"/>
      <point x="734.3333333333333" y="31.999999999999996"/>
      <point x="799.3888888888889" y="107.94444444444444" type="curve"/>
      <point x="810.4444444444445" y="107.94444444444444" type="line"/>
    </contour>
    <contour>
      <point x="573.1111111111111" y="154.94444444444449" type="curve" smooth="yes"/>
      <point x="412.61111111111114" y="154.94444444444449"/>
      <point x="296.2777777777778" y="239.33333333333337"/>
      <point x="296.2777777777778" y="538.0555555555555" type="curve" smooth="yes"/>
      <point x="296.2777777777778" y="825.6111111111111"/>
      <point x="416.94444444444446" y="941.3333333333333"/>
      <point x="639.8333333333334" y="941.3333333333333" type="curve" smooth="yes"/>
      <point x="704.1666666666666" y="941.3333333333333"/>
      <point x="766.1111111111111" y="932.4444444444443"/>
      <point x="810.4444444444445" y="921.3333333333333" type="curve"/>
      <point x="810.4444444444445" y="263.0555555555556" type="line"/>
      <point x="751.6111111111111" y="189.22222222222226"/>
      <point x="660.5555555555555" y="154.94444444444449"/>
    </contour>
  </outline>
</glyph>
<glyph name="v" format="2">
  <advance width="1089.5"/>
  <unicode hex="0076"/>
  <anchor x="545.6666666666667" y="0.0" name="bottom"/>
  <anchor x="545.6666666666667" y="1200.0" name="top"/>
  <outline>
    <contour>
      <point x="413.27777777777777" y="0.0" type="line"/>
      <point x="675.8333333333334" y="0.0" type="line"/>
      <point x="1078.888888888889" y="1087.7777777777778" type="line"/>
      <point x="872.5" y="1087.7777777777778" type="line"/>
      <point x="540.1666666666667" y="155.77777777777783" type="line"/>
      <point x="561.2777777777778" y="155.77777777777783" type="line"/>
      <point x="228.9444444444445" y="1087.7777777777778" type="line"/>
      <point x="10.611111111111105" y="1087.7777777777778" type="line"/>
    </contour>
  </outline>
</glyph>
<glyph name="w" format="2">
  <advance width="1727.4444444444446"/>
  <unicode hex="0077"/>
  <anchor x="864.7222222222223" y="0.0" name="bottom"/>
  <anchor x="865.3333333333334" y="1200.0" name="top"/>
  <outline>
    <contour>
      <point x="366.0" y="0.0" type="line"/>
      <point x="603.1111111111111" y="0.0" type="line"/>
      <point x="874.6666666666667" y="918.1111111111111" type="line"/>
      <point x="856.8888888888889" y="918.1111111111111" type="line"/>
      <point x="1125.7222222222222" y="0.0" type="line"/>
      <point x="1362.8333333333335" y="0.0" type="line"/>
      <point x="1672.2222222222222" y="1087.7777777777778" type="line"/>
      <point x="1480.2777777777778" y="1087.7777777777778" type="line"/>
      <point x="1228.3333333333335" y="189.7222222222223" type="line"/>
      <point x="1247.4444444444443" y="189.7222222222223" type="line"/>
      <point x="986.7777777777778" y="1087.7777777777778" type="line"/>
      <point x="749.6666666666666" y="1087.7777777777778" type="line"/>
      <point x="487.6666666666667" y="189.72222222222229" type="line"/>
      <point x="503.2777777777778" y="189.72222222222229" type="line"/>
      <point x="255.00000000000006" y="1087.7777777777778" type="line"/>
      <point x="55.222222222222214" y="1087.7777777777778" type="line"/>
    </contour>
  </outline>
</glyph>
<glyph name="x" format="2">
  <advance width="1043.2777777777778"/>
  <unicode hex="0078"/>
  <anchor x="522.5555555555557" y="0.0" name="bottom"/>
  <anchor x="522.9444444444445" y="1200.0" name="top"/>
  <outline>
    <contour>
      <point x="804.1111111111111" y="0.0" type="line"/>
      <point x="1036.7222222222222" y="0.0" type="line"/>
      <point x="643.6666666666667" y="551.0555555555555" type="line"/>
      <point x="524.5" y="697.8333333333334" type="line"/>
      <point x="248.38888888888894" y="1087.7777777777778" type="line"/>
      <point x="15.777777777777768" y="1087.7777777777778" type="line"/>
      <point x="399.05555555555554" y="547.8888888888889" type="line"/>
      <point x="520.1666666666667" y="402.49999999999994" type="line"/>
    </contour>
    <contour>
      <point x="8.777777777777768" y="0.0" type="line"/>
      <point x="235.72222222222229" y="0.0" type="line"/>
      <point x="520.1666666666667" y="402.49999999999994" type="line"/>
      <point x="643.6666666666667" y="551.0555555555555" type="line"/>
      <point x="1025.7777777777778" y="1087.7777777777778" type="line"/>
      <point x="800.0555555555555" y="1087.7777777777778" type="line"/>
      <point x="524.5" y="697.8333333333334" type="line"/>
      <point x="399.05555555555554" y="547.8888888888889" type="line"/>
    </contour>
  </outline>
</glyph>
<glyph name="y" format="2">
  <advance width="1089.5"/>
  <unicode hex="0079"/>
  <anchor x="861.8333333333335" y="0.0" name="bottom"/>
  <anchor x="545.6666666666667" y="1200.0" name="top"/>
  <outline>
    <contour>
      <point x="307.55555555555554" y="-440.0" type="line"/>
      <point x="512.5555555555557" y="-440.0" type="line"/>
      <point x="1078.888888888889" y="1087.7777777777778" type="line"/>
      <point x="872.5" y="1087.7777777777778" type="line"/>
      <point x="540.1666666666667" y="155.77777777777783" type="line"/>
      <point x="471.83333333333337" y="0.0" type="line"/>
    </contour>
    <contour>
      <point x="413.27777777777777" y="0.0" type="line"/>
      <point x="608.5" y="0.0" type="line"/>
      <point x="228.9444444444445" y="1087.7777777777778" type="line"/>
      <point x="10.611111111111105" y="1087.7777777777778" type="line"/>
    </contour>
  </outline>
</glyph>
<glyph name="z" format="2">
  <advance width="946.6666666666667"/>
  <unicode hex="007A"/>
  <anchor x="478.94444444444446" y="0.0" name="bottom"/>
  <anchor x="478.94444444444446" y="1200.0" name="top"/>
  <outline>
    <contour>
      <point x="63.333333333333336" y="0.0" type="line"/>
      <point x="893.5555555555555" y="0.0" type="line"/>
      <point x="893.5555555555555" y="167.44444444444449" type="line"/>
      <point x="290.4444444444445" y="167.44444444444449" type="line"/>
      <point x="290.4444444444445" y="124.16666666666671" type="line"/>
      <point x="882.3333333333334" y="958.3333333333333" type="line"/>
      <point x="882.3333333333334" y="1087.7777777777778" type="line"/>
      <point x="74.55555555555556" y="1087.7777777777778" type="line"/>
      <point x="74.55555555555556" y="920.3333333333333" type="line"/>
      <point x="655.2222222222222" y="920.3333333333333" type="line"/>
      <point x="655.2222222222222" y="963.6111111111111" type="line"/>
      <point x="63.333333333333336" y="129.44444444444449" type="line"/>
    </contour>
  </outline>
</glyph>
<glyph name="braceleft" format="2">
  <advance width="715.7777777777778"/>
  <unicode hex="007B"/>
  <outline>
    <contour>
      <point x="600.3888888888889" y="-460.0" type="curve" smooth="yes"/>
      <point x="657.2222222222223" y="-460.0"/>
      <point x="709.8333333333334" y="-455.22222222222223"/>
      <point x="750.3333333333334" y="-448.44444444444446" type="curve"/>
      <point x="750.3333333333334" y="-288.99999999999994" type="line"/>
      <point x="628.2777777777778" y="-288.99999999999994" type="line" smooth="yes"/>
      <point x="492.8888888888889" y="-288.99999999999994"/>
      <point x="425.33333333333337" y="-233.05555555555554"/>
      <point x="425.33333333333337" y="-97.83333333333333" type="curve" smooth="yes"/>
      <point x="425.33333333333337" y="377.66666666666663" type="line" smooth="yes"/>
      <point x="425.33333333333337" y="537.0"/>
      <point x="355.2222222222223" y="623.0"/>
      <point x="184.11111111111111" y="638.8888888888889" type="curve"/>
      <point x="184.11111111111111" y="612.8888888888889" type="line"/>
      <point x="355.2222222222223" y="628.7777777777778"/>
      <point x="425.33333333333337" y="714.7777777777778"/>
      <point x="425.33333333333337" y="874.1111111111111" type="curve" smooth="yes"/>
      <point x="425.33333333333337" y="1273.8333333333333" type="line" smooth="yes"/>
      <point x="425.33333333333337" y="1409.0555555555554"/>
      <point x="492.8888888888889" y="1465.0"/>
      <point x="628.2777777777778" y="1465.0" type="curve" smooth="yes"/>
      <point x="750.3333333333334" y="1465.0" type="line"/>
      <point x="750.3333333333334" y="1624.4444444444443" type="line"/>
      <point x="709.8333333333334" y="1631.2222222222222"/>
      <point x="657.2222222222223" y="1636.0"/>
      <point x="600.3888888888889" y="1636.0" type="curve" smooth="yes"/>
      <point x="347.6666666666667" y="1636.0"/>
      <point x="218.5" y="1513.8333333333333"/>
      <point x="218.5" y="1275.7777777777778" type="curve" smooth="yes"/>
      <point x="218.5" y="865.6666666666666" type="line" smooth="yes"/>
      <point x="218.5" y="759.7222222222223"/>
      <point x="163.5" y="709.6111111111111"/>
      <point x="63.666666666666664" y="709.6111111111111" type="curve" smooth="yes"/>
      <point x="28.055555555555546" y="709.6111111111111" type="line"/>
      <point x="28.055555555555546" y="542.1666666666666" type="line"/>
      <point x="63.666666666666664" y="542.1666666666666" type="line" smooth="yes"/>
      <point x="163.5" y="542.1666666666666"/>
      <point x="218.5" y="492.05555555555554"/>
      <point x="218.5" y="386.1111111111111" type="curve" smooth="yes"/>
      <point x="218.5" y="-99.77777777777776" type="line" smooth="yes"/>
      <point x="218.5" y="-337.8333333333333"/>
      <point x="347.6666666666667" y="-460.0"/>
    </contour>
  </outline>
</glyph>
<glyph name="bar" format="2">
  <advance width="506.33333333333337"/>
  <unicode hex="007C"/>
  <outline>
    <contour>
      <point x="158.5" y="-440.0" type="line"/>
      <point x="347.83333333333337" y="-440.0" type="line"/>
      <point x="347.83333333333337" y="1616.0" type="line"/>
      <point x="158.5" y="1616.0" type="line"/>
    </contour>
  </outline>
</glyph>
<glyph name="braceright" format="2">
  <advance width="715.7777777777778"/>
  <unicode hex="007D"/>
  <outline>
    <contour>
      <point x="115.38888888888891" y="-460.0" type="curve" smooth="yes"/>
      <point x="368.11111111111114" y="-460.0"/>
      <point x="497.2777777777778" y="-337.8333333333333"/>
      <point x="497.2777777777778" y="-99.77777777777776" type="curve" smooth="yes"/>
      <point x="497.2777777777778" y="386.1111111111111" type="line" smooth="yes"/>
      <point x="497.2777777777778" y="492.05555555555554"/>
      <point x="552.2777777777778" y="542.1666666666666"/>
      <point x="652.1111111111111" y="542.1666666666666" type="curve" smooth="yes"/>
      <point x="687.7222222222223" y="542.1666666666666" type="line"/>
      <point x="687.7222222222223" y="709.6111111111111" type="line"/>
      <point x="652.1111111111111" y="709.6111111111111" type="line" smooth="yes"/>
      <point x="552.2777777777778" y="709.6111111111111"/>
      <point x="497.2777777777778" y="759.7222222222223"/>
      <point x="497.2777777777778" y="865.6666666666666" type="curve" smooth="yes"/>
      <point x="497.2777777777778" y="1275.7777777777778" type="line" smooth="yes"/>
      <point x="497.2777777777778" y="1513.8333333333333"/>
      <point x="368.11111111111114" y="1636.0"/>
      <point x="115.38888888888891" y="1636.0" type="curve" smooth="yes"/>
      <point x="58.555555555555564" y="1636.0"/>
      <point x="5.944444444444452" y="1631.2222222222222"/>
      <point x="-34.55555555555556" y="1624.4444444444443" type="curve"/>
      <point x="-34.55555555555556" y="1465.0" type="line"/>
      <point x="87.5" y="1465.0" type="line" smooth="yes"/>
      <point x="222.88888888888886" y="1465.0"/>
      <point x="290.4444444444444" y="1409.0555555555554"/>
      <point x="290.4444444444444" y="1273.8333333333333" type="curve" smooth="yes"/>
      <point x="290.4444444444444" y="874.1111111111111" type="line" smooth="yes"/>
      <point x="290.4444444444444" y="714.7777777777778"/>
      <point x="361.72222222222223" y="628.7777777777778"/>
      <point x="531.6666666666666" y="612.8888888888889" type="curve"/>
      <point x="531.6666666666666" y="638.8888888888889" type="line"/>
      <point x="361.72222222222223" y="623.0"/>
      <point x="290.4444444444444" y="537.0"/>
      <point x="290.4444444444444" y="377.66666666666663" type="curve" smooth="yes"/>
      <point x="290.4444444444444" y="-97.83333333333333" type="line" smooth="yes"/>
      <point x="290.4444444444444" y="-233.05555555555554"/>
      <point x="222.88888888888886" y="-288.99999999999994"/>
      <point x="87.5" y="-288.99999999999994" type="curve" smooth="yes"/>
      <point x="-34.55555555555556" y="-288.99999999999994" type="line"/>
      <point x="-34.55555555555556" y="-448.44444444444446" type="line"/>
      <point x="5.944444444444452" y="-455.22222222222223"/>
      <point x="58.555555555555564" y="-460.0"/>
    </contour>
  </outline>
</glyph>
<glyph name="asciitilde" format="2">
  <advance width="1083.0"/>
  <unicode hex="007E"/>
  <outline>
    <contour>
      <point x="726.7222222222223" y="617.3333333333333" type="curve" smooth="yes"/>
      <point x="817.5555555555555" y="617.3333333333333"/>
      <point x="889.8888888888889" y="648.5555555555555"/>
      <point x="943.6111111111111" y="712.0" type="curve"/>
      <point x="943.6111111111111" y="887.3333333333334" type="line"/>
      <point x="878.7222222222223" y="813.0"/>
      <point x="811.2222222222223" y="778.5555555555555"/>
      <point x="727.0555555555555" y="778.5555555555555" type="curve" smooth="yes"/>
      <point x="612.1666666666666" y="778.5555555555555"/>
      <point x="500.72222222222223" y="895.3333333333334"/>
      <point x="356.27777777777777" y="895.3333333333334" type="curve" smooth="yes"/>
      <point x="265.44444444444446" y="895.3333333333334"/>
      <point x="193.11111111111111" y="864.1111111111111"/>
      <point x="139.38888888888889" y="800.6666666666667" type="curve"/>
      <point x="139.38888888888889" y="625.3333333333333" type="line"/>
      <point x="204.27777777777777" y="699.6666666666666"/>
      <point x="271.77777777777777" y="734.1111111111111"/>
      <point x="355.94444444444446" y="734.1111111111111" type="curve" smooth="yes"/>
      <point x="470.8333333333333" y="734.1111111111111"/>
      <point x="582.2777777777778" y="617.3333333333333"/>
    </contour>
  </outline>
</glyph>
<glyph name="exclamdown" format="2">
  <advance width="529.2222222222223"/>
  <unicode hex="00A1"/>
  <outline>
    <contour>
      <point x="200.94444444444446" y="677.6666666666666" type="line"/>
      <point x="154.7222222222222" y="151.5" type="line"/>
      <point x="154.7222222222222" y="-380.0" type="line"/>
      <point x="374.50000000000006" y="-380.0" type="line"/>
      <point x="374.50000000000006" y="151.5" type="line"/>
      <point x="330.2222222222223" y="677.6666666666666" type="line"/>
    </contour>
    <contour>
      <point x="264.61111111111114" y="1101.6666666666667" type="curve" smooth="yes"/>
      <point x="179.22222222222223" y="1101.6666666666667"/>
      <point x="122.49999999999999" y="1050.0555555555557"/>
      <point x="122.49999999999999" y="966.9444444444445" type="curve" smooth="yes"/>
      <point x="122.49999999999999" y="883.8333333333333"/>
      <point x="177.66666666666666" y="831.0"/>
      <point x="264.61111111111114" y="831.0" type="curve" smooth="yes"/>
      <point x="351.5555555555556" y="831.0"/>
      <point x="406.7222222222223" y="885.3888888888888"/>
      <point x="406.7222222222223" y="966.9444444444445" type="curve" smooth="yes"/>
      <point x="406.7222222222223" y="1048.5"/>
      <point x="350.00000000000006" y="1101.6666666666667"/>
    </contour>
  </outline>
</glyph>
<glyph name="cent" format="2">
  <advance width="906.0555555555557"/>
  <unicode hex="00A2"/>
  <outline>
    <contour>
      <point x="592.8333333333334" y="-19.555555555555557" type="curve" smooth="yes"/>
      <point x="684.7777777777778" y="-19.555555555555557"/>
      <point x="776.7777777777778" y="-4.555555555555556"/>
      <point x="860.2777777777778" y="24.333333333333332" type="curve"/>
      <point x="860.2777777777778" y="194.22222222222226" type="line"/>
      <point x="765.3888888888889" y="164.6666666666667"/>
      <point x="692.7777777777778" y="152.22222222222229"/>
      <point x="623.5555555555557" y="152.22222222222229" type="curve" smooth="yes"/>
      <point x="411.61111111111114" y="152.22222222222229"/>
      <point x="300.5555555555556" y="257.50000000000006"/>
      <point x="300.5555555555556" y="546.3333333333334" type="curve" smooth="yes"/>
      <point x="300.5555555555556" y="828.0"/>
      <point x="412.7222222222223" y="932.7777777777777"/>
      <point x="654.1111111111112" y="932.7777777777777" type="curve" smooth="yes"/>
      <point x="721.7222222222223" y="932.7777777777777"/>
      <point x="788.2222222222223" y="924.3333333333333"/>
      <point x="860.2777777777778" y="907.6111111111111" type="curve"/>
      <point x="860.2777777777778" y="1077.5" type="line"/>
      <point x="787.1666666666667" y="1095.9444444444443"/>
      <point x="711.7222222222223" y="1104.5555555555557"/>
      <point x="631.8333333333334" y="1104.5555555555557" type="curve" smooth="yes"/>
      <point x="281.3888888888889" y="1104.5555555555557"/>
      <point x="86.6111111111111" y="934.5"/>
      <point x="86.6111111111111" y="542.7222222222222" type="curve" smooth="yes"/>
      <point x="86.6111111111111" y="153.05555555555557"/>
      <point x="267.27777777777777" y="-19.555555555555557"/>
    </contour>
    <contour>
      <point x="486.16666666666663" y="-240.0" type="line"/>
      <point x="665.2777777777778" y="-240.0" type="line"/>
      <point x="665.2777777777778" y="23.333333333333343" type="line"/>
      <point x="486.16666666666663" y="23.333333333333343" type="line"/>
    </contour>
    <contour>
      <point x="486.16666666666663" y="1064.4444444444443" type="line"/>
      <point x="665.2777777777778" y="1064.4444444444443" type="line"/>
      <point x="665.2777777777778" y="1327.7777777777778" type="line"/>
      <point x="486.16666666666663" y="1327.7777777777778" type="line"/>
    </contour>
  </outline>
</glyph>
<glyph name="sterling" format="2">
  <advance width="1289.2777777777778"/>
  <unicode hex="00A3"/>
  <outline>
    <contour>
      <point x="289.1111111111111" y="67.7777777777778" type="line"/>
      <point x="494.00000000000006" y="67.7777777777778" type="line"/>
      <point x="494.00000000000006" y="1038.0" type="line" smooth="yes"/>
      <point x="494.00000000000006" y="1244.2777777777778"/>
      <point x="607.1111111111111" y="1324.2777777777778"/>
      <point x="862.8333333333334" y="1324.2777777777778" type="curve" smooth="yes"/>
      <point x="966.8333333333334" y="1324.2777777777778"/>
      <point x="1079.5" y="1309.5"/>
      <point x="1178.6666666666667" y="1280.0" type="curve"/>
      <point x="1178.6666666666667" y="1456.5" type="line"/>
      <point x="1086.111111111111" y="1483.388888888889"/>
      <point x="967.6666666666667" y="1498.7777777777778"/>
      <point x="852.6111111111111" y="1498.7777777777778" type="curve" smooth="yes"/>
      <point x="479.3333333333333" y="1498.7777777777778"/>
      <point x="289.1111111111111" y="1342.9444444444443"/>
      <point x="289.1111111111111" y="1031.0" type="curve" smooth="yes"/>
    </contour>
    <contour>
      <point x="76.11111111111111" y="0.0" type="line"/>
      <point x="1220.1666666666667" y="0.0" type="line"/>
      <point x="1220.1666666666667" y="172.11111111111114" type="line"/>
      <point x="76.11111111111111" y="172.11111111111114" type="line"/>
    </contour>
    <contour>
      <point x="76.11111111111111" y="670.1666666666666" type="line"/>
      <point x="997.0" y="670.1666666666666" type="line"/>
      <point x="997.0" y="829.8333333333334" type="line"/>
      <point x="76.11111111111111" y="829.8333333333334" type="line"/>
    </contour>
  </outline>
</glyph>
<glyph name="currency" format="2">
  <advance width="1185.5555555555557"/>
  <unicode hex="00A4"/>
  <outline>
    <contour>
      <point x="368.7777777777778" y="885.5555555555555" type="line"/>
      <point x="447.2222222222223" y="962.7777777777778" type="line"/>
      <point x="312.8888888888889" y="1126.6666666666667" type="line"/>
      <point x="208.33333333333337" y="1234.4444444444446" type="line"/>
      <point x="97.11111111111111" y="1123.2222222222222" type="line"/>
      <point x="206.11111111111111" y="1018.6666666666666" type="line"/>
    </contour>
    <contour>
      <point x="816.7777777777778" y="885.5555555555555" type="line"/>
      <point x="979.4444444444445" y="1018.6666666666666" type="line"/>
      <point x="1088.4444444444446" y="1123.2222222222222" type="line"/>
      <point x="977.2222222222223" y="1234.4444444444446" type="line"/>
      <point x="872.6666666666667" y="1126.6666666666667" type="line"/>
      <point x="738.3333333333334" y="962.7777777777778" type="line"/>
    </contour>
    <contour>
      <point x="976.0" y="245.55555555555554" type="line"/>
      <point x="1087.2222222222222" y="356.77777777777777" type="line"/>
      <point x="979.4444444444445" y="461.3333333333333" type="line"/>
      <point x="822.8888888888889" y="588.3333333333334" type="line"/>
      <point x="744.4444444444445" y="508.6666666666667" type="line"/>
      <point x="871.4444444444445" y="353.3333333333333" type="line"/>
    </contour>
    <contour>
      <point x="209.55555555555557" y="245.55555555555554" type="line"/>
      <point x="314.11111111111114" y="353.3333333333333" type="line"/>
      <point x="441.1111111111112" y="508.6666666666667" type="line"/>
      <point x="362.6666666666667" y="588.3333333333334" type="line"/>
      <point x="206.11111111111111" y="461.3333333333333" type="line"/>
      <point x="98.33333333333333" y="356.77777777777777" type="line"/>
    </contour>
    <contour>
      <point x="592.7777777777778" y="389.6111111111111" type="curve" smooth="yes"/>
      <point x="792.0" y="389.6111111111111"/>
      <point x="934.5" y="529.5555555555555"/>
      <point x="934.5" y="740.0" type="curve" smooth="yes"/>
      <point x="934.5" y="948.4444444444445"/>
      <point x="792.0" y="1088.388888888889"/>
      <point x="592.7777777777778" y="1088.388888888889" type="curve" smooth="yes"/>
      <point x="392.33333333333337" y="1088.388888888889"/>
      <point x="251.05555555555554" y="948.4444444444445"/>
      <point x="251.05555555555554" y="740.0" type="curve" smooth="yes"/>
      <point x="251.05555555555554" y="529.5555555555555"/>
      <point x="392.33333333333337" y="389.6111111111111"/>
    </contour>
    <contour>
      <point x="592.7777777777778" y="514.6111111111111" type="curve" smooth="yes"/>
      <point x="469.6666666666667" y="514.6111111111111"/>
      <point x="383.0555555555556" y="598.4444444444445"/>
      <point x="383.0555555555556" y="740.0" type="curve" smooth="yes"/>
      <point x="383.0555555555556" y="881.5555555555555"/>
      <point x="469.6666666666667" y="965.3888888888889"/>
      <point x="594.7777777777778" y="965.3888888888889" type="curve" smooth="yes"/>
      <point x="726.0" y="965.3888888888889"/>
      <point x="802.5" y="871.1111111111111"/>
      <point x="802.5" y="740.0" type="curve" smooth="yes"/>
      <point x="802.5" y="597.2222222222223"/>
      <point x="715.8888888888889" y="514.6111111111111"/>
    </contour>
  </outline>
</glyph>
<glyph name="yen" format="2">
  <advance width="1239.0555555555557"/>
  <unicode hex="00A5"/>
  <outline>
    <contour>
      <point x="515.3333333333334" y="0.0" type="line"/>
      <point x="725.6666666666667" y="0.0" type="line"/>
      <point x="725.6666666666667" y="732.6666666666666" type="line"/>
      <point x="681.2222222222223" y="578.5" type="line"/>
      <point x="1253.3333333333335" y="1480.0" type="line"/>
      <point x="1040.3333333333333" y="1480.0" type="line"/>
      <point x="592.0555555555555" y="778.7222222222223" type="line"/>
      <point x="657.9444444444445" y="778.7222222222223" type="line"/>
      <point x="208.72222222222229" y="1480.0" type="line"/>
      <point x="-19.333333333333346" y="1480.0" type="line"/>
      <point x="559.7777777777778" y="578.5" type="line"/>
      <point x="515.3333333333334" y="735.0" type="line"/>
    </contour>
    <contour>
      <point x="199.2222222222222" y="287.72222222222223" type="line"/>
      <point x="1041.7777777777778" y="287.72222222222223" type="line"/>
      <point x="1041.7777777777778" y="420.94444444444446" type="line"/>
      <point x="199.2222222222222" y="420.94444444444446" type="line"/>
    </contour>
    <contour>
      <point x="199.2222222222222" y="627.0555555555555" type="line"/>
      <point x="1041.7777777777778" y="627.0555555555555" type="line"/>
      <point x="1041.7777777777778" y="760.2777777777778" type="line"/>
      <point x="199.2222222222222" y="760.2777777777778" type="line"/>
    </contour>
  </outline>
</glyph>
<glyph name="section" format="2">
  <advance width="1042.4444444444446"/>
  <unicode hex="00A7"/>
  <outline>
    <contour>
      <point x="448.83333333333337" y="-19.555555555555557" type="curve" smooth="yes"/>
      <point x="746.0555555555555" y="-19.555555555555557"/>
      <point x="897.3888888888889" y="105.33333333333334"/>
      <point x="897.3888888888889" y="305.27777777777777" type="curve" smooth="yes"/>
      <point x="897.3888888888889" y="458.6666666666667"/>
      <point x="811.4444444444445" y="545.9444444444445"/>
      <point x="618.9444444444445" y="587.6666666666666" type="curve" smooth="yes"/>
      <point x="442.11111111111114" y="623.4444444444445" type="line" smooth="yes"/>
      <point x="326.3888888888889" y="648.6666666666666"/>
      <point x="285.3888888888889" y="704.3888888888889"/>
      <point x="285.3888888888889" y="786.1666666666666" type="curve" smooth="yes"/>
      <point x="285.3888888888889" y="845.0"/>
      <point x="312.00000000000006" y="895.7777777777777"/>
      <point x="369.94444444444446" y="939.5" type="curve"/>
      <point x="254.77777777777777" y="1020.2222222222222" type="line"/>
      <point x="164.55555555555554" y="963.7222222222222"/>
      <point x="110.66666666666666" y="880.6111111111111"/>
      <point x="110.66666666666666" y="775.3888888888889" type="curve" smooth="yes"/>
      <point x="110.66666666666666" y="613.5"/>
      <point x="199.94444444444446" y="518.8888888888889"/>
      <point x="381.8888888888889" y="479.55555555555554" type="curve" smooth="yes"/>
      <point x="558.3333333333334" y="443.77777777777777" type="line" smooth="yes"/>
      <point x="663.5555555555555" y="420.88888888888886"/>
      <point x="705.8333333333333" y="379.16666666666663"/>
      <point x="705.8333333333333" y="292.6666666666667" type="curve" smooth="yes"/>
      <point x="705.8333333333333" y="192.22222222222223"/>
      <point x="634.8888888888889" y="132.00000000000006"/>
      <point x="448.33333333333337" y="132.00000000000006" type="curve" smooth="yes"/>
      <point x="348.05555555555554" y="132.00000000000006"/>
      <point x="251.33333333333331" y="144.16666666666669"/>
      <point x="144.16666666666666" y="174.61111111111114" type="curve"/>
      <point x="144.16666666666666" y="21.833333333333332" type="line"/>
      <point x="239.88888888888889" y="-6.166666666666667"/>
      <point x="345.55555555555554" y="-19.555555555555557"/>
    </contour>
    <contour>
      <point x="783.9444444444445" y="455.72222222222223" type="line"/>
      <point x="875.0" y="512.3888888888889"/>
      <point x="931.7777777777778" y="595.2222222222222"/>
      <point x="931.7777777777778" y="707.2222222222223" type="curve" smooth="yes"/>
      <point x="931.7777777777778" y="871.1111111111111"/>
      <point x="845.8333333333334" y="961.9444444444445"/>
      <point x="656.8333333333334" y="1002.1111111111111" type="curve" smooth="yes"/>
      <point x="476.5" y="1037.111111111111" type="line" smooth="yes"/>
      <point x="371.2777777777778" y="1060.0"/>
      <point x="332.7222222222223" y="1108.2777777777778"/>
      <point x="332.7222222222223" y="1184.2222222222222" type="curve" smooth="yes"/>
      <point x="332.7222222222223" y="1272.7222222222222"/>
      <point x="400.11111111111114" y="1345.2222222222222"/>
      <point x="614.7222222222223" y="1345.2222222222222" type="curve" smooth="yes"/>
      <point x="698.0555555555557" y="1345.2222222222222"/>
      <point x="771.6111111111111" y="1337.2222222222222"/>
      <point x="859.0555555555557" y="1315.5555555555554" type="curve"/>
      <point x="859.0555555555557" y="1468.3333333333333" type="line"/>
      <point x="780.3333333333334" y="1486.7777777777778"/>
      <point x="693.1111111111111" y="1496.7777777777778"/>
      <point x="601.8888888888889" y="1496.7777777777778" type="curve" smooth="yes"/>
      <point x="282.22222222222223" y="1496.7777777777778"/>
      <point x="141.16666666666666" y="1363.0"/>
      <point x="141.16666666666666" y="1173.4444444444443" type="curve" smooth="yes"/>
      <point x="141.16666666666666" y="1025.9444444444443"/>
      <point x="229.66666666666669" y="933.7222222222222"/>
      <point x="419.77777777777777" y="893.2222222222222" type="curve" smooth="yes"/>
      <point x="596.2222222222222" y="857.4444444444445" type="line" smooth="yes"/>
      <point x="711.9444444444445" y="832.2222222222222"/>
      <point x="757.0555555555555" y="783.0555555555555"/>
      <point x="757.0555555555555" y="692.6666666666666" type="curve" smooth="yes"/>
      <point x="757.0555555555555" y="628.7777777777778"/>
      <point x="728.8888888888889" y="581.3888888888889"/>
      <point x="664.0555555555555" y="537.9444444444445" type="curve"/>
    </contour>
  </outline>
</glyph>
<glyph name="copyright" format="2">
  <advance width="1690.5555555555554"/>
  <unicode hex="00A9"/>
  <outline>
    <contour>
      <point x="845.2777777777777" y="-22.0" type="curve" smooth="yes"/>
      <point x="1293.611111111111" y="-22.0"/>
      <point x="1591.611111111111" y="282.0"/>
      <point x="1591.611111111111" y="740.0" type="curve" smooth="yes"/>
      <point x="1591.611111111111" y="1198.0"/>
      <point x="1293.611111111111" y="1502.0"/>
      <point x="845.2777777777777" y="1502.0" type="curve" smooth="yes"/>
      <point x="396.94444444444446" y="1502.0"/>
      <point x="98.94444444444444" y="1198.0"/>
      <point x="98.94444444444444" y="740.0" type="curve" smooth="yes"/>
      <point x="98.94444444444444" y="282.0"/>
      <point x="396.94444444444446" y="-22.0"/>
    </contour>
    <contour>
      <point x="893.2777777777778" y="324.0" type="curve" smooth="yes"/>
      <point x="972.8333333333334" y="324.0"/>
      <point x="1044.8333333333333" y="336.0"/>
      <point x="1105.8333333333333" y="361.3333333333333" type="curve"/>
      <point x="1105.8333333333333" y="498.8888888888889" type="line"/>
      <point x="1025.388888888889" y="472.33333333333337"/>
      <point x="965.0555555555555" y="463.8888888888889"/>
      <point x="907.8333333333334" y="463.8888888888889" type="curve" smooth="yes"/>
      <point x="744.5" y="463.8888888888889"/>
      <point x="645.8333333333334" y="552.1111111111111"/>
      <point x="645.8333333333334" y="735.6666666666666" type="curve" smooth="yes"/>
      <point x="645.8333333333334" y="916.3333333333333"/>
      <point x="742.1666666666667" y="1004.1111111111111"/>
      <point x="925.9444444444445" y="1004.1111111111111" type="curve" smooth="yes"/>
      <point x="990.5" y="1004.1111111111111"/>
      <point x="1044.611111111111" y="995.6666666666666"/>
      <point x="1105.8333333333333" y="980.7777777777777" type="curve"/>
      <point x="1105.8333333333333" y="1118.3333333333333" type="line"/>
      <point x="1044.9444444444443" y="1136.0"/>
      <point x="984.1666666666666" y="1144.0"/>
      <point x="913.8333333333334" y="1144.0" type="curve" smooth="yes"/>
      <point x="643.6111111111111" y="1144.0"/>
      <point x="485.16666666666663" y="994.4444444444445"/>
      <point x="485.16666666666663" y="733.2222222222222" type="curve" smooth="yes"/>
      <point x="485.16666666666663" y="466.6666666666667"/>
      <point x="646.9444444444445" y="324.0"/>
    </contour>
    <contour>
      <point x="845.2777777777777" y="102.00000000000003" type="curve" smooth="yes"/>
      <point x="465.72222222222223" y="102.00000000000003"/>
      <point x="226.83333333333337" y="352.33333333333337"/>
      <point x="226.83333333333337" y="740.0" type="curve" smooth="yes"/>
      <point x="226.83333333333337" y="1127.6666666666667"/>
      <point x="465.72222222222223" y="1378.0"/>
      <point x="845.2777777777777" y="1378.0" type="curve" smooth="yes"/>
      <point x="1224.8333333333333" y="1378.0"/>
      <point x="1463.7222222222222" y="1127.6666666666667"/>
      <point x="1463.7222222222222" y="740.0" type="curve" smooth="yes"/>
      <point x="1463.7222222222222" y="352.33333333333337"/>
      <point x="1224.8333333333333" y="102.00000000000003"/>
    </contour>
  </outline>
</glyph>
<glyph name="ordfeminine" format="2">
  <advance width="887.8888888888889"/>
  <unicode hex="00AA"/>
  <outline>
    <contour>
      <point x="343.05555555555554" y="594.4444444444445" type="curve" smooth="yes"/>
      <point x="446.27777777777777" y="594.4444444444445"/>
      <point x="541.8888888888889" y="631.8333333333334"/>
      <point x="599.6666666666666" y="703.8333333333334" type="curve"/>
      <point x="609.9444444444445" y="703.8333333333334" type="line"/>
      <point x="624.5" y="610.0" type="line"/>
      <point x="785.1111111111111" y="610.0" type="line"/>
      <point x="785.1111111111111" y="1154.7777777777778" type="line" smooth="yes"/>
      <point x="785.1111111111111" y="1410.3333333333333"/>
      <point x="660.6666666666667" y="1495.888888888889"/>
      <point x="401.6666666666667" y="1495.888888888889" type="curve" smooth="yes"/>
      <point x="312.5" y="1495.888888888889"/>
      <point x="208.22222222222223" y="1482.6666666666667"/>
      <point x="123.77777777777777" y="1456.4444444444443" type="curve"/>
      <point x="123.77777777777777" y="1308.8333333333333" type="line"/>
      <point x="207.5" y="1334.9444444444443"/>
      <point x="296.22222222222223" y="1347.5555555555554"/>
      <point x="369.1111111111111" y="1347.5555555555554" type="curve" smooth="yes"/>
      <point x="528.2222222222222" y="1347.5555555555554"/>
      <point x="593.9444444444445" y="1305.7777777777778"/>
      <point x="593.9444444444445" y="1176.2222222222222" type="curve" smooth="yes"/>
      <point x="593.9444444444445" y="813.3333333333334" type="line"/>
      <point x="540.8888888888889" y="754.9444444444445"/>
      <point x="470.3888888888889" y="730.7222222222223"/>
      <point x="405.6666666666667" y="730.7222222222223" type="curve" smooth="yes"/>
      <point x="302.8888888888889" y="730.7222222222223"/>
      <point x="250.83333333333337" y="776.7777777777778"/>
      <point x="250.83333333333337" y="861.7777777777778" type="curve" smooth="yes"/>
      <point x="250.83333333333337" y="941.9444444444445"/>
      <point x="302.33333333333337" y="986.1666666666666"/>
      <point x="428.55555555555554" y="997.9444444444445" type="curve" smooth="yes"/>
      <point x="655.8333333333334" y="1017.8333333333334" type="line"/>
      <point x="634.9444444444445" y="1123.888888888889" type="line"/>
      <point x="404.22222222222223" y="1103.2222222222222" type="line" smooth="yes"/>
      <point x="161.05555555555554" y="1084.888888888889"/>
      <point x="59.944444444444436" y="998.2222222222223"/>
      <point x="59.944444444444436" y="839.4444444444445" type="curve" smooth="yes"/>
      <point x="59.944444444444436" y="691.9444444444445"/>
      <point x="163.7222222222222" y="594.4444444444445"/>
    </contour>
  </outline>
</glyph>
<glyph name="guillemetleft" format="2">
  <advance width="1071.1666666666667"/>
  <unicode hex="00AB"/>
  <outline>
    <contour>
      <point x="356.77777777777777" y="136.11111111111111" type="line"/>
      <point x="569.2222222222223" y="136.11111111111111" type="line"/>
      <point x="316.33333333333337" y="563.8888888888889" type="line"/>
      <point x="569.2222222222223" y="991.6666666666666" type="line"/>
      <point x="356.77777777777777" y="991.6666666666666" type="line"/>
      <point x="103.88888888888887" y="563.8888888888889" type="line"/>
    </contour>
    <contour>
      <point x="794.8333333333334" y="136.11111111111111" type="line"/>
      <point x="1007.2777777777778" y="136.11111111111111" type="line"/>
      <point x="754.3888888888889" y="563.8888888888889" type="line"/>
      <point x="1007.2777777777778" y="991.6666666666666" type="line"/>
      <point x="794.8333333333334" y="991.6666666666666" type="line"/>
      <point x="541.9444444444445" y="563.8888888888889" type="line"/>
    </contour>
  </outline>
</glyph>
<glyph name="logicalnot" format="2">
  <advance width="1333.2222222222222"/>
  <unicode hex="00AC"/>
  <outline>
    <contour>
      <point x="1031.0555555555554" y="195.11111111111111" type="line"/>
      <point x="1202.5" y="195.11111111111111" type="line"/>
      <point x="1202.5" y="841.7777777777778" type="line"/>
      <point x="139.38888888888889" y="841.7777777777778" type="line"/>
      <point x="139.38888888888889" y="678.2222222222222" type="line"/>
      <point x="1031.0555555555554" y="678.2222222222222" type="line"/>
    </contour>
  </outline>
</glyph>
<glyph name="registered" format="2">
  <advance width="1483.2222222222222"/>
  <unicode hex="00AE"/>
  <outline>
    <contour>
      <point x="741.6111111111111" y="268.0" type="curve" smooth="yes"/>
      <point x="1103.611111111111" y="268.0"/>
      <point x="1351.611111111111" y="518.0"/>
      <point x="1351.611111111111" y="882.0" type="curve" smooth="yes"/>
      <point x="1351.611111111111" y="1246.0"/>
      <point x="1103.611111111111" y="1498.0"/>
      <point x="741.6111111111111" y="1498.0" type="curve" smooth="yes"/>
      <point x="379.6111111111111" y="1498.0"/>
      <point x="131.6111111111111" y="1246.0"/>
      <point x="131.6111111111111" y="882.0" type="curve" smooth="yes"/>
      <point x="131.6111111111111" y="518.0"/>
      <point x="379.6111111111111" y="268.0"/>
    </contour>
    <contour>
      <point x="891.6111111111111" y="600.0" type="line"/>
      <point x="1008.8333333333334" y="600.0" type="line"/>
      <point x="842.1666666666666" y="844.4444444444445" type="line"/>
      <point x="741.7222222222222" y="818.4444444444445" type="line"/>
    </contour>
    <contour>
      <point x="741.6111111111111" y="369.0" type="curve" smooth="yes"/>
      <point x="436.94444444444446" y="369.0"/>
      <point x="238.5" y="571.0"/>
      <point x="238.5" y="882.0" type="curve" smooth="yes"/>
      <point x="238.5" y="1193.7777777777778"/>
      <point x="436.94444444444446" y="1397.0"/>
      <point x="741.6111111111111" y="1397.0" type="curve" smooth="yes"/>
      <point x="1046.2777777777778" y="1397.0"/>
      <point x="1244.7222222222222" y="1193.7777777777778"/>
      <point x="1244.7222222222222" y="882.0" type="curve" smooth="yes"/>
      <point x="1244.7222222222222" y="571.0"/>
      <point x="1046.2777777777778" y="369.0"/>
    </contour>
    <contour>
      <point x="528.1666666666666" y="600.0" type="line"/>
      <point x="633.0555555555555" y="600.0" type="line"/>
      <point x="635.3888888888889" y="810.4444444444445" type="line"/>
      <point x="729.9444444444445" y="810.4444444444445" type="line" smooth="yes"/>
      <point x="898.9444444444445" y="810.4444444444445"/>
      <point x="981.7222222222222" y="875.6666666666666"/>
      <point x="981.7222222222222" y="1000.2222222222222" type="curve" smooth="yes"/>
      <point x="981.7222222222222" y="1124.7777777777778"/>
      <point x="896.9444444444445" y="1192.0"/>
      <point x="729.9444444444445" y="1192.0" type="curve" smooth="yes"/>
      <point x="528.1666666666666" y="1192.0" type="line"/>
    </contour>
    <contour>
      <point x="635.3888888888889" y="899.6666666666666" type="line"/>
      <point x="635.3888888888889" y="1102.7777777777778" type="line"/>
      <point x="747.3888888888889" y="1102.7777777777778" type="line" smooth="yes"/>
      <point x="834.5" y="1102.7777777777778"/>
      <point x="878.3888888888889" y="1069.0"/>
      <point x="878.3888888888889" y="1000.2222222222222" type="curve" smooth="yes"/>
      <point x="878.3888888888889" y="931.4444444444445"/>
      <point x="836.5" y="899.6666666666666"/>
      <point x="747.3888888888889" y="899.6666666666666" type="curve" smooth="yes"/>
    </contour>
  </outline>
</glyph>
<glyph name="degree" format="2">
  <advance width="977.0"/>
  <unicode hex="00B0"/>
  <outline>
    <contour>
      <point x="488.5" y="789.2222222222222" type="curve" smooth="yes"/>
      <point x="695.7222222222222" y="789.2222222222222"/>
      <point x="845.3888888888889" y="938.5555555555555"/>
      <point x="845.3888888888889" y="1143.7777777777778" type="curve" smooth="yes"/>
      <point x="845.3888888888889" y="1349.0"/>
      <point x="695.7222222222222" y="1497.5555555555557"/>
      <point x="488.5" y="1497.5555555555557" type="curve" smooth="yes"/>
      <point x="281.27777777777777" y="1497.5555555555557"/>
      <point x="131.6111111111111" y="1349.0"/>
      <point x="131.6111111111111" y="1143.7777777777778" type="curve" smooth="yes"/>
      <point x="131.6111111111111" y="938.5555555555555"/>
      <point x="281.27777777777777" y="789.2222222222222"/>
    </contour>
    <contour>
      <point x="488.5" y="920.5" type="curve" smooth="yes"/>
      <point x="362.27777777777777" y="920.5"/>
      <point x="270.94444444444446" y="1006.6111111111111"/>
      <point x="270.94444444444446" y="1143.7777777777778" type="curve" smooth="yes"/>
      <point x="270.94444444444446" y="1281.3333333333333"/>
      <point x="363.05555555555554" y="1366.2777777777778"/>
      <point x="488.5" y="1366.2777777777778" type="curve" smooth="yes"/>
      <point x="613.9444444444445" y="1366.2777777777778"/>
      <point x="706.0555555555555" y="1281.3333333333333"/>
      <point x="706.0555555555555" y="1143.7777777777778" type="curve" smooth="yes"/>
      <point x="706.0555555555555" y="1006.6111111111111"/>
      <point x="614.7222222222222" y="920.5"/>
    </contour>
  </outline>
</glyph>
<glyph name="plusminus" format="2">
  <advance width="1083.0"/>
  <unicode hex="00B1"/>
  <outline>
    <contour>
      <point x="455.77777777777777" y="347.8888888888889" type="line"/>
      <point x="627.2222222222223" y="347.8888888888889" type="line"/>
      <point x="627.2222222222223" y="669.1111111111111" type="line"/>
      <point x="943.6111111111111" y="669.1111111111111" type="line"/>
      <point x="943.6111111111111" y="832.6666666666667" type="line"/>
      <point x="627.2222222222223" y="832.6666666666667" type="line"/>
      <point x="627.2222222222223" y="1153.888888888889" type="line"/>
      <point x="455.77777777777777" y="1153.888888888889" type="line"/>
      <point x="455.77777777777777" y="832.6666666666667" type="line"/>
      <point x="139.38888888888889" y="832.6666666666667" type="line"/>
      <point x="139.38888888888889" y="669.1111111111111" type="line"/>
      <point x="455.77777777777777" y="669.1111111111111" type="line"/>
    </contour>
    <contour>
      <point x="139.38888888888889" y="0.38888888888888906" type="line"/>
      <point x="943.6111111111111" y="0.38888888888888906" type="line"/>
      <point x="943.6111111111111" y="163.94444444444449" type="line"/>
      <point x="139.38888888888889" y="163.94444444444449" type="line"/>
    </contour>
  </outline>
</glyph>
<glyph name="threesuperior" format="2">
  <advance width="807.7222222222223"/>
  <unicode hex="00B3"/>
  <outline>
    <contour>
      <point x="329.94444444444446" y="-148.77777777777777" type="curve" smooth="yes"/>
      <point x="592.4444444444445" y="-148.77777777777777"/>
      <point x="724.5555555555555" y="-42.5"/>
      <point x="724.5555555555555" y="138.0" type="curve" smooth="yes"/>
      <point x="724.5555555555555" y="279.55555555555554"/>
      <point x="637.7222222222223" y="367.3333333333333"/>
      <point x="481.61111111111114" y="388.72222222222223" type="curve"/>
      <point x="481.61111111111114" y="375.6111111111111" type="line"/>
      <point x="610.4444444444445" y="403.27777777777777"/>
      <point x="690.9444444444445" y="490.94444444444446"/>
      <point x="690.9444444444445" y="615.5555555555555" type="curve" smooth="yes"/>
      <point x="690.9444444444445" y="782.1111111111111"/>
      <point x="570.0555555555555" y="876.7777777777778"/>
      <point x="337.6666666666667" y="876.7777777777778" type="curve" smooth="yes"/>
      <point x="252.22222222222223" y="876.7777777777778"/>
      <point x="155.77777777777777" y="863.2222222222222"/>
      <point x="90.83333333333333" y="840.3888888888889" type="curve"/>
      <point x="90.83333333333333" y="709.1111111111111" type="line"/>
      <point x="161.72222222222223" y="735.5555555555555"/>
      <point x="244.66666666666666" y="748.1111111111111"/>
      <point x="319.8888888888889" y="748.1111111111111" type="curve" smooth="yes"/>
      <point x="460.44444444444446" y="748.1111111111111"/>
      <point x="528.1666666666666" y="696.8888888888889"/>
      <point x="528.1666666666666" y="601.6666666666666" type="curve" smooth="yes"/>
      <point x="528.1666666666666" y="500.0"/>
      <point x="450.66666666666663" y="441.6666666666667"/>
      <point x="290.27777777777777" y="441.6666666666667" type="curve" smooth="yes"/>
      <point x="188.2222222222222" y="441.6666666666667" type="line"/>
      <point x="188.2222222222222" y="310.8333333333333" type="line"/>
      <point x="334.6666666666667" y="310.8333333333333" type="line" smooth="yes"/>
      <point x="494.94444444444446" y="310.8333333333333"/>
      <point x="563.7222222222222" y="251.44444444444443"/>
      <point x="563.7222222222222" y="148.38888888888889" type="curve" smooth="yes"/>
      <point x="563.7222222222222" y="38.61111111111113"/>
      <point x="486.8888888888889" y="-19.722222222222186"/>
      <point x="323.3333333333333" y="-19.722222222222186" type="curve" smooth="yes"/>
      <point x="244.77777777777777" y="-19.722222222222186"/>
      <point x="152.38888888888889" y="-7.111111111111086"/>
      <point x="70.05555555555556" y="18.7777777777778" type="curve"/>
      <point x="70.05555555555556" y="-112.5" type="line"/>
      <point x="150.27777777777777" y="-136.55555555555554"/>
      <point x="240.33333333333334" y="-148.77777777777777"/>
    </contour>
  </outline>
</glyph>
<glyph name="acute" format="2">
  <advance width="1077.7777777777778"/>
  <unicode hex="00B4"/>
  <anchor x="538.8888888888889" y="1200.0" name="_top"/>
  <anchor x="538.8888888888889" y="1594.888888888889" name="top"/>
  <outline>
    <contour>
      <point x="443.8888888888889" y="1246.888888888889" type="line"/>
      <point x="633.8888888888889" y="1246.888888888889" type="line"/>
      <point x="883.5000000000001" y="1616.0" type="line"/>
      <point x="661.6111111111111" y="1616.0" type="line"/>
    </contour>
  </outline>
</glyph>
<glyph name="paragraph" format="2">
  <advance width="1257.5"/>
  <unicode hex="00B6"/>
  <outline>
    <contour>
      <point x="658.0" y="0.0" type="line"/>
      <point x="813.5" y="0.0" type="line"/>
      <point x="813.5" y="1480.0" type="line"/>
      <point x="731.3888888888889" y="1489.9444444444443"/>
      <point x="635.7222222222222" y="1496.3333333333333"/>
      <point x="538.9444444444445" y="1496.3333333333333" type="curve" smooth="yes"/>
      <point x="234.83333333333331" y="1496.3333333333333"/>
      <point x="84.6111111111111" y="1337.9444444444443"/>
      <point x="84.6111111111111" y="982.8888888888889" type="curve" smooth="yes"/>
      <point x="84.6111111111111" y="647.4444444444445"/>
      <point x="227.94444444444443" y="468.6111111111111"/>
      <point x="534.9444444444445" y="468.6111111111111" type="curve" smooth="yes"/>
      <point x="580.3333333333333" y="468.6111111111111"/>
      <point x="616.4444444444445" y="470.8333333333333"/>
      <point x="658.0" y="475.1111111111111" type="curve"/>
    </contour>
    <contour>
      <point x="943.5" y="0.0" type="line"/>
      <point x="1099.0" y="0.0" type="line"/>
      <point x="1099.0" y="1480.0" type="line"/>
      <point x="943.5" y="1480.0" type="line"/>
    </contour>
  </outline>
</glyph>
<glyph name="periodcentered" format="2">
  <advance width="489.2222222222223"/>
  <unicode hex="00B7"/>
  <anchor x="244.61111111111114" y="560.0" name="_periodcentered"/>
  <outline>
    <contour>
      <point x="244.61111111111114" y="424.05555555555554" type="curve" smooth="yes"/>
      <point x="330.00000000000006" y="424.05555555555554"/>
      <point x="386.7222222222223" y="477.2222222222222"/>
      <point x="386.7222222222223" y="558.7777777777778" type="curve" smooth="yes"/>
      <point x="386.7222222222223" y="640.3333333333334"/>
      <point x="331.5555555555556" y="694.7222222222223"/>
      <point x="244.61111111111114" y="694.7222222222223" type="curve" smooth="yes"/>
      <point x="157.66666666666666" y="694.7222222222223"/>
      <point x="102.49999999999999" y="641.8888888888889"/>
      <point x="102.49999999999999" y="558.7777777777778" type="curve" smooth="yes"/>
      <point x="102.49999999999999" y="475.66666666666663"/>
      <point x="159.22222222222223" y="424.05555555555554"/>
    </contour>
  </outline>
</glyph>
<glyph name="onesuperior" format="2">
  <advance width="807.7222222222223"/>
  <unicode hex="00B9"/>
  <outline>
    <contour>
      <point x="361.27777777777777" y="-112.11111111111111" type="line"/>
      <point x="530.6666666666667" y="-112.11111111111111" type="line"/>
      <point x="530.6666666666667" y="868.0" type="line"/>
      <point x="421.22222222222223" y="868.0" type="line"/>
      <point x="136.88888888888889" y="673.2777777777778" type="line"/>
      <point x="136.88888888888889" y="518.4444444444445" type="line"/>
      <point x="421.22222222222223" y="713.1666666666666" type="line"/>
      <point x="361.27777777777777" y="761.8888888888889" type="line"/>
    </contour>
    <contour>
      <point x="137.22222222222223" y="-136.0" type="line"/>
      <point x="743.1111111111111" y="-136.0" type="line"/>
      <point x="743.1111111111111" y="4.944444444444471" type="line"/>
      <point x="137.22222222222223" y="4.944444444444471" type="line"/>
    </contour>
  </outline>
</glyph>
<glyph name="ordmasculine" format="2">
  <advance width="962.3333333333334"/>
  <unicode hex="00BA"/>
  <outline>
    <contour>
      <point x="481.1666666666667" y="594.4444444444445" type="curve" smooth="yes"/>
      <point x="736.9444444444445" y="594.4444444444445"/>
      <point x="896.0" y="743.9444444444445"/>
      <point x="896.0" y="1046.388888888889" type="curve" smooth="yes"/>
      <point x="896.0" y="1348.8333333333333"/>
      <point x="736.9444444444445" y="1495.888888888889"/>
      <point x="481.1666666666667" y="1495.888888888889" type="curve" smooth="yes"/>
      <point x="225.38888888888889" y="1495.888888888889"/>
      <point x="66.33333333333331" y="1350.7777777777778"/>
      <point x="66.33333333333331" y="1046.388888888889" type="curve" smooth="yes"/>
      <point x="66.33333333333331" y="742.0"/>
      <point x="225.38888888888889" y="594.4444444444445"/>
    </contour>
    <contour>
      <point x="481.1666666666667" y="743.3888888888889" type="curve" smooth="yes"/>
      <point x="347.7222222222223" y="743.3888888888889"/>
      <point x="260.33333333333337" y="818.2777777777778"/>
      <point x="260.33333333333337" y="1046.388888888889" type="curve" smooth="yes"/>
      <point x="260.33333333333337" y="1274.888888888889"/>
      <point x="347.7222222222223" y="1346.9444444444443"/>
      <point x="481.1666666666667" y="1346.9444444444443" type="curve" smooth="yes"/>
      <point x="615.3888888888889" y="1346.9444444444443"/>
      <point x="702.0" y="1274.888888888889"/>
      <point x="702.0" y="1046.388888888889" type="curve" smooth="yes"/>
      <point x="702.0" y="818.2777777777778"/>
      <point x="615.3888888888889" y="743.3888888888889"/>
    </contour>
  </outline>
</glyph>
<glyph name="guillemetright" format="2">
  <advance width="1071.1666666666667"/>
  <unicode hex="00BB"/>
  <outline>
    <contour>
      <point x="63.88888888888888" y="136.11111111111111" type="line"/>
      <point x="276.33333333333337" y="136.11111111111111" type="line"/>
      <point x="529.2222222222223" y="563.8888888888889" type="line"/>
      <point x="276.33333333333337" y="991.6666666666666" type="line"/>
      <point x="63.88888888888888" y="991.6666666666666" type="line"/>
      <point x="316.77777777777777" y="563.8888888888889" type="line"/>
    </contour>
    <contour>
      <point x="501.94444444444446" y="136.11111111111111" type="line"/>
      <point x="714.3888888888889" y="136.11111111111111" type="line"/>
      <point x="967.2777777777778" y="563.8888888888889" type="line"/>
      <point x="714.3888888888889" y="991.6666666666666" type="line"/>
      <point x="501.94444444444446" y="991.6666666666666" type="line"/>
      <point x="754.8333333333334" y="563.8888888888889" type="line"/>
    </contour>
  </outline>
</glyph>
<glyph name="onequarter" format="2">
  <advance width="1919.3333333333335"/>
  <unicode hex="00BC"/>
  <outline>
    <contour>
      <point x="361.27777777777777" y="639.8888888888889" type="line"/>
      <point x="530.6666666666667" y="639.8888888888889" type="line"/>
      <point x="530.6666666666667" y="1620.0" type="line"/>
      <point x="421.22222222222223" y="1620.0" type="line"/>
      <point x="136.88888888888889" y="1425.2777777777778" type="line"/>
      <point x="136.88888888888889" y="1270.4444444444443" type="line"/>
      <point x="421.22222222222223" y="1465.1666666666665" type="line"/>
      <point x="361.27777777777777" y="1513.888888888889" type="line"/>
    </contour>
    <contour>
      <point x="137.22222222222223" y="616.0" type="line"/>
      <point x="743.1111111111111" y="616.0" type="line"/>
      <point x="743.1111111111111" y="756.9444444444445" type="line"/>
      <point x="137.22222222222223" y="756.9444444444445" type="line"/>
    </contour>
    <contour>
      <point x="473.2777777777778" y="-136.0" type="line"/>
      <point x="649.3333333333334" y="-136.0" type="line"/>
      <point x="1446.0555555555557" y="1616.0" type="line"/>
      <point x="1270.0" y="1616.0" type="line"/>
    </contour>
    <contour>
      <point x="1140.3333333333335" y="85.27777777777777" type="line"/>
      <point x="1894.6666666666667" y="85.27777777777777" type="line"/>
      <point x="1894.6666666666667" y="217.61111111111114" type="line"/>
      <point x="1283.7777777777778" y="217.61111111111114" type="line"/>
      <point x="1302.4444444444446" y="177.55555555555557" type="line"/>
      <point x="1646.888888888889" y="864.0" type="line"/>
      <point x="1486.3333333333335" y="864.0" type="line"/>
      <point x="1140.3333333333335" y="178.16666666666669" type="line"/>
    </contour>
    <contour>
      <point x="1610.8333333333335" y="-136.0" type="line"/>
      <point x="1761.5" y="-136.0" type="line"/>
      <point x="1761.5" y="526.0" type="line"/>
      <point x="1641.1111111111113" y="526.0" type="line"/>
      <point x="1610.8333333333335" y="217.61111111111114" type="line"/>
    </contour>
  </outline>
</glyph>
<glyph name="onehalf" format="2">
  <advance width="1919.3333333333335"/>
  <unicode hex="00BD"/>
  <outline>
    <contour>
      <point x="361.27777777777777" y="639.8888888888889" type="line"/>
      <point x="530.6666666666667" y="639.8888888888889" type="line"/>
      <point x="530.6666666666667" y="1620.0" type="line"/>
      <point x="421.22222222222223" y="1620.0" type="line"/>
      <point x="136.88888888888889" y="1425.2777777777778" type="line"/>
      <point x="136.88888888888889" y="1270.4444444444443" type="line"/>
      <point x="421.22222222222223" y="1465.1666666666665" type="line"/>
      <point x="361.27777777777777" y="1513.888888888889" type="line"/>
    </contour>
    <contour>
      <point x="137.22222222222223" y="616.0" type="line"/>
      <point x="743.1111111111111" y="616.0" type="line"/>
      <point x="743.1111111111111" y="756.9444444444445" type="line"/>
      <point x="137.22222222222223" y="756.9444444444445" type="line"/>
    </contour>
    <contour>
      <point x="473.2777777777778" y="-136.0" type="line"/>
      <point x="649.3333333333334" y="-136.0" type="line"/>
      <point x="1446.0555555555557" y="1616.0" type="line"/>
      <point x="1270.0" y="1616.0" type="line"/>
    </contour>
    <contour>
      <point x="1198.611111111111" y="-136.0" type="line"/>
      <point x="1835.5" y="-136.0" type="line"/>
      <point x="1835.5" y="4.944444444444471" type="line"/>
      <point x="1384.9444444444446" y="4.944444444444471" type="line"/>
      <point x="1389.8888888888891" y="-38.99999999999997" type="line"/>
      <point x="1633.0" y="261.8333333333333" type="line" smooth="yes"/>
      <point x="1745.0" y="399.5"/>
      <point x="1788.8333333333335" y="492.66666666666663"/>
      <point x="1789.4444444444446" y="598.1666666666666" type="curve" smooth="yes"/>
      <point x="1790.0555555555557" y="792.1666666666666"/>
      <point x="1663.2777777777778" y="876.7777777777778"/>
      <point x="1434.8333333333335" y="876.7777777777778" type="curve" smooth="yes"/>
      <point x="1343.5555555555557" y="876.7777777777778"/>
      <point x="1251.2777777777778" y="863.3888888888889"/>
      <point x="1186.2222222222222" y="839.1666666666666" type="curve"/>
      <point x="1186.2222222222222" y="699.7222222222222" type="line"/>
      <point x="1251.3333333333335" y="724.3888888888889"/>
      <point x="1331.1111111111113" y="739.3333333333333"/>
      <point x="1413.1666666666667" y="739.3333333333333" type="curve" smooth="yes"/>
      <point x="1555.6666666666667" y="739.3333333333333"/>
      <point x="1620.7777777777778" y="691.4444444444445"/>
      <point x="1620.7777777777778" y="582.5" type="curve" smooth="yes"/>
      <point x="1620.7777777777778" y="508.0"/>
      <point x="1582.8333333333335" y="434.44444444444446"/>
      <point x="1488.888888888889" y="317.27777777777777" type="curve" smooth="yes"/>
      <point x="1198.611111111111" y="-45.27777777777776" type="line"/>
    </contour>
  </outline>
</glyph>
<glyph name="threequarters" format="2">
  <advance width="1919.3333333333335"/>
  <unicode hex="00BE"/>
  <outline>
    <contour>
      <point x="329.94444444444446" y="603.2222222222222" type="curve" smooth="yes"/>
      <point x="592.4444444444445" y="603.2222222222222"/>
      <point x="724.5555555555555" y="709.5"/>
      <point x="724.5555555555555" y="890.0" type="curve" smooth="yes"/>
      <point x="724.5555555555555" y="1031.5555555555557"/>
      <point x="637.7222222222223" y="1119.3333333333333"/>
      <point x="481.61111111111114" y="1140.7222222222222" type="curve"/>
      <point x="481.61111111111114" y="1127.611111111111" type="line"/>
      <point x="610.4444444444445" y="1155.2777777777778"/>
      <point x="690.9444444444445" y="1242.9444444444443"/>
      <point x="690.9444444444445" y="1367.5555555555557" type="curve" smooth="yes"/>
      <point x="690.9444444444445" y="1534.111111111111"/>
      <point x="570.0555555555555" y="1628.7777777777778"/>
      <point x="337.6666666666667" y="1628.7777777777778" type="curve" smooth="yes"/>
      <point x="252.22222222222223" y="1628.7777777777778"/>
      <point x="155.77777777777777" y="1615.2222222222222"/>
      <point x="90.83333333333333" y="1592.388888888889" type="curve"/>
      <point x="90.83333333333333" y="1461.111111111111" type="line"/>
      <point x="161.72222222222223" y="1487.5555555555554"/>
      <point x="244.66666666666666" y="1500.111111111111"/>
      <point x="319.8888888888889" y="1500.111111111111" type="curve" smooth="yes"/>
      <point x="460.44444444444446" y="1500.111111111111"/>
      <point x="528.1666666666666" y="1448.888888888889"/>
      <point x="528.1666666666666" y="1353.6666666666667" type="curve" smooth="yes"/>
      <point x="528.1666666666666" y="1252.0"/>
      <point x="450.66666666666663" y="1193.6666666666667"/>
      <point x="290.27777777777777" y="1193.6666666666667" type="curve" smooth="yes"/>
      <point x="188.2222222222222" y="1193.6666666666667" type="line"/>
      <point x="188.2222222222222" y="1062.8333333333333" type="line"/>
      <point x="334.6666666666667" y="1062.8333333333333" type="line" smooth="yes"/>
      <point x="494.94444444444446" y="1062.8333333333333"/>
      <point x="563.7222222222222" y="1003.4444444444445"/>
      <point x="563.7222222222222" y="900.3888888888889" type="curve" smooth="yes"/>
      <point x="563.7222222222222" y="790.6111111111111"/>
      <point x="486.8888888888889" y="732.2777777777778"/>
      <point x="323.3333333333333" y="732.2777777777778" type="curve" smooth="yes"/>
      <point x="244.77777777777777" y="732.2777777777778"/>
      <point x="152.38888888888889" y="744.8888888888889"/>
      <point x="70.05555555555556" y="770.7777777777778" type="curve"/>
      <point x="70.05555555555556" y="639.5" type="line"/>
      <point x="150.27777777777777" y="615.4444444444445"/>
      <point x="240.33333333333334" y="603.2222222222222"/>
    </contour>
    <contour>
      <point x="473.2777777777778" y="-136.0" type="line"/>
      <point x="649.3333333333334" y="-136.0" type="line"/>
      <point x="1446.0555555555557" y="1616.0" type="line"/>
      <point x="1270.0" y="1616.0" type="line"/>
    </contour>
    <contour>
      <point x="1140.3333333333335" y="85.27777777777777" type="line"/>
      <point x="1894.6666666666667" y="85.27777777777777" type="line"/>
      <point x="1894.6666666666667" y="217.61111111111114" type="line"/>
      <point x="1283.7777777777778" y="217.61111111111114" type="line"/>
      <point x="1302.4444444444446" y="177.55555555555557" type="line"/>
      <point x="1646.888888888889" y="864.0" type="line"/>
      <point x="1486.3333333333335" y="864.0" type="line"/>
      <point x="1140.3333333333335" y="178.16666666666669" type="line"/>
    </contour>
    <contour>
      <point x="1610.8333333333335" y="-136.0" type="line"/>
      <point x="1761.5" y="-136.0" type="line"/>
      <point x="1761.5" y="526.0" type="line"/>
      <point x="1641.1111111111113" y="526.0" type="line"/>
      <point x="1610.8333333333335" y="217.61111111111114" type="line"/>
    </contour>
  </outline>
</glyph>
<glyph name="questiondown" format="2">
  <advance width="929.6111111111111"/>
  <unicode hex="00BF"/>
  <outline>
    <contour>
      <point x="577.3888888888889" y="697.5555555555555" type="line"/>
      <point x="448.1111111111111" y="697.5555555555555" type="line"/>
      <point x="430.72222222222223" y="406.6666666666667" type="line"/>
      <point x="169.94444444444446" y="313.44444444444446"/>
      <point x="56.61111111111111" y="184.94444444444446"/>
      <point x="56.61111111111111" y="-22.49999999999999" type="curve" smooth="yes"/>
      <point x="56.61111111111111" y="-260.77777777777777"/>
      <point x="225.16666666666669" y="-400.0"/>
      <point x="546.0" y="-400.0" type="curve" smooth="yes"/>
      <point x="666.0" y="-400.0"/>
      <point x="798.2777777777778" y="-379.44444444444446"/>
      <point x="892.6111111111112" y="-345.6111111111111" type="curve"/>
      <point x="892.6111111111112" y="-176.88888888888886" type="line"/>
      <point x="789.7222222222223" y="-213.9444444444444"/>
      <point x="676.6111111111112" y="-232.49999999999994"/>
      <point x="566.8333333333334" y="-232.49999999999994" type="curve" smooth="yes"/>
      <point x="360.8888888888889" y="-232.49999999999994"/>
      <point x="260.00000000000006" y="-151.83333333333331"/>
      <point x="260.00000000000006" y="-7.722222222222207" type="curve" smooth="yes"/>
      <point x="260.00000000000006" y="134.44444444444446"/>
      <point x="342.50000000000006" y="226.83333333333331"/>
      <point x="613.1111111111112" y="302.16666666666663" type="curve"/>
    </contour>
    <contour>
      <point x="512.5555555555555" y="1101.6666666666667" type="curve" smooth="yes"/>
      <point x="425.94444444444446" y="1101.6666666666667"/>
      <point x="370.44444444444446" y="1048.8333333333333"/>
      <point x="370.44444444444446" y="972.0" type="curve" smooth="yes"/>
      <point x="370.44444444444446" y="893.9444444444443"/>
      <point x="425.6111111111111" y="841.1111111111111"/>
      <point x="512.5555555555555" y="841.1111111111111" type="curve" smooth="yes"/>
      <point x="599.5" y="841.1111111111111"/>
      <point x="654.6666666666667" y="892.3888888888888"/>
      <point x="654.6666666666667" y="972.0" type="curve" smooth="yes"/>
      <point x="654.6666666666667" y="1050.388888888889"/>
      <point x="597.9444444444445" y="1101.6666666666667"/>
    </contour>
  </outline>
</glyph>
<glyph name="Agrave" format="2">
  <advance width="1380.888888888889"/>
  <unicode hex="00C0"/>
  <anchor x="690.6666666666667" y="1520.0" name="_top"/>
  <anchor x="691.0555555555555" y="0.0" name="bottom"/>
  <anchor x="1356.7222222222222" y="0.0" name="ogonek"/>
  <anchor x="690.6666666666667" y="1520.0" name="top"/>
  <outline>
    <contour>
      <point x="24.16666666666666" y="0.0" type="line"/>
      <point x="232.11111111111117" y="0.0" type="line"/>
      <point x="703.3888888888889" y="1383.611111111111" type="line"/>
      <point x="673.9444444444445" y="1383.611111111111" type="line"/>
      <point x="1146.0" y="0.0" type="line"/>
      <point x="1356.7222222222222" y="0.0" type="line"/>
      <point x="840.7777777777778" y="1480.0" type="line"/>
      <point x="540.1111111111111" y="1480.0" type="line"/>
    </contour>
    <contour>
      <point x="318.61111111111114" y="454.5" type="line"/>
      <point x="1061.111111111111" y="454.5" type="line"/>
      <point x="1013.8888888888889" y="627.0555555555555" type="line"/>
      <point x="366.2222222222223" y="627.0555555555555" type="line"/>
    </contour>
    <contour>
      <point x="596.8333333333334" y="1604.3333333333333" type="line"/>
      <point x="784.5" y="1604.3333333333333" type="line"/>
      <point x="606.3888888888889" y="1893.4444444444443" type="line"/>
      <point x="385.4444444444444" y="1893.4444444444443" type="line"/>
    </contour>
  </outline>
</glyph>
<glyph name="Atilde" format="2">
  <advance width="1380.888888888889"/>
  <unicode hex="00C3"/>
  <anchor x="690.6666666666667" y="1520.0" name="_top"/>
  <anchor x="691.0555555555555" y="0.0" name="bottom"/>
  <anchor x="1356.7222222222222" y="0.0" name="ogonek"/>
  <anchor x="690.6666666666667" y="1520.0" name="top"/>
  <outline>
    <contour>
      <point x="24.16666666666666" y="0.0" type="line"/>
      <point x="232.11111111111117" y="0.0" type="line"/>
      <point x="703.3888888888889" y="1383.611111111111" type="line"/>
      <point x="673.9444444444445" y="1383.611111111111" type="line"/>
      <point x="1146.0" y="0.0" type="line"/>
      <point x="1356.7222222222222" y="0.0" type="line"/>
      <point x="840.7777777777778" y="1480.0" type="line"/>
      <point x="540.1111111111111" y="1480.0" type="line"/>
    </contour>
    <contour>
      <point x="318.61111111111114" y="454.5" type="line"/>
      <point x="1061.111111111111" y="454.5" type="line"/>
      <point x="1013.8888888888889" y="627.0555555555555" type="line"/>
      <point x="366.2222222222223" y="627.0555555555555" type="line"/>
    </contour>
    <contour>
      <point x="850.2222222222223" y="1653.8333333333333" type="curve" smooth="yes"/>
      <point x="931.2777777777778" y="1653.8333333333333"/>
      <point x="988.1111111111111" y="1675.8333333333333"/>
      <point x="1032.8333333333335" y="1720.2777777777778" type="curve"/>
      <point x="1032.8333333333335" y="1851.8333333333333" type="line"/>
      <point x="979.7222222222223" y="1804.2222222222222"/>
      <point x="928.2777777777778" y="1781.2222222222222"/>
      <point x="853.3333333333334" y="1781.2222222222222" type="curve" smooth="yes"/>
      <point x="746.9444444444445" y="1781.2222222222222"/>
      <point x="657.5" y="1858.0"/>
      <point x="531.1111111111111" y="1858.0" type="curve" smooth="yes"/>
      <point x="450.05555555555554" y="1858.0"/>
      <point x="393.22222222222223" y="1835.2222222222222"/>
      <point x="348.5" y="1790.7777777777778" type="curve"/>
      <point x="348.5" y="1659.2222222222222" type="line"/>
      <point x="401.6111111111111" y="1706.8333333333333"/>
      <point x="453.05555555555554" y="1729.8333333333333"/>
      <point x="528.0" y="1729.8333333333333" type="curve" smooth="yes"/>
      <point x="634.3888888888889" y="1729.8333333333333"/>
      <point x="723.8333333333334" y="1653.8333333333333"/>
    </contour>
  </outline>
</glyph>
<glyph name="Adieresis" format="2">
  <advance width="1380.888888888889"/>
  <unicode hex="00C4"/>
  <anchor x="690.6666666666667" y="1520.0" name="_top"/>
  <anchor x="691.0555555555555" y="0.0" name="bottom"/>
  <anchor x="1356.7222222222222" y="0.0" name="ogonek"/>
  <anchor x="690.6666666666667" y="1520.0" name="top"/>
  <outline>
    <contour>
      <point x="24.16666666666666" y="0.0" type="line"/>
      <point x="232.11111111111117" y="0.0" type="line"/>
      <point x="703.3888888888889" y="1383.611111111111" type="line"/>
      <point x="673.9444444444445" y="1383.611111111111" type="line"/>
      <point x="1146.0" y="0.0" type="line"/>
      <point x="1356.7222222222222" y="0.0" type="line"/>
      <point x="840.7777777777778" y="1480.0" type="line"/>
      <point x="540.1111111111111" y="1480.0" type="line"/>
    </contour>
    <contour>
      <point x="318.61111111111114" y="454.5" type="line"/>
      <point x="1061.111111111111" y="454.5" type="line"/>
      <point x="1013.8888888888889" y="627.0555555555555" type="line"/>
      <point x="366.2222222222223" y="627.0555555555555" type="line"/>
    </contour>
    <contour>
      <point x="931.2777777777778" y="1643.3333333333333" type="curve" smooth="yes"/>
      <point x="1010.0555555555557" y="1643.3333333333333"/>
      <point x="1053.9444444444446" y="1683.6666666666667"/>
      <point x="1053.9444444444446" y="1751.2222222222222" type="curve" smooth="yes"/>
      <point x="1053.9444444444446" y="1818.7777777777778"/>
      <point x="1010.0555555555557" y="1860.3333333333333"/>
      <point x="931.2777777777778" y="1860.3333333333333" type="curve" smooth="yes"/>
      <point x="852.5" y="1860.3333333333333"/>
      <point x="808.6111111111111" y="1818.7777777777778"/>
      <point x="808.6111111111111" y="1751.2222222222222" type="curve" smooth="yes"/>
      <point x="808.6111111111111" y="1683.6666666666667"/>
      <point x="852.5" y="1643.3333333333333"/>
    </contour>
    <contour>
      <point x="450.05555555555554" y="1643.3333333333333" type="curve" smooth="yes"/>
      <point x="528.8333333333334" y="1643.3333333333333"/>
      <point x="572.7222222222223" y="1683.6666666666667"/>
      <point x="572.7222222222223" y="1751.2222222222222" type="curve" smooth="yes"/>
      <point x="572.7222222222223" y="1818.7777777777778"/>
      <point x="528.8333333333334" y="1860.3333333333333"/>
      <point x="450.05555555555554" y="1860.3333333333333" type="curve" smooth="yes"/>
      <point x="371.27777777777777" y="1860.3333333333333"/>
      <point x="327.38888888888886" y="1818.7777777777778"/>
      <point x="327.38888888888886" y="1751.2222222222222" type="curve" smooth="yes"/>
      <point x="327.38888888888886" y="1683.6666666666667"/>
      <point x="371.27777777777777" y="1643.3333333333333"/>
    </contour>
  </outline>
</glyph>
<glyph name="Aring" format="2">
  <advance width="1380.888888888889"/>
  <unicode hex="00C5"/>
  <anchor x="692.5" y="1410.0" name="_top"/>
  <anchor x="691.0555555555555" y="0.0" name="bottom"/>
  <anchor x="1356.7222222222222" y="0.0" name="ogonek"/>
  <anchor x="690.6666666666667" y="1520.0" name="top"/>
  <outline>
    <contour>
      <point x="24.16666666666666" y="0.0" type="line"/>
      <point x="232.11111111111117" y="0.0" type="line"/>
      <point x="703.3888888888889" y="1383.611111111111" type="line"/>
      <point x="673.9444444444445" y="1383.611111111111" type="line"/>
      <point x="1146.0" y="0.0" type="line"/>
      <point x="1356.7222222222222" y="0.0" type="line"/>
      <point x="840.7777777777778" y="1480.0" type="line"/>
      <point x="540.1111111111111" y="1480.0" type="line"/>
    </contour>
    <contour>
      <point x="318.61111111111114" y="454.5" type="line"/>
      <point x="1061.111111111111" y="454.5" type="line"/>
      <point x="1013.8888888888889" y="627.0555555555555" type="line"/>
      <point x="366.2222222222223" y="627.0555555555555" type="line"/>
    </contour>
    <contour>
      <point x="692.5" y="1485.0555555555557" type="curve" smooth="yes"/>
      <point x="808.6111111111111" y="1485.0555555555557"/>
      <point x="893.6111111111111" y="1568.5"/>
      <point x="893.6111111111111" y="1683.0555555555557" type="curve" smooth="yes"/>
      <point x="893.6111111111111" y="1797.611111111111"/>
      <point x="808.6111111111111" y="1881.0555555555557"/>
      <point x="692.5" y="1881.0555555555557" type="curve" smooth="yes"/>
      <point x="576.3888888888889" y="1881.0555555555557"/>
      <point x="491.3888888888889" y="1797.611111111111"/>
      <point x="491.3888888888889" y="1683.0555555555557" type="curve" smooth="yes"/>
      <point x="491.3888888888889" y="1568.5"/>
      <point x="576.3888888888889" y="1485.0555555555557"/>
    </contour>
    <contour>
      <point x="692.5" y="1570.5" type="curve" smooth="yes"/>
      <point x="628.1666666666667" y="1570.5"/>
      <point x="582.7222222222223" y="1613.5"/>
      <point x="582.7222222222223" y="1683.0555555555557" type="curve" smooth="yes"/>
      <point x="582.7222222222223" y="1752.611111111111"/>
      <point x="628.1666666666667" y="1795.611111111111"/>
      <point x="692.5" y="1795.611111111111" type="curve" smooth="yes"/>
      <point x="756.8333333333334" y="1795.611111111111"/>
      <point x="802.2777777777778" y="1752.611111111111"/>
      <point x="802.2777777777778" y="1683.0555555555557" type="curve" smooth="yes"/>
      <point x="802.2777777777778" y="1613.5"/>
      <point x="756.8333333333334" y="1570.5"/>
    </contour>
  </outline>
</glyph>
<glyph name="AE" format="2">
  <advance width="1893.8333333333335"/>
  <unicode hex="00C6"/>
  <anchor x="1007.0" y="0.0" name="bottom"/>
  <anchor x="951.3888888888889" y="1520.0" name="top"/>
  <outline>
    <contour>
      <point x="24.16666666666666" y="0.0" type="line"/>
      <point x="233.27777777777783" y="0.0" type="line"/>
      <point x="688.8333333333334" y="1306.6666666666665" type="line"/>
      <point x="945.6666666666667" y="1306.6666666666665" type="line"/>
      <point x="946.8888888888889" y="1480.0" type="line"/>
      <point x="546.8333333333333" y="1480.0" type="line"/>
    </contour>
    <contour>
      <point x="322.2777777777778" y="454.1111111111111" type="line"/>
      <point x="980.0555555555557" y="454.1111111111111" type="line"/>
      <point x="980.0555555555557" y="627.4444444444445" type="line"/>
      <point x="369.8888888888889" y="627.4444444444445" type="line"/>
    </contour>
    <contour>
      <point x="951.0555555555555" y="0.0" type="line"/>
      <point x="1822.4444444444446" y="0.0" type="line"/>
      <point x="1822.4444444444446" y="173.33333333333337" type="line"/>
      <point x="1146.3333333333335" y="173.33333333333337" type="line"/>
      <point x="1063.7777777777778" y="1306.6666666666665" type="line"/>
      <point x="1812.4444444444446" y="1306.6666666666665" type="line"/>
      <point x="1812.4444444444446" y="1480.0" type="line"/>
      <point x="847.7222222222222" y="1480.0" type="line"/>
    </contour>
    <contour>
      <point x="1013.9444444444445" y="672.0" type="line"/>
      <point x="1713.5555555555557" y="672.0" type="line"/>
      <point x="1713.5555555555557" y="845.3333333333334" type="line"/>
      <point x="1013.9444444444445" y="845.3333333333334" type="line"/>
    </contour>
  </outline>
</glyph>
<glyph name="Ccedilla" format="2">
  <advance width="1176.4444444444446"/>
  <unicode hex="00C7"/>
  <anchor x="725.9444444444445" y="0.0" name="_bottom"/>
  <anchor x="725.9444444444445" y="0.0" name="bottom"/>
  <anchor x="716.7777777777778" y="1520.0" name="top"/>
  <outline>
    <contour>
      <point x="799.0" y="-18.77777777777778" type="curve" smooth="yes"/>
      <point x="921.1111111111111" y="-18.77777777777778"/>
      <point x="1036.3333333333333" y="0.6666666666666656"/>
      <point x="1133.8333333333333" y="33.77777777777777" type="curve"/>
      <point x="1133.8333333333333" y="212.22222222222229" type="line"/>
      <point x="1020.8888888888889" y="176.00000000000006"/>
      <point x="922.7222222222223" y="159.61111111111114"/>
      <point x="816.1111111111111" y="159.61111111111114" type="curve" smooth="yes"/>
      <point x="500.2222222222223" y="159.61111111111114"/>
      <point x="319.50000000000006" y="303.8888888888889"/>
      <point x="319.50000000000006" y="741.2222222222222" type="curve" smooth="yes"/>
      <point x="319.50000000000006" y="1163.7777777777778"/>
      <point x="495.66666666666674" y="1320.388888888889"/>
      <point x="826.7222222222223" y="1320.388888888889" type="curve" smooth="yes"/>
      <point x="932.8333333333334" y="1320.388888888889"/>
      <point x="1032.7777777777778" y="1307.5555555555554"/>
      <point x="1133.8333333333333" y="1279.5555555555554" type="curve"/>
      <point x="1133.8333333333333" y="1458.0" type="line"/>
      <point x="1031.7777777777778" y="1485.111111111111"/>
      <point x="927.8333333333334" y="1498.7777777777778"/>
      <point x="815.0" y="1498.7777777777778" type="curve" smooth="yes"/>
      <point x="363.44444444444446" y="1498.7777777777778"/>
      <point x="98.94444444444444" y="1264.6666666666667"/>
      <point x="98.94444444444444" y="737.2222222222222" type="curve" smooth="yes"/>
      <point x="98.94444444444444" y="189.44444444444446"/>
      <point x="366.05555555555554" y="-18.77777777777778"/>
    </contour>
    <contour>
      <point x="714.2222222222222" y="-423.33333333333337" type="curve" smooth="yes"/>
      <point x="867.1111111111111" y="-423.33333333333337"/>
      <point x="950.3333333333334" y="-363.6666666666667"/>
      <point x="950.3333333333334" y="-257.94444444444446" type="curve" smooth="yes"/>
      <point x="950.3333333333334" y="-152.22222222222223"/>
      <point x="867.8888888888889" y="-95.27777777777777"/>
      <point x="726.5555555555555" y="-95.27777777777777" type="curve"/>
      <point x="770.2777777777778" y="-134.22222222222223" type="line"/>
      <point x="770.2777777777778" y="20.0" type="line"/>
      <point x="660.6111111111111" y="20.0" type="line"/>
      <point x="660.6111111111111" y="-170.61111111111111" type="line"/>
      <point x="704.0555555555555" y="-170.61111111111111" type="line" smooth="yes"/>
      <point x="785.7777777777778" y="-170.61111111111111"/>
      <point x="832.5" y="-195.11111111111111"/>
      <point x="832.5" y="-252.11111111111111" type="curve" smooth="yes"/>
      <point x="832.5" y="-308.72222222222223"/>
      <point x="786.5555555555555" y="-332.05555555555554"/>
      <point x="705.6666666666666" y="-332.05555555555554" type="curve" smooth="yes"/>
      <point x="648.8333333333334" y="-332.05555555555554"/>
      <point x="586.4444444444445" y="-321.8333333333333"/>
      <point x="518.6666666666666" y="-294.8888888888889" type="curve"/>
      <point x="518.6666666666666" y="-388.22222222222223" type="line"/>
      <point x="576.2222222222222" y="-411.11111111111114"/>
      <point x="645.0555555555555" y="-423.33333333333337"/>
    </contour>
  </outline>
</glyph>
<glyph name="Ecircumflex" format="2">
  <advance width="1192.0"/>
  <unicode hex="00CA"/>
  <anchor x="656.5555555555555" y="1520.0" name="_top"/>
  <anchor x="657.7777777777778" y="0.0" name="bottom"/>
  <anchor x="1036.7222222222222" y="0.0" name="ogonek"/>
  <anchor x="656.5555555555555" y="1520.0" name="top"/>
  <anchor x="39.833333333333336" y="1480.0" name="topleft"/>
  <outline>
    <contour>
      <point x="158.5" y="0.0" type="line"/>
      <point x="1120.611111111111" y="0.0" type="line"/>
      <point x="1120.611111111111" y="173.33333333333337" type="line"/>
      <point x="366.50000000000006" y="173.33333333333337" type="line"/>
      <point x="366.50000000000006" y="1306.6666666666665" type="line"/>
      <point x="1110.611111111111" y="1306.6666666666665" type="line"/>
      <point x="1110.611111111111" y="1480.0" type="line"/>
      <point x="158.5" y="1480.0" type="line"/>
    </contour>
    <contour>
      <point x="287.44444444444446" y="672.0" type="line"/>
      <point x="1011.7222222222223" y="672.0" type="line"/>
      <point x="1011.7222222222223" y="845.3333333333334" type="line"/>
      <point x="287.44444444444446" y="845.3333333333334" type="line"/>
    </contour>
    <contour>
      <point x="315.9444444444444" y="1604.3333333333333" type="line"/>
      <point x="486.0" y="1604.3333333333333" type="line"/>
      <point x="676.1666666666667" y="1832.5555555555557" type="line"/>
      <point x="636.9444444444445" y="1832.5555555555557" type="line"/>
      <point x="827.1111111111111" y="1604.3333333333333" type="line"/>
      <point x="997.1666666666667" y="1604.3333333333333" type="line"/>
      <point x="748.6111111111111" y="1893.4444444444443" type="line"/>
      <point x="564.5" y="1893.4444444444443" type="line"/>
    </contour>
  </outline>
</glyph>
<glyph name="Edieresis" format="2">
  <advance width="1192.0"/>
  <unicode hex="00CB"/>
  <anchor x="656.5555555555555" y="1520.0" name="_top"/>
  <anchor x="657.7777777777778" y="0.0" name="bottom"/>
  <anchor x="1036.7222222222222" y="0.0" name="ogonek"/>
  <anchor x="656.5555555555555" y="1520.0" name="top"/>
  <anchor x="39.833333333333336" y="1480.0" name="topleft"/>
  <outline>
    <contour>
      <point x="158.5" y="0.0" type="line"/>
      <point x="1120.611111111111" y="0.0" type="line"/>
      <point x="1120.611111111111" y="173.33333333333337" type="line"/>
      <point x="366.50000000000006" y="173.33333333333337" type="line"/>
      <point x="366.50000000000006" y="1306.6666666666665" type="line"/>
      <point x="1110.611111111111" y="1306.6666666666665" type="line"/>
      <point x="1110.611111111111" y="1480.0" type="line"/>
      <point x="158.5" y="1480.0" type="line"/>
    </contour>
    <contour>
      <point x="287.44444444444446" y="672.0" type="line"/>
      <point x="1011.7222222222223" y="672.0" type="line"/>
      <point x="1011.7222222222223" y="845.3333333333334" type="line"/>
      <point x="287.44444444444446" y="845.3333333333334" type="line"/>
    </contour>
    <contour>
      <point x="897.1666666666667" y="1643.3333333333333" type="curve" smooth="yes"/>
      <point x="975.9444444444445" y="1643.3333333333333"/>
      <point x="1019.8333333333334" y="1683.6666666666667"/>
      <point x="1019.8333333333334" y="1751.2222222222222" type="curve" smooth="yes"/>
      <point x="1019.8333333333334" y="1818.7777777777778"/>
      <point x="975.9444444444445" y="1860.3333333333333"/>
      <point x="897.1666666666667" y="1860.3333333333333" type="curve" smooth="yes"/>
      <point x="818.3888888888889" y="1860.3333333333333"/>
      <point x="774.5" y="1818.7777777777778"/>
      <point x="774.5" y="1751.2222222222222" type="curve" smooth="yes"/>
      <point x="774.5" y="1683.6666666666667"/>
      <point x="818.3888888888889" y="1643.3333333333333"/>
    </contour>
    <contour>
      <point x="415.94444444444446" y="1643.3333333333333" type="curve" smooth="yes"/>
      <point x="494.72222222222223" y="1643.3333333333333"/>
      <point x="538.6111111111111" y="1683.6666666666667"/>
      <point x="538.6111111111111" y="1751.2222222222222" type="curve" smooth="yes"/>
      <point x="538.6111111111111" y="1818.7777777777778"/>
      <point x="494.72222222222223" y="1860.3333333333333"/>
      <point x="415.94444444444446" y="1860.3333333333333" type="curve" smooth="yes"/>
      <point x="337.16666666666663" y="1860.3333333333333"/>
      <point x="293.27777777777777" y="1818.7777777777778"/>
      <point x="293.27777777777777" y="1751.2222222222222" type="curve" smooth="yes"/>
      <point x="293.27777777777777" y="1683.6666666666667"/>
      <point x="337.16666666666663" y="1643.3333333333333"/>
    </contour>
  </outline>
</glyph>
<glyph name="Igrave" format="2">
  <advance width="527.3333333333334"/>
  <unicode hex="00CC"/>
  <anchor x="263.6666666666667" y="1520.0" name="_top"/>
  <anchor x="263.2777777777778" y="0.0" name="bottom"/>
  <anchor x="368.83333333333337" y="0.0" name="ogonek"/>
  <anchor x="263.6666666666667" y="1520.0" name="top"/>
  <outline>
    <contour>
      <point x="158.5" y="0.0" type="line"/>
      <point x="368.83333333333337" y="0.0" type="line"/>
      <point x="368.83333333333337" y="1480.0" type="line"/>
      <point x="158.5" y="1480.0" type="line"/>
    </contour>
    <contour>
      <point x="169.83333333333331" y="1604.3333333333333" type="line"/>
      <point x="357.50000000000006" y="1604.3333333333333" type="line"/>
      <point x="179.3888888888889" y="1893.4444444444443" type="line"/>
      <point x="-41.55555555555557" y="1893.4444444444443" type="line"/>
    </contour>
  </outline>
</glyph>
<glyph name="Iacute" format="2">
  <advance width="527.3333333333334"/>
  <unicode hex="00CD"/>
  <anchor x="263.6666666666667" y="1520.0" name="_top"/>
  <anchor x="263.2777777777778" y="0.0" name="bottom"/>
  <anchor x="368.83333333333337" y="0.0" name="ogonek"/>
  <anchor x="263.6666666666667" y="1520.0" name="top"/>
  <outline>
    <contour>
      <point x="158.5" y="0.0" type="line"/>
      <point x="368.83333333333337" y="0.0" type="line"/>
      <point x="368.83333333333337" y="1480.0" type="line"/>
      <point x="158.5" y="1480.0" type="line"/>
    </contour>
    <contour>
      <point x="169.05555555555554" y="1604.3333333333333" type="line"/>
      <point x="356.7222222222223" y="1604.3333333333333" type="line"/>
      <point x="568.1111111111112" y="1893.4444444444443" type="line"/>
      <point x="347.16666666666663" y="1893.4444444444443" type="line"/>
    </contour>
  </outline>
</glyph>
<glyph name="Icircumflex" format="2">
  <advance width="527.3333333333334"/>
  <unicode hex="00CE"/>
  <anchor x="263.6666666666667" y="1520.0" name="_top"/>
  <anchor x="263.2777777777778" y="0.0" name="bottom"/>
  <anchor x="368.83333333333337" y="0.0" name="ogonek"/>
  <anchor x="263.6666666666667" y="1520.0" name="top"/>
  <outline>
    <contour>
      <point x="158.5" y="0.0" type="line"/>
      <point x="368.83333333333337" y="0.0" type="line"/>
      <point x="368.83333333333337" y="1480.0" type="line"/>
      <point x="158.5" y="1480.0" type="line"/>
    </contour>
    <contour>
      <point x="-76.94444444444446" y="1604.3333333333333" type="line"/>
      <point x="93.11111111111114" y="1604.3333333333333" type="line"/>
      <point x="283.2777777777778" y="1832.5555555555557" type="line"/>
      <point x="244.05555555555557" y="1832.5555555555557" type="line"/>
      <point x="434.22222222222223" y="1604.3333333333333" type="line"/>
      <point x="604.2777777777778" y="1604.3333333333333" type="line"/>
      <point x="355.7222222222223" y="1893.4444444444443" type="line"/>
      <point x="171.61111111111111" y="1893.4444444444443" type="line"/>
    </contour>
  </outline>
</glyph>
<glyph name="Idieresis" format="2">
  <advance width="527.3333333333334"/>
  <unicode hex="00CF"/>
  <anchor x="263.6666666666667" y="1520.0" name="_top"/>
  <anchor x="263.2777777777778" y="0.0" name="bottom"/>
  <anchor x="368.83333333333337" y="0.0" name="ogonek"/>
  <anchor x="263.6666666666667" y="1520.0" name="top"/>
  <outline>
    <contour>
      <point x="158.5" y="0.0" type="line"/>
      <point x="368.83333333333337" y="0.0" type="line"/>
      <point x="368.83333333333337" y="1480.0" type="line"/>
      <point x="158.5" y="1480.0" type="line"/>
    </contour>
    <contour>
      <point x="504.2777777777778" y="1643.3333333333333" type="curve" smooth="yes"/>
      <point x="583.0555555555557" y="1643.3333333333333"/>
      <point x="626.9444444444446" y="1683.6666666666667"/>
      <point x="626.9444444444446" y="1751.2222222222222" type="curve" smooth="yes"/>
      <point x="626.9444444444446" y="1818.7777777777778"/>
      <point x="583.0555555555557" y="1860.3333333333333"/>
      <point x="504.2777777777778" y="1860.3333333333333" type="curve" smooth="yes"/>
      <point x="425.5" y="1860.3333333333333"/>
      <point x="381.6111111111111" y="1818.7777777777778"/>
      <point x="381.6111111111111" y="1751.2222222222222" type="curve" smooth="yes"/>
      <point x="381.6111111111111" y="1683.6666666666667"/>
      <point x="425.5" y="1643.3333333333333"/>
    </contour>
    <contour>
      <point x="23.055555555555564" y="1643.3333333333333" type="curve" smooth="yes"/>
      <point x="101.83333333333336" y="1643.3333333333333"/>
      <point x="145.72222222222226" y="1683.6666666666667"/>
      <point x="145.72222222222226" y="1751.2222222222222" type="curve" smooth="yes"/>
      <point x="145.72222222222226" y="1818.7777777777778"/>
      <point x="101.83333333333336" y="1860.3333333333333"/>
      <point x="23.055555555555564" y="1860.3333333333333" type="curve" smooth="yes"/>
      <point x="-55.722222222222236" y="1860.3333333333333"/>
      <point x="-99.61111111111111" y="1818.7777777777778"/>
      <point x="-99.61111111111111" y="1751.2222222222222" type="curve" smooth="yes"/>
      <point x="-99.61111111111111" y="1683.6666666666667"/>
      <point x="-55.722222222222236" y="1643.3333333333333"/>
    </contour>
  </outline>
</glyph>
<glyph name="Eth" format="2">
  <advance width="1429.7222222222222"/>
  <unicode hex="00D0"/>
  <anchor x="158.5" y="762.0" name="_stroke"/>
  <anchor x="651.8333333333334" y="0.0" name="bottom"/>
  <anchor x="709.1111111111111" y="740.0" name="center"/>
  <anchor x="158.5" y="762.0" name="stroke"/>
  <anchor x="644.0555555555555" y="1520.0" name="top"/>
  <outline>
    <contour>
      <point x="525.1111111111111" y="-12.722222222222223" type="curve" smooth="yes"/>
      <point x="1060.2777777777778" y="-12.722222222222223"/>
      <point x="1330.7777777777778" y="215.38888888888889"/>
      <point x="1330.7777777777778" y="740.0" type="curve" smooth="yes"/>
      <point x="1330.7777777777778" y="1254.2777777777778"/>
      <point x="1072.0" y="1495.1666666666667"/>
      <point x="569.4444444444445" y="1495.1666666666667" type="curve" smooth="yes"/>
      <point x="434.22222222222223" y="1495.1666666666667"/>
      <point x="283.66666666666663" y="1479.2777777777778"/>
      <point x="158.5" y="1453.2222222222222" type="curve"/>
      <point x="158.5" y="9.222222222222221" type="line"/>
      <point x="291.77777777777777" y="-6.555555555555556"/>
      <point x="410.0" y="-12.722222222222223"/>
    </contour>
    <contour>
      <point x="572.6111111111111" y="162.9444444444445" type="curve" smooth="yes"/>
      <point x="495.33333333333337" y="162.9444444444445"/>
      <point x="433.16666666666674" y="166.00000000000006"/>
      <point x="368.83333333333337" y="173.88888888888894" type="curve"/>
      <point x="368.83333333333337" y="1302.1666666666665" type="line"/>
      <point x="439.50000000000006" y="1313.4444444444443"/>
      <point x="514.2777777777778" y="1320.2777777777778"/>
      <point x="580.0" y="1320.2777777777778" type="curve" smooth="yes"/>
      <point x="936.7222222222222" y="1320.2777777777778"/>
      <point x="1114.111111111111" y="1149.111111111111"/>
      <point x="1114.111111111111" y="740.7777777777778" type="curve" smooth="yes"/>
      <point x="1114.111111111111" y="328.2222222222223"/>
      <point x="934.7222222222222" y="162.9444444444445"/>
    </contour>
    <contour>
      <point x="2.7777777777777786" y="691.1666666666666" type="line"/>
      <point x="682.6666666666667" y="691.1666666666666" type="line"/>
      <point x="682.6666666666667" y="832.8333333333334" type="line"/>
      <point x="2.7777777777777786" y="832.8333333333334" type="line"/>
    </contour>
  </outline>
</glyph>
<glyph name="Ntilde" format="2">
  <advance width="1491.1666666666667"/>
  <unicode hex="00D1"/>
  <anchor x="745.8888888888889" y="1520.0" name="_top"/>
  <anchor x="745.8888888888889" y="0.0" name="bottom"/>
  <anchor x="745.8888888888889" y="1520.0" name="top"/>
  <outline>
    <contour>
      <point x="158.5" y="0.0" type="line"/>
      <point x="357.11111111111114" y="0.0" type="line"/>
      <point x="357.11111111111114" y="1230.2222222222222" type="line"/>
      <point x="312.5" y="1230.2222222222222" type="line"/>
      <point x="1118.4444444444443" y="0.0" type="line"/>
      <point x="1332.6666666666667" y="0.0" type="line"/>
      <point x="1332.6666666666667" y="1480.0" type="line"/>
      <point x="1134.0555555555554" y="1480.0" type="line"/>
      <point x="1134.0555555555554" y="249.77777777777786" type="line"/>
      <point x="1178.6666666666667" y="249.77777777777786" type="line"/>
      <point x="372.7222222222223" y="1480.0" type="line"/>
      <point x="158.5" y="1480.0" type="line"/>
    </contour>
    <contour>
      <point x="905.4444444444445" y="1653.8333333333333" type="curve" smooth="yes"/>
      <point x="986.5" y="1653.8333333333333"/>
      <point x="1043.3333333333333" y="1675.8333333333333"/>
      <point x="1088.0555555555557" y="1720.2777777777778" type="curve"/>
      <point x="1088.0555555555557" y="1851.8333333333333" type="line"/>
      <point x="1034.9444444444443" y="1804.2222222222222"/>
      <point x="983.5" y="1781.2222222222222"/>
      <point x="908.5555555555555" y="1781.2222222222222" type="curve" smooth="yes"/>
      <point x="802.1666666666667" y="1781.2222222222222"/>
      <point x="712.7222222222222" y="1858.0"/>
      <point x="586.3333333333334" y="1858.0" type="curve" smooth="yes"/>
      <point x="505.27777777777777" y="1858.0"/>
      <point x="448.44444444444446" y="1835.2222222222222"/>
      <point x="403.72222222222223" y="1790.7777777777778" type="curve"/>
      <point x="403.72222222222223" y="1659.2222222222222" type="line"/>
      <point x="456.8333333333333" y="1706.8333333333333"/>
      <point x="508.27777777777777" y="1729.8333333333333"/>
      <point x="583.2222222222222" y="1729.8333333333333" type="curve" smooth="yes"/>
      <point x="689.6111111111111" y="1729.8333333333333"/>
      <point x="779.0555555555555" y="1653.8333333333333"/>
    </contour>
  </outline>
</glyph>
<glyph name="Otilde" format="2">
  <advance width="1475.3333333333335"/>
  <unicode hex="00D5"/>
  <anchor x="737.6666666666667" y="1520.0" name="_top"/>
  <anchor x="737.6666666666667" y="0.0" name="bottom"/>
  <anchor x="737.6666666666667" y="740.0" name="center"/>
  <anchor x="903.5" y="0.0" name="ogonek"/>
  <anchor x="737.6666666666667" y="1520.0" name="top"/>
  <anchor x="46.72222222222222" y="1480.0" name="topleft"/>
  <anchor x="915.3333333333334" y="1480.0" name="topright"/>
  <outline>
    <contour>
      <point x="737.6666666666667" y="-18.77777777777778" type="curve" smooth="yes"/>
      <point x="1120.7222222222222" y="-18.77777777777778"/>
      <point x="1376.388888888889" y="212.11111111111111"/>
      <point x="1376.388888888889" y="740.0" type="curve" smooth="yes"/>
      <point x="1376.388888888889" y="1267.888888888889"/>
      <point x="1122.9444444444446" y="1498.7777777777778"/>
      <point x="737.6666666666667" y="1498.7777777777778" type="curve" smooth="yes"/>
      <point x="354.22222222222223" y="1498.7777777777778"/>
      <point x="98.94444444444444" y="1268.6666666666667"/>
      <point x="98.94444444444444" y="740.0" type="curve" smooth="yes"/>
      <point x="98.94444444444444" y="211.33333333333334"/>
      <point x="352.77777777777777" y="-18.77777777777778"/>
    </contour>
    <contour>
      <point x="737.6666666666667" y="156.72222222222229" type="curve" smooth="yes"/>
      <point x="480.2222222222223" y="156.72222222222229"/>
      <point x="315.6111111111112" y="310.7222222222223"/>
      <point x="315.6111111111112" y="745.5555555555555" type="curve" smooth="yes"/>
      <point x="315.6111111111112" y="1169.2777777777778"/>
      <point x="481.3888888888889" y="1323.2777777777778"/>
      <point x="737.6666666666667" y="1323.2777777777778" type="curve" smooth="yes"/>
      <point x="993.9444444444445" y="1323.2777777777778"/>
      <point x="1159.7222222222222" y="1168.111111111111"/>
      <point x="1159.7222222222222" y="734.4444444444445" type="curve" smooth="yes"/>
      <point x="1159.7222222222222" y="311.8888888888889"/>
      <point x="995.1111111111111" y="156.72222222222229"/>
    </contour>
    <contour>
      <point x="897.2222222222222" y="1653.8333333333333" type="curve" smooth="yes"/>
      <point x="978.2777777777778" y="1653.8333333333333"/>
      <point x="1035.111111111111" y="1675.8333333333333"/>
      <point x="1079.8333333333335" y="1720.2777777777778" type="curve"/>
      <point x="1079.8333333333335" y="1851.8333333333333" type="line"/>
      <point x="1026.7222222222222" y="1804.2222222222222"/>
      <point x="975.2777777777778" y="1781.2222222222222"/>
      <point x="900.3333333333334" y="1781.2222222222222" type="curve" smooth="yes"/>
      <point x="793.9444444444445" y="1781.2222222222222"/>
      <point x="704.5" y="1858.0"/>
      <point x="578.1111111111111" y="1858.0" type="curve" smooth="yes"/>
      <point x="497.05555555555554" y="1858.0"/>
      <point x="440.22222222222223" y="1835.2222222222222"/>
      <point x="395.5" y="1790.7777777777778" type="curve"/>
      <point x="395.5" y="1659.2222222222222" type="line"/>
      <point x="448.6111111111111" y="1706.8333333333333"/>
      <point x="500.05555555555554" y="1729.8333333333333"/>
      <point x="575.0" y="1729.8333333333333" type="curve" smooth="yes"/>
      <point x="681.3888888888889" y="1729.8333333333333"/>
      <point x="770.8333333333334" y="1653.8333333333333"/>
    </contour>
  </outline>
</glyph>
<glyph name="multiply" format="2">
  <advance width="1011.7777777777778"/>
  <unicode hex="00D7"/>
  <outline>
    <contour>
      <point x="223.55555555555557" y="362.88888888888886" type="line"/>
      <point x="505.8888888888889" y="645.2222222222222" type="line"/>
      <point x="788.2222222222222" y="362.88888888888886" type="line"/>
      <point x="903.0" y="477.6666666666667" type="line"/>
      <point x="620.6666666666667" y="760.0" type="line"/>
      <point x="903.0" y="1042.3333333333333" type="line"/>
      <point x="788.2222222222222" y="1157.111111111111" type="line"/>
      <point x="505.8888888888889" y="874.7777777777778" type="line"/>
      <point x="223.55555555555557" y="1157.111111111111" type="line"/>
      <point x="108.77777777777777" y="1042.3333333333333" type="line"/>
      <point x="391.1111111111111" y="760.0" type="line"/>
      <point x="108.77777777777777" y="477.6666666666667" type="line"/>
    </contour>
  </outline>
</glyph>
<glyph name="Oslash" format="2">
  <advance width="1475.3333333333335"/>
  <unicode hex="00D8"/>
  <anchor x="737.6666666666667" y="740.0" name="_center"/>
  <anchor x="736.0555555555557" y="0.0" name="bottom"/>
  <anchor x="737.6666666666667" y="740.0" name="center"/>
  <anchor x="903.5" y="0.0" name="ogonek"/>
  <anchor x="734.8333333333334" y="1520.0" name="top"/>
  <anchor x="46.72222222222222" y="1480.0" name="topleft"/>
  <anchor x="915.3333333333334" y="1480.0" name="topright"/>
  <outline>
    <contour>
      <point x="737.6666666666667" y="-18.77777777777778" type="curve" smooth="yes"/>
      <point x="1120.7222222222222" y="-18.77777777777778"/>
      <point x="1376.388888888889" y="212.11111111111111"/>
      <point x="1376.388888888889" y="740.0" type="curve" smooth="yes"/>
      <point x="1376.388888888889" y="1267.888888888889"/>
      <point x="1122.9444444444446" y="1498.7777777777778"/>
      <point x="737.6666666666667" y="1498.7777777777778" type="curve" smooth="yes"/>
      <point x="354.22222222222223" y="1498.7777777777778"/>
      <point x="98.94444444444444" y="1268.6666666666667"/>
      <point x="98.94444444444444" y="740.0" type="curve" smooth="yes"/>
      <point x="98.94444444444444" y="211.33333333333334"/>
      <point x="352.77777777777777" y="-18.77777777777778"/>
    </contour>
    <contour>
      <point x="737.6666666666667" y="156.72222222222229" type="curve" smooth="yes"/>
      <point x="480.2222222222223" y="156.72222222222229"/>
      <point x="315.6111111111112" y="310.7222222222223"/>
      <point x="315.6111111111112" y="745.5555555555555" type="curve" smooth="yes"/>
      <point x="315.6111111111112" y="1169.2777777777778"/>
      <point x="481.3888888888889" y="1323.2777777777778"/>
      <point x="737.6666666666667" y="1323.2777777777778" type="curve" smooth="yes"/>
      <point x="993.9444444444445" y="1323.2777777777778"/>
      <point x="1159.7222222222222" y="1168.111111111111"/>
      <point x="1159.7222222222222" y="734.4444444444445" type="curve" smooth="yes"/>
      <point x="1159.7222222222222" y="311.8888888888889"/>
      <point x="995.1111111111111" y="156.72222222222229"/>
    </contour>
    <contour>
      <point x="231.61111111111114" y="-33.8888888888889" type="line"/>
      <point x="1340.611111111111" y="1439.7777777777778" type="line"/>
      <point x="1243.7222222222222" y="1513.888888888889" type="line"/>
      <point x="134.72222222222223" y="40.22222222222223" type="line"/>
    </contour>
  </outline>
</glyph>
<glyph name="Ucircumflex" format="2">
  <advance width="1440.0555555555557"/>
  <unicode hex="00DB"/>
  <anchor x="722.3888888888889" y="1520.0" name="_top"/>
  <anchor x="722.3888888888889" y="0.0" name="bottom"/>
  <anchor x="904.0555555555555" y="1.2222222222222219" name="ogonek"/>
  <anchor x="722.3888888888889" y="1520.0" name="top"/>
  <anchor x="1096.0" y="1480.0" name="topright"/>
  <outline>
    <contour>
      <point x="722.3888888888889" y="-18.77777777777778" type="curve" smooth="yes"/>
      <point x="1113.7222222222222" y="-18.77777777777778"/>
      <point x="1288.7777777777778" y="170.22222222222223"/>
      <point x="1288.7777777777778" y="575.6666666666667" type="curve" smooth="yes"/>
      <point x="1288.7777777777778" y="1480.0" type="line"/>
      <point x="1082.7777777777778" y="1480.0" type="line"/>
      <point x="1082.7777777777778" y="553.6111111111111" type="line" smooth="yes"/>
      <point x="1082.7777777777778" y="278.0"/>
      <point x="969.4444444444445" y="158.4444444444445"/>
      <point x="722.3888888888889" y="158.4444444444445" type="curve" smooth="yes"/>
      <point x="475.33333333333337" y="158.4444444444445"/>
      <point x="361.6111111111112" y="278.0"/>
      <point x="361.6111111111112" y="553.6111111111111" type="curve" smooth="yes"/>
      <point x="361.6111111111112" y="1480.0" type="line"/>
      <point x="151.27777777777777" y="1480.0" type="line"/>
      <point x="151.27777777777777" y="575.6666666666667" type="line" smooth="yes"/>
      <point x="151.27777777777777" y="170.22222222222223"/>
      <point x="328.3333333333333" y="-18.77777777777778"/>
    </contour>
    <contour>
      <point x="381.77777777777777" y="1604.3333333333333" type="line"/>
      <point x="551.8333333333334" y="1604.3333333333333" type="line"/>
      <point x="742.0" y="1832.5555555555557" type="line"/>
      <point x="702.7777777777778" y="1832.5555555555557" type="line"/>
      <point x="892.9444444444445" y="1604.3333333333333" type="line"/>
      <point x="1063.0" y="1604.3333333333333" type="line"/>
      <point x="814.4444444444445" y="1893.4444444444443" type="line"/>
      <point x="630.3333333333333" y="1893.4444444444443" type="line"/>
    </contour>
  </outline>
</glyph>
<glyph name="Thorn" format="2">
  <advance width="1267.5"/>
  <unicode hex="00DE"/>
  <outline>
    <contour>
      <point x="158.5" y="0.0" type="line"/>
      <point x="368.83333333333337" y="0.0" type="line"/>
      <point x="368.83333333333337" y="253.83333333333331" type="line"/>
      <point x="431.11111111111114" y="248.94444444444443"/>
      <point x="485.44444444444446" y="246.33333333333331"/>
      <point x="549.6666666666667" y="246.33333333333331" type="curve" smooth="yes"/>
      <point x="972.4444444444445" y="246.33333333333331"/>
      <point x="1172.888888888889" y="424.38888888888886"/>
      <point x="1172.888888888889" y="760.6111111111111" type="curve" smooth="yes"/>
      <point x="1172.888888888889" y="1115.6666666666667"/>
      <point x="964.3333333333334" y="1274.0555555555557"/>
      <point x="561.1111111111111" y="1274.0555555555557" type="curve" smooth="yes"/>
      <point x="484.8888888888889" y="1274.0555555555557"/>
      <point x="419.3888888888889" y="1267.1666666666667"/>
      <point x="368.83333333333337" y="1259.8333333333333" type="curve"/>
      <point x="368.83333333333337" y="1480.611111111111" type="line"/>
      <point x="158.5" y="1480.611111111111" type="line"/>
    </contour>
    <contour>
      <point x="551.5" y="411.11111111111114" type="curve" smooth="yes"/>
      <point x="483.66666666666674" y="411.11111111111114"/>
      <point x="428.2222222222223" y="414.33333333333337"/>
      <point x="368.83333333333337" y="422.0" type="curve"/>
      <point x="368.83333333333337" y="1092.7222222222222" type="line"/>
      <point x="432.00000000000006" y="1103.611111111111"/>
      <point x="496.0555555555556" y="1109.2777777777778"/>
      <point x="574.7222222222223" y="1109.2777777777778" type="curve" smooth="yes"/>
      <point x="838.8333333333334" y="1109.2777777777778"/>
      <point x="965.9444444444445" y="1003.8333333333333"/>
      <point x="965.9444444444445" y="758.0" type="curve" smooth="yes"/>
      <point x="965.9444444444445" y="520.0"/>
      <point x="841.2777777777778" y="411.11111111111114"/>
    </contour>
  </outline>
</glyph>
<glyph name="germandbls" format="2">
  <advance width="1442.7777777777778"/>
  <unicode hex="00DF"/>
  <outline>
    <contour>
      <point x="928.6666666666667" y="-19.555555555555557" type="curve" smooth="yes"/>
      <point x="1224.6666666666667" y="-19.555555555555557"/>
      <point x="1379.888888888889" y="105.33333333333334"/>
      <point x="1379.888888888889" y="308.3888888888889" type="curve" smooth="yes"/>
      <point x="1379.888888888889" y="479.2777777777778"/>
      <point x="1294.0" y="567.9444444444445"/>
      <point x="1094.4444444444446" y="609.5" type="curve" smooth="yes"/>
      <point x="938.6111111111112" y="639.8333333333334" type="line" smooth="yes"/>
      <point x="833.4444444444446" y="662.7222222222223"/>
      <point x="795.6111111111112" y="710.6111111111111"/>
      <point x="795.6111111111112" y="785.3888888888889" type="curve" smooth="yes"/>
      <point x="795.6111111111112" y="874.6666666666666"/>
      <point x="860.6666666666667" y="946.3888888888889"/>
      <point x="1069.0555555555557" y="946.3888888888889" type="curve" smooth="yes"/>
      <point x="1132.7777777777778" y="946.3888888888889"/>
      <point x="1178.0" y="941.3333333333333"/>
      <point x="1219.888888888889" y="934.5" type="curve"/>
      <point x="1235.7777777777778" y="996.0555555555555"/>
      <point x="1249.3333333333335" y="1077.888888888889"/>
      <point x="1249.3333333333335" y="1154.1666666666667" type="curve" smooth="yes"/>
      <point x="1249.3333333333335" y="1493.1666666666667"/>
      <point x="1044.5" y="1636.0"/>
      <point x="761.8888888888889" y="1636.0" type="curve" smooth="yes"/>
      <point x="419.22222222222223" y="1636.0"/>
      <point x="217.11111111111111" y="1448.0555555555554"/>
      <point x="217.11111111111111" y="1089.7777777777778" type="curve" smooth="yes"/>
      <point x="217.11111111111111" y="0.0" type="line"/>
      <point x="423.94444444444446" y="0.0" type="line"/>
      <point x="423.94444444444446" y="1088.8333333333333" type="line" smooth="yes"/>
      <point x="423.94444444444446" y="1368.6666666666665"/>
      <point x="547.3888888888889" y="1484.4444444444443"/>
      <point x="775.1111111111111" y="1484.4444444444443" type="curve" smooth="yes"/>
      <point x="960.0555555555557" y="1484.4444444444443"/>
      <point x="1095.111111111111" y="1400.8333333333333"/>
      <point x="1094.5" y="1166.3333333333333" type="curve" smooth="yes"/>
      <point x="1094.5" y="1111.611111111111"/>
      <point x="1086.5555555555557" y="1054.3333333333333"/>
      <point x="1073.4444444444446" y="1001.9444444444445" type="curve"/>
      <point x="1188.6111111111113" y="1090.2222222222222" type="line"/>
      <point x="1145.7777777777778" y="1096.0555555555557"/>
      <point x="1083.9444444444446" y="1098.6666666666667"/>
      <point x="1044.5555555555557" y="1098.6666666666667" type="curve" smooth="yes"/>
      <point x="746.2777777777778" y="1098.6666666666667"/>
      <point x="599.7777777777778" y="970.1666666666666"/>
      <point x="599.7777777777778" y="778.8333333333334" type="curve" smooth="yes"/>
      <point x="599.7777777777778" y="619.3333333333333"/>
      <point x="680.5" y="519.6666666666666"/>
      <point x="881.1111111111111" y="479.16666666666663" type="curve" smooth="yes"/>
      <point x="1036.9444444444446" y="448.8333333333333" type="line" smooth="yes"/>
      <point x="1143.3333333333333" y="425.94444444444446"/>
      <point x="1184.0555555555557" y="385.0"/>
      <point x="1184.0555555555557" y="299.27777777777777" type="curve" smooth="yes"/>
      <point x="1184.0555555555557" y="197.66666666666669"/>
      <point x="1111.9444444444446" y="138.61111111111114"/>
      <point x="926.9444444444445" y="138.61111111111114" type="curve" smooth="yes"/>
      <point x="829.0" y="138.61111111111114"/>
      <point x="724.8888888888889" y="152.11111111111114"/>
      <point x="622.7777777777778" y="181.00000000000003" type="curve"/>
      <point x="622.7777777777778" y="21.22222222222222" type="line"/>
      <point x="718.5" y="-6.777777777777779"/>
      <point x="825.3333333333334" y="-19.555555555555557"/>
    </contour>
    <contour>
      <point x="20.444444444444446" y="916.7777777777777" type="line"/>
      <point x="306.1666666666667" y="916.7777777777777" type="line"/>
      <point x="306.1666666666667" y="1087.7777777777778" type="line"/>
      <point x="20.444444444444446" y="1087.7777777777778" type="line"/>
    </contour>
  </outline>
</glyph>
<glyph name="atilde" format="2">
  <advance width="1055.611111111111"/>
  <unicode hex="00E3"/>
  <anchor x="523.8888888888889" y="1200.0" name="_top"/>
  <anchor x="532.4444444444445" y="0.0" name="bottom"/>
  <anchor x="924.8888888888889" y="0.0" name="ogonek"/>
  <anchor x="523.8888888888889" y="1200.0" name="top"/>
  <outline>
    <contour>
      <point x="419.6666666666667" y="-18.333333333333336" type="curve" smooth="yes"/>
      <point x="544.2777777777778" y="-18.333333333333336"/>
      <point x="656.7222222222222" y="27.888888888888886"/>
      <point x="726.0555555555555" y="117.5" type="curve"/>
      <point x="737.9444444444445" y="117.5" type="line"/>
      <point x="752.8888888888889" y="0.0" type="line"/>
      <point x="924.8888888888889" y="0.0" type="line"/>
      <point x="924.8888888888889" y="693.1111111111111" type="line" smooth="yes"/>
      <point x="924.8888888888889" y="1003.4444444444445"/>
      <point x="779.2222222222223" y="1104.5555555555557"/>
      <point x="483.05555555555554" y="1104.5555555555557" type="curve" smooth="yes"/>
      <point x="379.8888888888889" y="1104.5555555555557"/>
      <point x="254.05555555555554" y="1088.3333333333333"/>
      <point x="157.44444444444443" y="1057.111111111111" type="curve"/>
      <point x="157.44444444444443" y="893.8333333333333" type="line"/>
      <point x="258.3333333333333" y="926.9444444444443"/>
      <point x="368.0" y="940.9444444444443"/>
      <point x="451.55555555555554" y="940.9444444444443" type="curve" smooth="yes"/>
      <point x="636.5" y="940.9444444444443"/>
      <point x="722.3333333333333" y="888.3888888888889"/>
      <point x="722.3333333333333" y="704.3888888888889" type="curve" smooth="yes"/>
      <point x="722.3333333333333" y="248.0" type="line"/>
      <point x="653.5" y="165.66666666666669"/>
      <point x="563.3888888888889" y="134.00000000000003"/>
      <point x="478.6666666666667" y="134.00000000000003" type="curve" smooth="yes"/>
      <point x="354.00000000000006" y="134.00000000000003"/>
      <point x="290.11111111111114" y="193.11111111111114"/>
      <point x="290.11111111111114" y="302.94444444444446" type="curve" smooth="yes"/>
      <point x="290.11111111111114" y="408.8333333333333"/>
      <point x="354.61111111111114" y="468.27777777777777"/>
      <point x="512.0555555555555" y="484.27777777777777" type="curve" smooth="yes"/>
      <point x="788.8333333333334" y="512.0" type="line"/>
      <point x="768.3333333333334" y="639.0555555555555" type="line"/>
      <point x="495.0" y="611.3333333333334" type="line" smooth="yes"/>
      <point x="206.11111111111111" y="586.2222222222223"/>
      <point x="83.1111111111111" y="477.33333333333337"/>
      <point x="83.1111111111111" y="283.33333333333337" type="curve" smooth="yes"/>
      <point x="83.1111111111111" y="97.66666666666667"/>
      <point x="209.55555555555554" y="-18.333333333333336"/>
    </contour>
    <contour>
      <point x="671.1111111111111" y="1327.5" type="curve" smooth="yes"/>
      <point x="745.3888888888889" y="1327.5"/>
      <point x="802.2222222222223" y="1350.6666666666667"/>
      <point x="846.9444444444445" y="1397.4444444444443" type="curve"/>
      <point x="846.9444444444445" y="1537.9444444444443" type="line"/>
      <point x="793.8333333333334" y="1483.7222222222222"/>
      <point x="742.3888888888889" y="1459.1666666666667"/>
      <point x="674.2222222222223" y="1459.1666666666667" type="curve" smooth="yes"/>
      <point x="580.1666666666667" y="1459.1666666666667"/>
      <point x="490.72222222222223" y="1544.111111111111"/>
      <point x="376.6666666666667" y="1544.111111111111" type="curve" smooth="yes"/>
      <point x="302.3888888888889" y="1544.111111111111"/>
      <point x="245.55555555555554" y="1520.9444444444443"/>
      <point x="200.83333333333334" y="1474.1666666666667" type="curve"/>
      <point x="200.83333333333334" y="1333.6666666666667" type="line"/>
      <point x="253.94444444444446" y="1387.888888888889"/>
      <point x="305.3888888888889" y="1412.4444444444443"/>
      <point x="373.55555555555554" y="1412.4444444444443" type="curve" smooth="yes"/>
      <point x="467.61111111111114" y="1412.4444444444443"/>
      <point x="557.0555555555555" y="1327.5"/>
    </contour>
  </outline>
</glyph>
<glyph name="adieresis" format="2">
  <advance width="1055.611111111111"/>
  <unicode hex="00E4"/>
  <anchor x="523.8888888888889" y="1200.0" name="_top"/>
  <anchor x="532.4444444444445" y="0.0" name="bottom"/>
  <anchor x="924.8888888888889" y="0.0" name="ogonek"/>
  <anchor x="523.8888888888889" y="1200.0" name="top"/>
  <outline>
    <contour>
      <point x="419.6666666666667" y="-18.333333333333336" type="curve" smooth="yes"/>
      <point x="544.2777777777778" y="-18.333333333333336"/>
      <point x="656.7222222222222" y="27.888888888888886"/>
      <point x="726.0555555555555" y="117.5" type="curve"/>
      <point x="737.9444444444445" y="117.5" type="line"/>
      <point x="752.8888888888889" y="0.0" type="line"/>
      <point x="924.8888888888889" y="0.0" type="line"/>
      <point x="924.8888888888889" y="693.1111111111111" type="line" smooth="yes"/>
      <point x="924.8888888888889" y="1003.4444444444445"/>
      <point x="779.2222222222223" y="1104.5555555555557"/>
      <point x="483.05555555555554" y="1104.5555555555557" type="curve" smooth="yes"/>
      <point x="379.8888888888889" y="1104.5555555555557"/>
      <point x="254.05555555555554" y="1088.3333333333333"/>
      <point x="157.44444444444443" y="1057.111111111111" type="curve"/>
      <point x="157.44444444444443" y="893.8333333333333" type="line"/>
      <point x="258.3333333333333" y="926.9444444444443"/>
      <point x="368.0" y="940.9444444444443"/>
      <point x="451.55555555555554" y="940.9444444444443" type="curve" smooth="yes"/>
      <point x="636.5" y="940.9444444444443"/>
      <point x="722.3333333333333" y="888.3888888888889"/>
      <point x="722.3333333333333" y="704.3888888888889" type="curve" smooth="yes"/>
      <point x="722.3333333333333" y="248.0" type="line"/>
      <point x="653.5" y="165.66666666666669"/>
      <point x="563.3888888888889" y="134.00000000000003"/>
      <point x="478.6666666666667" y="134.00000000000003" type="curve" smooth="yes"/>
      <point x="354.00000000000006" y="134.00000000000003"/>
      <point x="290.11111111111114" y="193.11111111111114"/>
      <point x="290.11111111111114" y="302.94444444444446" type="curve" smooth="yes"/>
      <point x="290.11111111111114" y="408.8333333333333"/>
      <point x="354.61111111111114" y="468.27777777777777"/>
      <point x="512.0555555555555" y="484.27777777777777" type="curve" smooth="yes"/>
      <point x="788.8333333333334" y="512.0" type="line"/>
      <point x="768.3333333333334" y="639.0555555555555" type="line"/>
      <point x="495.0" y="611.3333333333334" type="line" smooth="yes"/>
      <point x="206.11111111111111" y="586.2222222222223"/>
      <point x="83.1111111111111" y="477.33333333333337"/>
      <point x="83.1111111111111" y="283.33333333333337" type="curve" smooth="yes"/>
      <point x="83.1111111111111" y="97.66666666666667"/>
      <point x="209.55555555555554" y="-18.333333333333336"/>
    </contour>
    <contour>
      <point x="748.7777777777778" y="1303.611111111111" type="curve" smooth="yes"/>
      <point x="826.3888888888889" y="1303.611111111111"/>
      <point x="871.8333333333334" y="1347.8333333333333"/>
      <point x="871.8333333333334" y="1420.4444444444443" type="curve" smooth="yes"/>
      <point x="871.8333333333334" y="1493.0555555555557"/>
      <point x="826.3888888888889" y="1538.5"/>
      <point x="748.7777777777778" y="1538.5" type="curve" smooth="yes"/>
      <point x="671.1666666666667" y="1538.5"/>
      <point x="625.7222222222222" y="1493.0555555555557"/>
      <point x="625.7222222222222" y="1420.4444444444443" type="curve" smooth="yes"/>
      <point x="625.7222222222222" y="1347.8333333333333"/>
      <point x="671.1666666666667" y="1303.611111111111"/>
    </contour>
    <contour>
      <point x="299.0" y="1303.611111111111" type="curve" smooth="yes"/>
      <point x="376.61111111111114" y="1303.611111111111"/>
      <point x="422.0555555555556" y="1347.8333333333333"/>
      <point x="422.0555555555556" y="1420.4444444444443" type="curve" smooth="yes"/>
      <point x="422.0555555555556" y="1493.0555555555557"/>
      <point x="376.61111111111114" y="1538.5"/>
      <point x="299.0" y="1538.5" type="curve" smooth="yes"/>
      <point x="221.38888888888889" y="1538.5"/>
      <point x="175.94444444444443" y="1493.0555555555557"/>
      <point x="175.94444444444443" y="1420.4444444444443" type="curve" smooth="yes"/>
      <point x="175.94444444444443" y="1347.8333333333333"/>
      <point x="221.38888888888889" y="1303.611111111111"/>
    </contour>
  </outline>
</glyph>
